{
	"patcher" : 	{
		"fileversion" : 1,
		"appversion" : 		{
			"major" : 8,
			"minor" : 1,
			"revision" : 5,
			"architecture" : "x64",
			"modernui" : 1
		}
,
		"classnamespace" : "box",
		"rect" : [ 1.0, 45.0, 619.0, 242.0 ],
		"bglocked" : 0,
		"openinpresentation" : 1,
		"default_fontsize" : 12.0,
		"default_fontface" : 0,
		"default_fontname" : "Arial",
		"gridonopen" : 2,
		"gridsize" : [ 10.0, 10.0 ],
		"gridsnaponopen" : 2,
		"objectsnaponopen" : 1,
		"statusbarvisible" : 2,
		"toolbarvisible" : 0,
		"lefttoolbarpinned" : 0,
		"toptoolbarpinned" : 0,
		"righttoolbarpinned" : 0,
		"bottomtoolbarpinned" : 0,
		"toolbars_unpinned_last_save" : 15,
		"tallnewobj" : 0,
		"boxanimatetime" : 200,
		"enablehscroll" : 1,
		"enablevscroll" : 1,
		"devicewidth" : 0.0,
		"description" : "",
		"digest" : "",
		"tags" : "",
		"style" : "",
		"subpatcher_template" : "--Template",
		"assistshowspatchername" : 0,
		"boxes" : [ 			{
				"box" : 				{
					"id" : "obj-14",
					"maxclass" : "newobj",
					"numinlets" : 1,
					"numoutlets" : 1,
					"outlettype" : [ "" ],
					"patching_rect" : [ 560.0, 200.0, 72.0, 22.0 ],
					"text" : "prepend set"
				}

			}
, 			{
				"box" : 				{
					"id" : "obj-15",
					"maxclass" : "number",
					"numinlets" : 1,
					"numoutlets" : 2,
					"outlettype" : [ "", "bang" ],
					"parameter_enable" : 0,
					"patching_rect" : [ 560.0, 230.0, 50.0, 22.0 ],
					"presentation" : 1,
					"presentation_rect" : [ 550.0, 188.0, 41.0, 22.0 ],
					"textcolor" : [ 0.43921568627451, 0.749019607843137, 0.254901960784314, 1.0 ]
				}

			}
, 			{
				"box" : 				{
					"id" : "obj-29",
					"maxclass" : "message",
					"numinlets" : 2,
					"numoutlets" : 1,
					"outlettype" : [ "" ],
					"patching_rect" : [ 330.0, 12.0, 119.0, 22.0 ],
					"presentation" : 1,
					"presentation_rect" : [ 370.0, 10.0, 119.0, 22.0 ],
					"text" : "Open Latency Tester"
				}

			}
, 			{
				"box" : 				{
					"bgcolor" : [ 0.03921568627451, 0.305882352941176, 0.698039215686274, 1.0 ],
					"id" : "obj-20",
					"maxclass" : "newobj",
					"numinlets" : 1,
					"numoutlets" : 0,
					"patching_rect" : [ 330.0, 45.0, 103.0, 22.0 ],
					"text" : "qxt.LatencyTester"
				}

			}
, 			{
				"box" : 				{
					"angle" : 270.0,
					"border" : 1,
					"bordercolor" : [ 0.151045173406601, 0.151188120245934, 0.151061803102493, 1.0 ],
					"grad1" : [ 0.2, 0.2, 0.2, 0.0 ],
					"grad2" : [ 0.2, 0.2, 0.2, 0.0 ],
					"id" : "obj-18",
					"maxclass" : "panel",
					"mode" : 1,
					"numinlets" : 1,
					"numoutlets" : 0,
					"patching_rect" : [ 1120.5, 9.0, 20.0, 20.0 ],
					"presentation" : 1,
					"presentation_rect" : [ 20.0, 90.0, 230.0, 130.0 ],
					"proportion" : 0.5,
					"rounded" : 0
				}

			}
, 			{
				"box" : 				{
					"id" : "obj-11",
					"maxclass" : "message",
					"numinlets" : 2,
					"numoutlets" : 1,
					"outlettype" : [ "" ],
					"patching_rect" : [ 193.5, 496.0, 96.0, 22.0 ],
					"presentation" : 1,
					"presentation_rect" : [ 510.0, 10.0, 96.0, 22.0 ],
					"text" : "Open QuackTrip"
				}

			}
, 			{
				"box" : 				{
					"fontface" : 1,
					"fontsize" : 14.0,
					"id" : "obj-5",
					"maxclass" : "comment",
					"numinlets" : 1,
					"numoutlets" : 0,
					"patching_rect" : [ 445.0, 100.0, 103.0, 22.0 ],
					"presentation" : 1,
					"presentation_rect" : [ 488.0, 45.0, 64.0, 22.0 ],
					"text" : " Output",
					"textjustification" : 1
				}

			}
, 			{
				"box" : 				{
					"id" : "obj-36",
					"maxclass" : "message",
					"numinlets" : 2,
					"numoutlets" : 1,
					"outlettype" : [ "" ],
					"patching_rect" : [ 50.0, 190.0, 29.5, 22.0 ],
					"text" : "1"
				}

			}
, 			{
				"box" : 				{
					"id" : "obj-23",
					"maxclass" : "message",
					"numinlets" : 2,
					"numoutlets" : 1,
					"outlettype" : [ "" ],
					"patching_rect" : [ 10.0, 190.0, 29.5, 22.0 ],
					"text" : "0"
				}

			}
, 			{
				"box" : 				{
					"id" : "obj-28",
					"maxclass" : "message",
					"numinlets" : 2,
					"numoutlets" : 1,
					"outlettype" : [ "" ],
					"patching_rect" : [ 10.0, 220.0, 61.0, 22.0 ],
					"text" : "hidden $1"
				}

			}
, 			{
				"box" : 				{
					"id" : "obj-35",
					"maxclass" : "newobj",
					"numinlets" : 3,
					"numoutlets" : 3,
					"outlettype" : [ "bang", "bang", "" ],
					"patching_rect" : [ 10.0, 150.0, 70.0, 22.0 ],
					"text" : "sel 1 0"
				}

			}
, 			{
				"box" : 				{
					"id" : "obj-21",
					"maxclass" : "ezadc~",
					"numinlets" : 1,
					"numoutlets" : 2,
					"outlettype" : [ "signal", "signal" ],
					"patching_rect" : [ 156.5, 259.0, 33.0, 33.0 ],
					"presentation" : 1,
					"presentation_rect" : [ 45.0, 170.0, 40.0, 40.0 ]
				}

			}
, 			{
				"box" : 				{
					"bgcolor" : [ 0.03921568627451, 0.305882352941176, 0.698039215686274, 1.0 ],
					"id" : "obj-61",
					"maxclass" : "newobj",
					"numinlets" : 0,
					"numoutlets" : 0,
					"patching_rect" : [ 980.0, 129.0, 132.0, 22.0 ],
					"text" : "qxt.Repattr OutputGain",
					"varname" : "mp.Repattr[4]"
				}

			}
, 			{
				"box" : 				{
					"args" : [ "remote", 2, 1 ],
					"bgmode" : 0,
					"border" : 1,
					"clickthrough" : 0,
					"enablehscroll" : 0,
					"enablevscroll" : 0,
					"id" : "obj-57",
					"lockeddragscroll" : 0,
					"maxclass" : "bpatcher",
					"name" : "qxt.Channel.maxpat",
					"numinlets" : 2,
					"numoutlets" : 2,
					"offset" : [ 0.0, 0.0 ],
					"outlettype" : [ "signal", "signal" ],
					"patching_rect" : [ 151.5, 616.0, 140.0, 130.0 ],
					"presentation" : 1,
					"presentation_rect" : [ 280.0, 90.0, 130.0, 130.0 ],
					"varname" : "qxt.Channel[1]",
					"viewvisibility" : 1
				}

			}
, 			{
				"box" : 				{
					"bgcolor" : [ 0.6642446518, 0.0, 0.0456424281, 1.0 ],
					"id" : "obj-56",
					"maxclass" : "newobj",
					"numinlets" : 1,
					"numoutlets" : 1,
					"outlettype" : [ "signal" ],
					"patching_rect" : [ 37.5, 496.0, 122.0, 22.0 ],
					"text" : "receive~ qxt.quack_L"
				}

			}
, 			{
				"box" : 				{
					"bgcolor" : [ 0.03921568627451, 0.305882352941176, 0.698039215686274, 1.0 ],
					"id" : "obj-55",
					"maxclass" : "newobj",
					"numinlets" : 0,
					"numoutlets" : 0,
					"patching_rect" : [ 980.0, 159.0, 123.0, 22.0 ],
					"text" : "qxt.Repattr MixSelect",
					"varname" : "mp.Repattr[3]"
				}

			}
, 			{
				"box" : 				{
					"id" : "obj-67",
					"knobcolor" : [ 0.43921568627451, 0.749019607843137, 0.254901960784314, 1.0 ],
					"maxclass" : "gain~",
					"multichannelvariant" : 0,
					"numinlets" : 1,
					"numoutlets" : 2,
					"outlettype" : [ "signal", "" ],
					"parameter_enable" : 1,
					"patching_rect" : [ 720.0, 197.0, 20.0, 60.0 ],
					"saved_attribute_attributes" : 					{
						"valueof" : 						{
							"parameter_initial" : [ 127 ],
							"parameter_initial_enable" : 1,
							"parameter_longname" : "gain~[1]",
							"parameter_mmax" : 157.0,
							"parameter_shortname" : "gain~",
							"parameter_type" : 0
						}

					}
,
					"varname" : "gain~[5]"
				}

			}
, 			{
				"box" : 				{
					"id" : "obj-68",
					"maxclass" : "meter~",
					"numinlets" : 1,
					"numoutlets" : 1,
					"outlettype" : [ "float" ],
					"patching_rect" : [ 771.0, 197.0, 18.5, 60.0 ],
					"presentation" : 1,
					"presentation_rect" : [ 579.0, 100.0, 12.0, 90.333332747220993 ]
				}

			}
, 			{
				"box" : 				{
					"id" : "obj-129",
					"knobcolor" : [ 0.43921568627451, 0.749019607843137, 0.254901960784314, 1.0 ],
					"maxclass" : "gain~",
					"multichannelvariant" : 0,
					"numinlets" : 1,
					"numoutlets" : 2,
					"outlettype" : [ "signal", "" ],
					"parameter_enable" : 0,
					"patching_rect" : [ 640.0, 197.0, 20.0, 60.0 ],
					"presentation" : 1,
					"presentation_rect" : [ 550.0, 100.0, 20.0, 90.333332747220993 ],
					"varname" : "OutputGain"
				}

			}
, 			{
				"box" : 				{
					"id" : "obj-130",
					"maxclass" : "meter~",
					"numinlets" : 1,
					"numoutlets" : 1,
					"outlettype" : [ "float" ],
					"patching_rect" : [ 752.25, 197.0, 18.5, 60.0 ],
					"presentation" : 1,
					"presentation_rect" : [ 569.75, 100.0, 12.0, 90.333332747220993 ]
				}

			}
, 			{
				"box" : 				{
					"id" : "obj-53",
					"maxclass" : "newobj",
					"numinlets" : 2,
					"numoutlets" : 1,
					"outlettype" : [ "int" ],
					"patching_rect" : [ 640.0, 117.0, 29.5, 22.0 ],
					"text" : "+ 1"
				}

			}
, 			{
				"box" : 				{
					"id" : "obj-52",
					"maxclass" : "newobj",
					"numinlets" : 3,
					"numoutlets" : 1,
					"outlettype" : [ "signal" ],
					"patching_rect" : [ 720.0, 157.0, 68.0, 22.0 ],
					"text" : "selector~ 2"
				}

			}
, 			{
				"box" : 				{
					"id" : "obj-51",
					"maxclass" : "tab",
					"numinlets" : 1,
					"numoutlets" : 3,
					"outlettype" : [ "int", "", "" ],
					"parameter_enable" : 0,
					"patching_rect" : [ 640.0, 10.0, 200.0, 24.0 ],
					"presentation" : 1,
					"presentation_rect" : [ 440.0, 68.0, 160.0, 20.0 ],
					"tabs" : [ "Live Mix", "Monitor Mix" ],
					"varname" : "MixSelect"
				}

			}
, 			{
				"box" : 				{
					"id" : "obj-50",
					"maxclass" : "newobj",
					"numinlets" : 3,
					"numoutlets" : 1,
					"outlettype" : [ "signal" ],
					"patching_rect" : [ 640.0, 157.0, 68.0, 22.0 ],
					"text" : "selector~ 2"
				}

			}
, 			{
				"box" : 				{
					"fontface" : 1,
					"id" : "obj-48",
					"linecount" : 2,
					"maxclass" : "comment",
					"numinlets" : 1,
					"numoutlets" : 0,
					"patching_rect" : [ 445.0, 134.5, 105.0, 33.0 ],
					"presentation" : 1,
					"presentation_linecount" : 2,
					"presentation_rect" : [ 440.0, 100.0, 105.0, 33.0 ],
					"text" : "Output Starting Channel",
					"textjustification" : 1
				}

			}
, 			{
				"box" : 				{
					"id" : "obj-46",
					"maxclass" : "newobj",
					"numinlets" : 2,
					"numoutlets" : 1,
					"outlettype" : [ "" ],
					"patching_rect" : [ 500.0, 245.0, 34.0, 22.0 ],
					"text" : "pack"
				}

			}
, 			{
				"box" : 				{
					"id" : "obj-47",
					"maxclass" : "newobj",
					"numinlets" : 2,
					"numoutlets" : 1,
					"outlettype" : [ "int" ],
					"patching_rect" : [ 515.0, 211.0, 29.5, 22.0 ],
					"text" : "+ 1"
				}

			}
, 			{
				"box" : 				{
					"bgcolor" : [ 0.03921568627451, 0.305882352941176, 0.698039215686274, 1.0 ],
					"id" : "obj-45",
					"maxclass" : "newobj",
					"numinlets" : 0,
					"numoutlets" : 0,
					"patching_rect" : [ 980.0, 99.0, 193.0, 22.0 ],
					"text" : "qxt.Repattr OutputStartingChannel",
					"varname" : "mp.Repattr[2]"
				}

			}
, 			{
				"box" : 				{
					"id" : "obj-44",
					"maxclass" : "number",
					"numinlets" : 1,
					"numoutlets" : 2,
					"outlettype" : [ "", "bang" ],
					"parameter_enable" : 0,
					"patching_rect" : [ 500.0, 171.0, 50.0, 22.0 ],
					"presentation" : 1,
					"presentation_rect" : [ 462.5, 140.0, 50.0, 22.0 ],
					"textcolor" : [ 0.43921568627451, 0.749019607843137, 0.254901960784314, 1.0 ],
					"varname" : "OutputStartingChannel"
				}

			}
, 			{
				"box" : 				{
					"bgcolor" : [ 0.6642446518, 0.0, 0.0456424281, 1.0 ],
					"id" : "obj-3",
					"maxclass" : "newobj",
					"numinlets" : 1,
					"numoutlets" : 1,
					"outlettype" : [ "signal" ],
					"patching_rect" : [ 769.0, 127.0, 148.0, 22.0 ],
					"text" : "receive~ qxt.post_mute_R"
				}

			}
, 			{
				"box" : 				{
					"bgcolor" : [ 0.6642446518, 0.0, 0.0456424281, 1.0 ],
					"id" : "obj-42",
					"maxclass" : "newobj",
					"numinlets" : 1,
					"numoutlets" : 1,
					"outlettype" : [ "signal" ],
					"patching_rect" : [ 689.0, 70.0, 146.0, 22.0 ],
					"text" : "receive~ qxt.post_mute_L"
				}

			}
, 			{
				"box" : 				{
					"bgcolor" : [ 0.6642446518, 0.0, 0.0456424281, 1.0 ],
					"id" : "obj-87",
					"maxclass" : "newobj",
					"numinlets" : 1,
					"numoutlets" : 1,
					"outlettype" : [ "signal" ],
					"patching_rect" : [ 744.5, 100.0, 143.0, 22.0 ],
					"text" : "receive~ qxt.pre_mute_R"
				}

			}
, 			{
				"box" : 				{
					"bgcolor" : [ 0.6642446518, 0.0, 0.0456424281, 1.0 ],
					"id" : "obj-88",
					"maxclass" : "newobj",
					"numinlets" : 1,
					"numoutlets" : 1,
					"outlettype" : [ "signal" ],
					"patching_rect" : [ 663.5, 40.0, 141.0, 22.0 ],
					"text" : "receive~ qxt.pre_mute_L"
				}

			}
, 			{
				"box" : 				{
					"id" : "obj-41",
					"maxclass" : "message",
					"numinlets" : 2,
					"numoutlets" : 1,
					"outlettype" : [ "" ],
					"patching_rect" : [ 193.5, 526.0, 35.0, 22.0 ],
					"text" : "open"
				}

			}
, 			{
				"box" : 				{
					"id" : "obj-39",
					"maxclass" : "newobj",
					"numinlets" : 2,
					"numoutlets" : 1,
					"outlettype" : [ "int" ],
					"patching_rect" : [ 188.0, 110.0, 39.0, 22.0 ],
					"text" : "== 64"
				}

			}
, 			{
				"box" : 				{
					"id" : "obj-38",
					"maxclass" : "newobj",
					"numinlets" : 2,
					"numoutlets" : 1,
					"outlettype" : [ "signal" ],
					"patching_rect" : [ 289.0, 310.0, 39.0, 22.0 ],
					"text" : "gate~"
				}

			}
, 			{
				"box" : 				{
					"id" : "obj-37",
					"maxclass" : "newobj",
					"numinlets" : 2,
					"numoutlets" : 1,
					"outlettype" : [ "signal" ],
					"patching_rect" : [ 239.0, 310.0, 39.0, 22.0 ],
					"text" : "gate~"
				}

			}
, 			{
				"box" : 				{
					"bgcolor" : [ 0.662745098039216, 0.0, 0.047058823529412, 1.0 ],
					"id" : "obj-34",
					"maxclass" : "newobj",
					"numinlets" : 1,
					"numoutlets" : 1,
					"outlettype" : [ "signal" ],
					"patching_rect" : [ 309.0, 280.0, 117.0, 22.0 ],
					"text" : "receive~ qxt.local_R"
				}

			}
, 			{
				"box" : 				{
					"bgcolor" : [ 0.662745098039216, 0.0, 0.047058823529412, 1.0 ],
					"id" : "obj-33",
					"maxclass" : "newobj",
					"numinlets" : 1,
					"numoutlets" : 1,
					"outlettype" : [ "signal" ],
					"patching_rect" : [ 259.0, 250.0, 115.0, 22.0 ],
					"text" : "receive~ qxt.local_L"
				}

			}
, 			{
				"box" : 				{
					"args" : [ "local", 1 ],
					"bgmode" : 0,
					"border" : 0,
					"clickthrough" : 0,
					"enablehscroll" : 0,
					"enablevscroll" : 0,
					"id" : "obj-30",
					"lockeddragscroll" : 0,
					"maxclass" : "bpatcher",
					"name" : "qxt.Channel.maxpat",
					"numinlets" : 2,
					"numoutlets" : 2,
					"offset" : [ 10.0, 0.0 ],
					"outlettype" : [ "signal", "signal" ],
					"patching_rect" : [ 156.5, 350.0, 140.0, 130.0 ],
					"presentation" : 1,
					"presentation_rect" : [ 110.0, 90.0, 140.0, 130.0 ],
					"varname" : "qxt.Channel",
					"viewvisibility" : 1
				}

			}
, 			{
				"box" : 				{
					"id" : "obj-27",
					"maxclass" : "newobj",
					"numinlets" : 2,
					"numoutlets" : 1,
					"outlettype" : [ "int" ],
					"patching_rect" : [ 82.5, 110.0, 32.0, 22.0 ],
					"text" : "< 64"
				}

			}
, 			{
				"box" : 				{
					"id" : "obj-25",
					"maxclass" : "newobj",
					"numinlets" : 2,
					"numoutlets" : 1,
					"outlettype" : [ "signal" ],
					"patching_rect" : [ 188.0, 310.0, 39.0, 22.0 ],
					"text" : "gate~"
				}

			}
, 			{
				"box" : 				{
					"id" : "obj-22",
					"maxclass" : "newobj",
					"numinlets" : 2,
					"numoutlets" : 1,
					"outlettype" : [ "signal" ],
					"patching_rect" : [ 136.5, 310.0, 39.0, 22.0 ],
					"text" : "gate~"
				}

			}
, 			{
				"box" : 				{
					"id" : "obj-19",
					"maxclass" : "newobj",
					"numinlets" : 2,
					"numoutlets" : 1,
					"outlettype" : [ "int" ],
					"patching_rect" : [ 156.5, 140.0, 29.5, 22.0 ],
					"text" : "+ 1"
				}

			}
, 			{
				"box" : 				{
					"id" : "obj-16",
					"maxclass" : "newobj",
					"numinlets" : 2,
					"numoutlets" : 2,
					"outlettype" : [ "", "" ],
					"patching_rect" : [ 122.5, 110.0, 53.0, 22.0 ],
					"text" : "route 64"
				}

			}
, 			{
				"box" : 				{
					"bgfillcolor_color" : [ 0.2, 0.2, 0.2, 1 ],
					"bgfillcolor_color1" : [ 0.301961, 0.301961, 0.301961, 1 ],
					"bgfillcolor_color2" : [ 0.2, 0.2, 0.2, 1 ],
					"bgfillcolor_type" : "gradient",
					"id" : "obj-12",
					"items" : [ 1, ",", 2, ",", 3, ",", 4, ",", 5, ",", 6, ",", 7, ",", 8, ",", 9, ",", 10, ",", 11, ",", 12, ",", 13, ",", 14, ",", 15, ",", 16, ",", 17, ",", 18, ",", 19, ",", 20, ",", 21, ",", 22, ",", 23, ",", 24, ",", 25, ",", 26, ",", 27, ",", 28, ",", 29, ",", 30, ",", 31, ",", 32, ",", 33, ",", 34, ",", 35, ",", 36, ",", 37, ",", 38, ",", 39, ",", 40, ",", 41, ",", 42, ",", 43, ",", 44, ",", 45, ",", 46, ",", 47, ",", 48, ",", 49, ",", 50, ",", 51, ",", 52, ",", 53, ",", 54, ",", 55, ",", 56, ",", 57, ",", 58, ",", 59, ",", 60, ",", 61, ",", 62, ",", 63, ",", 64, ",", "qxt.local" ],
					"maxclass" : "umenu",
					"numinlets" : 1,
					"numoutlets" : 3,
					"outlettype" : [ "int", "", "" ],
					"parameter_enable" : 0,
					"patching_rect" : [ 122.5, 70.0, 70.0, 22.0 ],
					"presentation" : 1,
					"presentation_rect" : [ 30.0, 141.0, 70.0, 22.0 ],
					"textcolor" : [ 0.43921568627451, 0.749019607843137, 0.254901960784314, 1.0 ],
					"varname" : "LocalStartingChannel"
				}

			}
, 			{
				"box" : 				{
					"bgcolor" : [ 0.03921568627451, 0.305882352941176, 0.698039215686274, 1.0 ],
					"id" : "obj-4",
					"maxclass" : "newobj",
					"numinlets" : 0,
					"numoutlets" : 0,
					"patching_rect" : [ 980.0, 69.0, 185.0, 22.0 ],
					"text" : "qxt.Repattr LocalStartingChannel",
					"varname" : "mp.Repattr[1]"
				}

			}
, 			{
				"box" : 				{
					"id" : "obj-7",
					"maxclass" : "newobj",
					"numinlets" : 2,
					"numoutlets" : 1,
					"outlettype" : [ "" ],
					"patching_rect" : [ 156.5, 210.0, 34.0, 22.0 ],
					"text" : "pack"
				}

			}
, 			{
				"box" : 				{
					"id" : "obj-8",
					"maxclass" : "newobj",
					"numinlets" : 2,
					"numoutlets" : 1,
					"outlettype" : [ "int" ],
					"patching_rect" : [ 171.5, 180.0, 29.5, 22.0 ],
					"text" : "+ 1"
				}

			}
, 			{
				"box" : 				{
					"fontface" : 1,
					"id" : "obj-9",
					"maxclass" : "comment",
					"numinlets" : 1,
					"numoutlets" : 0,
					"patching_rect" : [ 89.0, 48.0, 137.0, 20.0 ],
					"presentation" : 1,
					"presentation_linecount" : 2,
					"presentation_rect" : [ 20.0, 100.0, 90.0, 33.0 ],
					"text" : "Input Starting Channel",
					"textjustification" : 1
				}

			}
, 			{
				"box" : 				{
					"fontface" : 1,
					"fontsize" : 14.0,
					"id" : "obj-85",
					"maxclass" : "comment",
					"numinlets" : 1,
					"numoutlets" : 0,
					"patching_rect" : [ 256.5, 536.0, 103.0, 22.0 ],
					"presentation" : 1,
					"presentation_rect" : [ 312.5, 45.0, 64.0, 22.0 ],
					"text" : " Remote",
					"textjustification" : 1
				}

			}
, 			{
				"box" : 				{
					"fontface" : 1,
					"fontsize" : 14.0,
					"id" : "obj-86",
					"maxclass" : "comment",
					"numinlets" : 1,
					"numoutlets" : 0,
					"patching_rect" : [ 107.5, 6.0, 83.0, 22.0 ],
					"presentation" : 1,
					"presentation_rect" : [ 93.5, 45.0, 83.0, 22.0 ],
					"text" : "Local",
					"textjustification" : 1
				}

			}
, 			{
				"box" : 				{
					"id" : "obj-31",
					"maxclass" : "ezdac~",
					"numinlets" : 2,
					"numoutlets" : 0,
					"patching_rect" : [ 670.5, 272.5, 45.0, 45.0 ],
					"presentation" : 1,
					"presentation_rect" : [ 468.25, 171.5, 38.5, 38.5 ]
				}

			}
, 			{
				"box" : 				{
					"id" : "obj-26",
					"maxclass" : "button",
					"numinlets" : 1,
					"numoutlets" : 1,
					"outlettype" : [ "bang" ],
					"parameter_enable" : 0,
					"patching_rect" : [ 980.0, 9.0, 20.0, 20.0 ]
				}

			}
, 			{
				"box" : 				{
					"bgcolor" : [ 0.039216, 0.305882, 0.698039, 1.0 ],
					"id" : "obj-24",
					"maxclass" : "newobj",
					"numinlets" : 1,
					"numoutlets" : 0,
					"patching_rect" : [ 980.0, 39.0, 87.0, 22.0 ],
					"text" : "qxt.Repattrhub"
				}

			}
, 			{
				"box" : 				{
					"autosave" : 1,
					"bgmode" : 0,
					"border" : 0,
					"clickthrough" : 0,
					"id" : "obj-1",
					"maxclass" : "newobj",
					"numinlets" : 2,
					"numoutlets" : 8,
					"offset" : [ 0.0, 0.0 ],
					"outlettype" : [ "signal", "signal", "", "list", "int", "", "", "" ],
					"patching_rect" : [ 151.5, 566.0, 330.0, 22.0 ],
					"save" : [ "#N", "vst~", "loaduniqueid", 0, 2, "Quack4", ";" ],
					"saved_attribute_attributes" : 					{
						"valueof" : 						{
							"parameter_invisible" : 1,
							"parameter_longname" : "vst~",
							"parameter_shortname" : "vst~",
							"parameter_type" : 3
						}

					}
,
					"saved_object_attributes" : 					{
						"parameter_enable" : 1,
						"parameter_mappable" : 0
					}
,
					"snapshot" : 					{
						"filetype" : "C74Snapshot",
						"version" : 2,
						"minorversion" : 0,
						"name" : "snapshotlist",
						"origin" : "vst~",
						"type" : "list",
						"subtype" : "Undefined",
						"embed" : 1,
						"snapshot" : 						{
							"pluginname" : "Quack4.vstinfo",
							"plugindisplayname" : "Quack4",
							"pluginsavedname" : "",
							"pluginsaveduniqueid" : 0,
							"version" : 1,
							"isbank" : 0,
							"isbase64" : 1,
							"blob" : "115.CMlaKA....fQPMDZ....AD2T0QF.A.fA....A.........................................vMVMjLg3B....OCEVau0VZrU1TkQGco41Yy4COvElbg01bu3COuLTXs8VaowVYSUFczklamMmO.."
						}
,
						"snapshotlist" : 						{
							"current_snapshot" : 0,
							"entries" : [ 								{
									"filetype" : "C74Snapshot",
									"version" : 2,
									"minorversion" : 0,
									"name" : "Quack4",
									"origin" : "Quack4.vstinfo",
									"type" : "VST",
									"subtype" : "MidiEffect",
									"embed" : 0,
									"snapshot" : 									{
										"pluginname" : "Quack4.vstinfo",
										"plugindisplayname" : "Quack4",
										"pluginsavedname" : "",
										"pluginsaveduniqueid" : 0,
										"version" : 1,
										"isbank" : 0,
										"isbase64" : 1,
										"blob" : "115.CMlaKA....fQPMDZ....AD2T0QF.A.fA....A.........................................vMVMjLg3B....OCEVau0VZrU1TkQGco41Yy4COvElbg01bu3COuLTXs8VaowVYSUFczklamMmO.."
									}
,
									"fileref" : 									{
										"name" : "Quack4",
										"filename" : "Quack4.maxsnap",
										"filepath" : "~/Documents/Max 8/Snapshots",
										"filepos" : -1,
										"snapshotfileid" : "36917c904f912df236b79b316d56e424"
									}

								}
 ]
						}

					}
,
					"text" : "vst~ 2 Quack4",
					"varname" : "vst~",
					"viewvisibility" : 0
				}

			}
, 			{
				"box" : 				{
					"angle" : 270.0,
					"border" : 1,
					"bordercolor" : [ 0.151045173406601, 0.151188120245934, 0.151061803102493, 1.0 ],
					"grad1" : [ 0.2, 0.2, 0.2, 0.0 ],
					"grad2" : [ 0.2, 0.2, 0.2, 0.0 ],
					"id" : "obj-2",
					"maxclass" : "panel",
					"mode" : 1,
					"numinlets" : 1,
					"numoutlets" : 0,
					"patching_rect" : [ 1073.0, 9.0, 20.0, 20.0 ],
					"presentation" : 1,
					"presentation_rect" : [ 270.0, 40.0, 150.0, 190.0 ],
					"proportion" : 0.5
				}

			}
, 			{
				"box" : 				{
					"angle" : 270.0,
					"border" : 1,
					"bordercolor" : [ 0.151045173406601, 0.151188120245934, 0.151061803102493, 1.0 ],
					"grad1" : [ 0.2, 0.2, 0.2, 0.0 ],
					"grad2" : [ 0.2, 0.2, 0.2, 0.0 ],
					"id" : "obj-6",
					"maxclass" : "panel",
					"mode" : 1,
					"numinlets" : 1,
					"numoutlets" : 0,
					"patching_rect" : [ 1047.0, 9.0, 20.0, 20.0 ],
					"presentation" : 1,
					"presentation_rect" : [ 10.0, 40.0, 250.0, 190.0 ],
					"proportion" : 0.5
				}

			}
, 			{
				"box" : 				{
					"angle" : 270.0,
					"border" : 1,
					"bordercolor" : [ 0.151045173406601, 0.151188120245934, 0.151061803102493, 1.0 ],
					"grad1" : [ 0.2, 0.2, 0.2, 0.0 ],
					"grad2" : [ 0.2, 0.2, 0.2, 0.0 ],
					"id" : "obj-13",
					"maxclass" : "panel",
					"mode" : 1,
					"numinlets" : 1,
					"numoutlets" : 0,
					"patching_rect" : [ 1145.0, 9.0, 20.0, 20.0 ],
					"presentation" : 1,
					"presentation_rect" : [ 440.0, 90.0, 160.0, 130.0 ],
					"proportion" : 0.5,
					"rounded" : 0
				}

			}
, 			{
				"box" : 				{
					"angle" : 270.0,
					"border" : 1,
					"bordercolor" : [ 0.151045173406601, 0.151188120245934, 0.151061803102493, 1.0 ],
					"grad1" : [ 0.2, 0.2, 0.2, 0.0 ],
					"grad2" : [ 0.2, 0.2, 0.2, 0.0 ],
					"id" : "obj-10",
					"maxclass" : "panel",
					"mode" : 1,
					"numinlets" : 1,
					"numoutlets" : 0,
					"patching_rect" : [ 1097.0, 9.0, 20.0, 20.0 ],
					"presentation" : 1,
					"presentation_rect" : [ 430.0, 40.0, 180.0, 190.0 ],
					"proportion" : 0.5
				}

			}
 ],
		"lines" : [ 			{
				"patchline" : 				{
					"destination" : [ "obj-57", 1 ],
					"source" : [ "obj-1", 1 ]
				}

			}
, 			{
				"patchline" : 				{
					"destination" : [ "obj-57", 0 ],
					"source" : [ "obj-1", 0 ]
				}

			}
, 			{
				"patchline" : 				{
					"destination" : [ "obj-41", 0 ],
					"source" : [ "obj-11", 0 ]
				}

			}
, 			{
				"patchline" : 				{
					"destination" : [ "obj-16", 0 ],
					"order" : 1,
					"source" : [ "obj-12", 0 ]
				}

			}
, 			{
				"patchline" : 				{
					"destination" : [ "obj-27", 0 ],
					"order" : 2,
					"source" : [ "obj-12", 0 ]
				}

			}
, 			{
				"patchline" : 				{
					"destination" : [ "obj-39", 0 ],
					"order" : 0,
					"source" : [ "obj-12", 0 ]
				}

			}
, 			{
				"patchline" : 				{
					"destination" : [ "obj-130", 0 ],
					"order" : 0,
					"source" : [ "obj-129", 0 ]
				}

			}
, 			{
				"patchline" : 				{
					"destination" : [ "obj-14", 0 ],
					"order" : 1,
					"source" : [ "obj-129", 1 ]
				}

			}
, 			{
				"patchline" : 				{
					"destination" : [ "obj-31", 0 ],
					"order" : 1,
					"source" : [ "obj-129", 0 ]
				}

			}
, 			{
				"patchline" : 				{
					"destination" : [ "obj-67", 0 ],
					"order" : 0,
					"source" : [ "obj-129", 1 ]
				}

			}
, 			{
				"patchline" : 				{
					"destination" : [ "obj-15", 0 ],
					"source" : [ "obj-14", 0 ]
				}

			}
, 			{
				"patchline" : 				{
					"destination" : [ "obj-129", 0 ],
					"source" : [ "obj-15", 0 ]
				}

			}
, 			{
				"patchline" : 				{
					"destination" : [ "obj-19", 0 ],
					"source" : [ "obj-16", 1 ]
				}

			}
, 			{
				"patchline" : 				{
					"destination" : [ "obj-7", 0 ],
					"order" : 1,
					"source" : [ "obj-19", 0 ]
				}

			}
, 			{
				"patchline" : 				{
					"destination" : [ "obj-8", 0 ],
					"order" : 0,
					"source" : [ "obj-19", 0 ]
				}

			}
, 			{
				"patchline" : 				{
					"destination" : [ "obj-22", 1 ],
					"source" : [ "obj-21", 0 ]
				}

			}
, 			{
				"patchline" : 				{
					"destination" : [ "obj-25", 1 ],
					"source" : [ "obj-21", 1 ]
				}

			}
, 			{
				"patchline" : 				{
					"destination" : [ "obj-30", 0 ],
					"source" : [ "obj-22", 0 ]
				}

			}
, 			{
				"patchline" : 				{
					"destination" : [ "obj-28", 0 ],
					"source" : [ "obj-23", 0 ]
				}

			}
, 			{
				"patchline" : 				{
					"destination" : [ "obj-30", 1 ],
					"source" : [ "obj-25", 0 ]
				}

			}
, 			{
				"patchline" : 				{
					"destination" : [ "obj-24", 0 ],
					"source" : [ "obj-26", 0 ]
				}

			}
, 			{
				"patchline" : 				{
					"destination" : [ "obj-22", 0 ],
					"midpoints" : [ 92.0, 301.166668593883514, 146.0, 301.166668593883514 ],
					"order" : 1,
					"source" : [ "obj-27", 0 ]
				}

			}
, 			{
				"patchline" : 				{
					"destination" : [ "obj-25", 0 ],
					"midpoints" : [ 92.0, 302.833335280418396, 197.5, 302.833335280418396 ],
					"order" : 0,
					"source" : [ "obj-27", 0 ]
				}

			}
, 			{
				"patchline" : 				{
					"destination" : [ "obj-35", 0 ],
					"order" : 2,
					"source" : [ "obj-27", 0 ]
				}

			}
, 			{
				"patchline" : 				{
					"destination" : [ "obj-21", 0 ],
					"source" : [ "obj-28", 0 ]
				}

			}
, 			{
				"patchline" : 				{
					"destination" : [ "obj-20", 0 ],
					"source" : [ "obj-29", 0 ]
				}

			}
, 			{
				"patchline" : 				{
					"destination" : [ "obj-52", 2 ],
					"source" : [ "obj-3", 0 ]
				}

			}
, 			{
				"patchline" : 				{
					"destination" : [ "obj-1", 1 ],
					"source" : [ "obj-30", 1 ]
				}

			}
, 			{
				"patchline" : 				{
					"destination" : [ "obj-1", 0 ],
					"source" : [ "obj-30", 0 ]
				}

			}
, 			{
				"patchline" : 				{
					"destination" : [ "obj-37", 1 ],
					"source" : [ "obj-33", 0 ]
				}

			}
, 			{
				"patchline" : 				{
					"destination" : [ "obj-38", 1 ],
					"source" : [ "obj-34", 0 ]
				}

			}
, 			{
				"patchline" : 				{
					"destination" : [ "obj-23", 0 ],
					"source" : [ "obj-35", 0 ]
				}

			}
, 			{
				"patchline" : 				{
					"destination" : [ "obj-36", 0 ],
					"source" : [ "obj-35", 1 ]
				}

			}
, 			{
				"patchline" : 				{
					"destination" : [ "obj-28", 0 ],
					"source" : [ "obj-36", 0 ]
				}

			}
, 			{
				"patchline" : 				{
					"destination" : [ "obj-30", 0 ],
					"source" : [ "obj-37", 0 ]
				}

			}
, 			{
				"patchline" : 				{
					"destination" : [ "obj-30", 1 ],
					"source" : [ "obj-38", 0 ]
				}

			}
, 			{
				"patchline" : 				{
					"destination" : [ "obj-37", 0 ],
					"order" : 1,
					"source" : [ "obj-39", 0 ]
				}

			}
, 			{
				"patchline" : 				{
					"destination" : [ "obj-38", 0 ],
					"order" : 0,
					"source" : [ "obj-39", 0 ]
				}

			}
, 			{
				"patchline" : 				{
					"destination" : [ "obj-1", 0 ],
					"source" : [ "obj-41", 0 ]
				}

			}
, 			{
				"patchline" : 				{
					"destination" : [ "obj-50", 2 ],
					"source" : [ "obj-42", 0 ]
				}

			}
, 			{
				"patchline" : 				{
					"destination" : [ "obj-46", 0 ],
					"order" : 1,
					"source" : [ "obj-44", 0 ]
				}

			}
, 			{
				"patchline" : 				{
					"destination" : [ "obj-47", 0 ],
					"order" : 0,
					"source" : [ "obj-44", 0 ]
				}

			}
, 			{
				"patchline" : 				{
					"destination" : [ "obj-31", 0 ],
					"source" : [ "obj-46", 0 ]
				}

			}
, 			{
				"patchline" : 				{
					"destination" : [ "obj-46", 1 ],
					"source" : [ "obj-47", 0 ]
				}

			}
, 			{
				"patchline" : 				{
					"destination" : [ "obj-129", 0 ],
					"source" : [ "obj-50", 0 ]
				}

			}
, 			{
				"patchline" : 				{
					"destination" : [ "obj-53", 0 ],
					"source" : [ "obj-51", 0 ]
				}

			}
, 			{
				"patchline" : 				{
					"destination" : [ "obj-67", 0 ],
					"source" : [ "obj-52", 0 ]
				}

			}
, 			{
				"patchline" : 				{
					"destination" : [ "obj-50", 0 ],
					"order" : 1,
					"source" : [ "obj-53", 0 ]
				}

			}
, 			{
				"patchline" : 				{
					"destination" : [ "obj-52", 0 ],
					"order" : 0,
					"source" : [ "obj-53", 0 ]
				}

			}
, 			{
				"patchline" : 				{
					"destination" : [ "obj-1", 0 ],
					"source" : [ "obj-56", 0 ]
				}

			}
, 			{
				"patchline" : 				{
					"destination" : [ "obj-31", 1 ],
					"order" : 1,
					"source" : [ "obj-67", 0 ]
				}

			}
, 			{
				"patchline" : 				{
					"destination" : [ "obj-68", 0 ],
					"order" : 0,
					"source" : [ "obj-67", 0 ]
				}

			}
, 			{
				"patchline" : 				{
					"destination" : [ "obj-21", 0 ],
					"source" : [ "obj-7", 0 ]
				}

			}
, 			{
				"patchline" : 				{
					"destination" : [ "obj-7", 1 ],
					"source" : [ "obj-8", 0 ]
				}

			}
, 			{
				"patchline" : 				{
					"destination" : [ "obj-52", 1 ],
					"source" : [ "obj-87", 0 ]
				}

			}
, 			{
				"patchline" : 				{
					"destination" : [ "obj-50", 1 ],
					"source" : [ "obj-88", 0 ]
				}

			}
 ],
		"parameters" : 		{
			"obj-1" : [ "vst~", "vst~", 0 ],
			"obj-20::obj-25" : [ "tab[3]", "tab", 0 ],
			"obj-30::obj-67" : [ "gain~[9]", "gain~", 0 ],
			"obj-57::obj-67" : [ "gain~[2]", "gain~", 0 ],
			"obj-67" : [ "gain~[1]", "gain~", 0 ],
			"parameterbanks" : 			{

			}
,
			"inherited_shortname" : 1
		}
,
		"dependency_cache" : [ 			{
				"name" : "Quack4.maxsnap",
				"bootpath" : "~/Documents/Max 8/Snapshots",
				"patcherrelativepath" : "../../../../Max 8/Snapshots",
				"type" : "mx@s",
				"implicit" : 1
			}
, 			{
				"name" : "qxt.Repattrhub.maxpat",
				"bootpath" : "~/Documents/ Projects/Ω Max/QuaxTrip/QuaxTrip/lib",
				"patcherrelativepath" : "./lib",
				"type" : "JSON",
				"implicit" : 1
			}
, 			{
				"name" : "SavedSettings.sat",
				"bootpath" : "~/Documents/ Projects/Ω Max/QuaxTrip/QuaxTrip/lib",
				"patcherrelativepath" : "./lib",
				"type" : "TEXT",
				"implicit" : 1
			}
, 			{
				"name" : "qxt.Repattr.maxpat",
				"bootpath" : "~/Documents/ Projects/Ω Max/QuaxTrip/QuaxTrip/lib",
				"patcherrelativepath" : "./lib",
				"type" : "JSON",
				"implicit" : 1
			}
, 			{
				"name" : "qxt.Channel.maxpat",
				"bootpath" : "~/Documents/ Projects/Ω Max/QuaxTrip/QuaxTrip/lib",
				"patcherrelativepath" : "./lib",
				"type" : "JSON",
				"implicit" : 1
			}
, 			{
				"name" : "qxt.LatencyTester.maxpat",
				"bootpath" : "~/Documents/ Projects/Ω Max/QuaxTrip/QuaxTrip/lib",
				"patcherrelativepath" : "./lib",
				"type" : "JSON",
				"implicit" : 1
			}
 ],
		"autosave" : 0,
		"styles" : [ 			{
				"name" : "Audiomix",
				"default" : 				{
					"bgfillcolor" : 					{
						"type" : "gradient",
						"color1" : [ 0.376471, 0.384314, 0.4, 1.0 ],
						"color2" : [ 0.290196, 0.309804, 0.301961, 1.0 ],
						"color" : [ 0.290196, 0.309804, 0.301961, 1.0 ],
						"angle" : 270.0,
						"proportion" : 0.39
					}

				}
,
				"parentstyle" : "",
				"multi" : 0
			}
, 			{
				"name" : "Jamoma_highlighted_orange",
				"default" : 				{
					"accentcolor" : [ 1.0, 0.5, 0.0, 1.0 ]
				}
,
				"parentstyle" : "",
				"multi" : 0
			}
 ]
	}

}
