#N canvas 1 23 1919 744 12;
#X declare -path lib;
#X obj 15 118 quack-panel 1;
#X obj 100 578 s quack-panel-1;
#X obj 434 704 stdout;
#X obj 349 507 r panel-settings;
#X obj 218 577 s quack-panel-2;
#X obj 46 67 send~ input-left;
#X obj 176 67 send~ input-right;
#X obj 320 118 quack-panel 2;
#X obj 628 117 quack-panel 3;
#X obj 934 118 quack-panel 4;
#X obj 1239 118 quack-panel 5;
#X obj 335 578 s quack-panel-3;
#X obj 453 577 s quack-panel-4;
#X obj 574 578 s quack-panel-5;
#X obj 106 614 r from-quackpanel-1;
#X obj 252 613 r from-quackpanel-2;
#X obj 106 651 list prepend 1;
#X obj 252 649 list prepend 2;
#X obj 398 613 r from-quackpanel-3;
#X obj 544 612 r from-quackpanel-4;
#X obj 694 611 r from-quackpanel-5;
#X obj 840 610 r from-quackpanel-6;
#X obj 398 650 list prepend 3;
#X obj 544 648 list prepend 4;
#X obj 694 648 list prepend 5;
#X obj 840 646 list prepend 6;
#X obj 1153 618 declare -path lib;
#X obj 1547 117 quack-panel 6;
#X obj 1858 117 quack-panel 7;
#X obj 911 464 dac~ 1 2 3 4 5 6 7 8 9 10 11 12 13 14;
#X obj 349 535 route 1 2 3 4 5 6 7;
#X obj 691 579 s quack-panel-6;
#X obj 810 579 s quack-panel-7;
#X obj 985 609 r from-quackpanel-7;
#X obj 985 645 list prepend 7;
#X obj 1405 533 vu 8 80 vu1 empty -1 -8 0 10 -66577 -1 0 0;
#X obj 46 22 adc~ 1 2;
#X obj 1629 491 abs~;
#X obj 1629 516 slop~ 0 0 0.3 0 1e+09;
#X obj 1626 554 snapshot~;
#X obj 1626 579 rmstodb;
#X obj 1626 604 moses 1;
#X msg 1627 639 -100;
#X obj 1674 634 - 88;
#X obj 1625 675 s vu1;
#X obj 1572 490 *~ 50;
#X obj 1766 594 metro 100;
#X obj 1767 566 loadbang;
#X obj 1739 556 bng 15 250 50 0 empty empty empty 17 7 0 10 -262144
-1 -1;
#X connect 0 0 29 0;
#X connect 0 1 29 1;
#X connect 3 0 30 0;
#X connect 7 0 29 2;
#X connect 7 1 29 3;
#X connect 8 0 29 4;
#X connect 8 1 29 5;
#X connect 9 0 29 6;
#X connect 9 1 29 7;
#X connect 10 0 29 8;
#X connect 10 1 29 9;
#X connect 14 0 16 0;
#X connect 15 0 17 0;
#X connect 16 0 2 0;
#X connect 17 0 2 0;
#X connect 18 0 22 0;
#X connect 19 0 23 0;
#X connect 20 0 24 0;
#X connect 21 0 25 0;
#X connect 22 0 2 0;
#X connect 23 0 2 0;
#X connect 24 0 2 0;
#X connect 25 0 2 0;
#X connect 27 0 29 10;
#X connect 27 1 29 11;
#X connect 28 0 29 12;
#X connect 28 1 29 13;
#X connect 30 0 1 0;
#X connect 30 1 4 0;
#X connect 30 2 11 0;
#X connect 30 3 12 0;
#X connect 30 4 13 0;
#X connect 30 5 31 0;
#X connect 30 6 32 0;
#X connect 33 0 34 0;
#X connect 34 0 2 0;
#X connect 36 0 5 0;
#X connect 36 0 45 0;
#X connect 36 1 6 0;
#X connect 37 0 38 0;
#X connect 38 0 39 0;
#X connect 39 0 40 0;
#X connect 40 0 41 0;
#X connect 41 0 42 0;
#X connect 41 1 43 0;
#X connect 42 0 44 0;
#X connect 43 0 44 0;
#X connect 45 0 37 0;
#X connect 46 0 39 0;
#X connect 47 0 46 0;
#X connect 48 0 46 0;
