#N canvas 1 23 1919 744 12;
#X declare -path lib;
#X obj 15 118 quack-panel 1;
#X obj 100 578 s quack-panel-1;
#X obj 434 704 stdout;
#X obj 349 507 r panel-settings;
#X obj 218 577 s quack-panel-2;
#X obj 46 22 adc~;
#X obj 46 67 send~ input-left;
#X obj 176 67 send~ input-right;
#X obj 320 118 quack-panel 2;
#X obj 628 117 quack-panel 3;
#X obj 934 118 quack-panel 4;
#X obj 1239 118 quack-panel 5;
#X obj 335 578 s quack-panel-3;
#X obj 453 577 s quack-panel-4;
#X obj 574 578 s quack-panel-5;
#X obj 106 614 r from-quackpanel-1;
#X obj 252 613 r from-quackpanel-2;
#X obj 106 651 list prepend 1;
#X obj 252 649 list prepend 2;
#X obj 398 613 r from-quackpanel-3;
#X obj 544 612 r from-quackpanel-4;
#X obj 694 611 r from-quackpanel-5;
#X obj 840 610 r from-quackpanel-6;
#X obj 398 650 list prepend 3;
#X obj 544 648 list prepend 4;
#X obj 694 648 list prepend 5;
#X obj 840 646 list prepend 6;
#X obj 1153 618 declare -path lib;
#X obj 1547 117 quack-panel 6;
#X obj 1858 117 quack-panel 7;
#X obj 911 464 dac~ 1 2 3 4 5 6 7 8 9 10 11 12 13 14;
#X obj 349 535 route 1 2 3 4 5 6 7;
#X obj 691 579 s quack-panel-6;
#X obj 810 579 s quack-panel-7;
#X obj 985 609 r from-quackpanel-7;
#X obj 985 645 list prepend 7;
#X connect 0 0 30 0;
#X connect 0 1 30 1;
#X connect 3 0 31 0;
#X connect 5 0 6 0;
#X connect 5 1 7 0;
#X connect 8 0 30 2;
#X connect 8 1 30 3;
#X connect 9 0 30 4;
#X connect 9 1 30 5;
#X connect 10 0 30 6;
#X connect 10 1 30 7;
#X connect 11 0 30 8;
#X connect 11 1 30 9;
#X connect 15 0 17 0;
#X connect 16 0 18 0;
#X connect 17 0 2 0;
#X connect 18 0 2 0;
#X connect 19 0 23 0;
#X connect 20 0 24 0;
#X connect 21 0 25 0;
#X connect 22 0 26 0;
#X connect 23 0 2 0;
#X connect 24 0 2 0;
#X connect 25 0 2 0;
#X connect 26 0 2 0;
#X connect 28 0 30 10;
#X connect 28 1 30 11;
#X connect 29 0 30 12;
#X connect 29 1 30 13;
#X connect 31 0 1 0;
#X connect 31 1 4 0;
#X connect 31 2 12 0;
#X connect 31 3 13 0;
#X connect 31 4 14 0;
#X connect 31 5 32 0;
#X connect 31 6 33 0;
#X connect 34 0 35 0;
#X connect 35 0 2 0;
