#N canvas 441 109 1122 927 12;
#X declare -path quacktrip/lib;
#X obj 303 422 bng 15 250 50 0 empty empty empty 17 7 0 10 -262144
-1 -1;
#X obj 213 437 stdout;
#X obj 174 559 declare -path quacktrip/lib;
#X obj 409 53 r quack-panel-\$1;
#X msg 672 58 server 192.168.0.115 23;
#X msg 549 58 call-name foofy;
#X obj 409 88 route call-name server;
#X obj 408 118 symbol;
#X msg 408 193 start callname1-messages-0;
#X msg 407 144 set start \$1-messages-\$0;
#X obj 227 78 sel 0 1;
#X msg 228 105 stop;
#X obj 538 276 print;
#X obj 599 120 symbol;
#X msg 600 196 server \$1;
#X obj 363 94 bng 15 250 50 0 empty empty empty 17 7 0 10 -262144 -1
-1;
#X obj 588 98 bng 15 250 50 0 empty empty empty 17 7 0 10 -262144 -1
-1;
#X obj 369 64 bng 15 250 50 0 empty empty empty 17 7 0 10 -262144 -1
-1;
#X obj 180 192 r \$1-message;
#X obj 180 222 symbol;
#X obj 214 388 list prepend conniption-message \$1;
#X obj 227 46 r \$1-messages-toggle;
#X obj 179 291 conniption-client -u 192.168.0.115 3840;
#X obj 41 125 tgl 15 0 empty empty empty 17 7 0 10 -262144 -1 -1 0
1;
#X obj 41 170 f;
#X obj 41 195 + 1;
#X obj 41 220 mod 100;
#X obj 112 224 bng 15 250 50 0 empty empty empty 17 7 0 10 -262144
-1 -1;
#X obj 41 145 metro 1000;
#X msg 33 259 send keepalive \$1;
#X obj 91 391 print;
#X obj 160 343 route keepalive;
#X floatatom 143 394 5 0 0 0 - - -;
#X obj 90 317 bng 15 250 50 0 empty empty empty 17 7 0 10 -262144 -1
-1;
#X msg 178 257 send \$1;
#X connect 3 0 6 0;
#X connect 3 0 17 0;
#X connect 4 0 6 0;
#X connect 5 0 6 0;
#X connect 6 0 7 0;
#X connect 6 0 15 0;
#X connect 6 1 13 0;
#X connect 6 1 16 0;
#X connect 7 0 9 0;
#X connect 8 0 12 0;
#X connect 8 0 22 1;
#X connect 9 0 8 0;
#X connect 10 0 11 0;
#X connect 10 1 8 0;
#X connect 11 0 22 1;
#X connect 13 0 14 0;
#X connect 14 0 22 1;
#X connect 14 0 12 0;
#X connect 18 0 12 0;
#X connect 18 0 19 0;
#X connect 19 0 29 0;
#X connect 19 0 34 0;
#X connect 20 0 0 0;
#X connect 20 0 1 0;
#X connect 21 0 10 0;
#X connect 21 0 23 0;
#X connect 22 0 31 0;
#X connect 22 0 33 0;
#X connect 23 0 28 0;
#X connect 24 0 25 0;
#X connect 25 0 26 0;
#X connect 26 0 27 0;
#X connect 26 0 24 1;
#X connect 26 0 29 0;
#X connect 28 0 24 0;
#X connect 29 0 22 0;
#X connect 31 0 32 0;
#X connect 31 1 20 0;
#X connect 34 0 22 0;
#X coords 0 -1 1 1 500 500 1 0 0;
