#N canvas 546 269 680 341 12;
#X declare -path quacktrip/lib;
#X obj 284 308 bng 15 250 50 0 empty empty empty 17 7 0 10 -262144
-1 -1;
#X obj 231 305 stdout;
#X obj 399 15 r quack-panel-\$1;
#X obj 399 50 route call-name server;
#X obj 398 80 symbol;
#X msg 398 155 start callname1-messages-0;
#X msg 397 106 set start \$1-messages-\$0;
#X obj 245 48 sel 0 1;
#X msg 245 83 stop;
#X obj 589 82 symbol;
#X msg 590 158 server \$1;
#X obj 131 136 r \$1-message;
#X obj 231 269 list prepend conniption-message \$1;
#X obj 131 198 conniption-client -u 192.168.0.115 3840;
#X obj 14 45 tgl 15 0 empty empty empty 17 7 0 10 -262144 -1 -1 1 1
;
#X obj 129 229 route keepalive;
#X obj 129 257 bng 15 250 50 0 empty empty empty 17 7 0 10 -262144
-1 -1;
#X obj 12 135 metro 1500;
#X msg 12 167 send keepalive;
#X obj 205 259 bng 15 250 50 0 quax-chat empty empty 17 7 0 10 -262144
-1 -1;
#X obj 450 299 declare -path quacktrip/lib;
#X obj 66 104 + 1400;
#X obj 65 50 loadbang;
#X obj 65 76 random 100;
#X obj 245 15 r \$1-messages-toggle;
#X obj 131 164 list;
#X connect 2 0 3 0;
#X connect 3 0 4 0;
#X connect 3 1 9 0;
#X connect 4 0 6 0;
#X connect 5 0 13 1;
#X connect 6 0 5 0;
#X connect 7 0 8 0;
#X connect 7 1 5 0;
#X connect 8 0 13 1;
#X connect 9 0 10 0;
#X connect 10 0 13 1;
#X connect 11 0 25 0;
#X connect 12 0 1 0;
#X connect 12 0 0 0;
#X connect 13 0 15 0;
#X connect 14 0 17 0;
#X connect 15 0 16 0;
#X connect 15 1 12 0;
#X connect 15 1 19 0;
#X connect 17 0 18 0;
#X connect 18 0 13 0;
#X connect 21 0 17 1;
#X connect 22 0 23 0;
#X connect 23 0 21 0;
#X connect 24 0 7 0;
#X connect 24 0 14 0;
#X connect 25 0 13 0;
