#N canvas 91 229 1413 694 12;
#X obj 22 256 metro 1000;
#X obj 23 232 tgl 15 0 empty empty empty 17 7 0 10 -262144 -1 -1 0
1;
#X obj 160 417 netsend -u;
#X obj 79 470 bng 15 250 50 0 empty empty empty 17 7 0 10 -262144 -1
-1;
#X msg 196 298 disconnect;
#X obj 666 253 bng 15 250 50 0 empty empty empty 17 7 0 10 -262144
-1 -1;
#X obj 150 525 list;
#X msg 182 629 192.168.1.84 61926 59320;
#X obj 182 578 list prepend set;
#X obj 182 603 list trim;
#X obj 168 494 bng 15 250 50 0 empty empty empty 17 7 0 10 -262144
-1 -1;
#X obj 1007 338 symbol;
#X msg 1028 286 foo.ucsd.edu;
#X msg 1037 312 192.168.1.92;
#X obj 106 462 route peer-addr;
#X obj 226 466 bng 15 250 50 0 empty empty empty 17 7 0 10 -262144
-1 -1;
#X obj 1010 230 loadbang;
#X obj 533 48 inlet;
#X obj 884 19 inlet;
#X obj 202 16 r \$0-state;
#X floatatom 222 43 5 0 0 0 - - -;
#X text 291 13 states:;
#X text 310 41 0 off;
#X text 311 61 1 calling server;
#X msg 195 262 connect \$2 \$3;
#X obj 463 416 sel 0;
#X obj 525 469 v \$0-state;
#X obj 525 494 sel 2;
#X obj 525 524 del 500;
#X obj 524 550 v \$0-state;
#X obj 524 576 sel 2;
#X obj 554 82 r \$0-try-connect;
#X obj 35 80 s \$0-try-connect;
#X obj 524 601 s \$0-try-connect;
#X obj 531 425 outlet;
#X obj 1031 596 outlet;
#X text 310 84 2 calling peer;
#X obj 812 107 s \$0-state;
#X obj 150 550 t b l;
#X msg 79 595 2;
#X obj 79 620 s \$0-state;
#X msg 655 576 1;
#X obj 655 602 s \$0-state;
#X msg 687 484 stop;
#X obj 202 70 t f f;
#X obj 217 99 s \$0-state1;
#X obj 202 125 s \$0-state2;
#X obj 37 53 sel 2;
#X obj 655 547 spigot;
#X obj 724 551 tgl 15 0 empty empty empty 17 7 0 10 -262144 -1 -1 1
1;
#X obj 77 142 r \$0-state1;
#X obj 77 167 sel 1;
#X obj 22 139 sel 1;
#X obj 23 114 r \$0-state2;
#X msg 56 206 0;
#X msg 23 206 1;
#X obj 22 164 t b b;
#X obj 229 184 r \$0-server;
#X obj 1006 366 s \$0-server;
#X obj 535 251 f;
#X obj 38 28 r \$0-state2;
#X obj 710 70 bng 15 250 50 0 empty empty empty 17 7 0 10 -262144 -1
-1;
#X msg 422 488 running 1;
#X obj 581 188 pack 0 s 0 0;
#X obj 597 161 unpack s 0 0;
#X obj 723 525 loadbang;
#X obj 22 283 symbol;
#X text 926 19 start <call-name> or stop;
#X obj 896 100 symbol;
#X obj 896 125 s \$0-call-name;
#X msg 838 74 1;
#X msg 804 74 0;
#X obj 78 281 r \$0-call-name;
#X obj 566 251 netsend -u \$1;
#X obj 1011 258 symbol \$2;
#X obj 623 433 b;
#X msg 34 307 request-call \$1;
#X obj 619 109 s \$0-disconnect-both;
#X obj 555 110 t b b b;
#X msg 710 215 disconnect;
#X obj 202 551 s \$0-connection-list;
#X obj 597 136 r \$0-connection-list;
#X msg 581 213 connect \$2 \$3 \$4;
#X obj 710 190 r \$0-disconnect-both;
#X obj 655 522 del 2000;
#X obj 672 309 list trim;
#X obj 672 334 route peer-addr;
#X msg 672 361 0;
#X obj 603 384 spigot;
#X obj 642 360 1;
#X obj 538 391 bng 15 250 50 0 empty empty empty 17 7 0 10 -262144
-1 -1;
#X obj 320 112 sel 2;
#X obj 363 113 s \$0-disconnect-both;
#X obj 1059 568 r \$0-msg-outlet;
#X obj 357 561 s \$0-msg-outlet;
#X msg 353 139 running 0;
#X obj 34 333 s \$0-msg-outlet;
#X msg 357 515 peer-connect-failed \, running 0, f 20;
#X text 506 8 messages to send to peer, f 12;
#X obj 787 291 route 112;
#X obj 787 315 route 101;
#X obj 787 340 route 101;
#X obj 787 365 route 114;
#X obj 651 279 t a a b;
#X obj 885 44 route stop start server port;
#X obj 1057 100 s \$0-server;
#X obj 995 397 r \$0-server;
#X symbolatom 995 422 20 0 0 0 - - -;
#X obj 1110 76 s \$0-serverport;
#X obj 1143 398 r \$0-serverport;
#X obj 195 237 pack 0 s 0;
#X obj 242 209 r \$0-serverport;
#X obj 1136 267 f \$3;
#X obj 1136 292 sel 0;
#X obj 1136 317 3840;
#X obj 1136 347 s \$0-serverport;
#X floatatom 1143 423 5 0 0 0 - - -;
#X obj 1058 76 symbol;
#N canvas 526 220 575 421 server-keep-active 0;
#X obj 206 26 r \$0-state1;
#X obj 207 63 sel 2;
#X msg 259 69 stop;
#X obj 212 257 r \$0-server;
#X obj 206 105 del 2000;
#X msg 299 255 \$3;
#X obj 237 171 s \$0-try-connect;
#X obj 222 343 spigot;
#X obj 222 368 print zzz;
#X obj 282 343 tgl 15 0 empty empty empty 17 7 0 10 -262144 -1 -1 0
1;
#X obj 222 288 pack 0 s \$3 0 s;
#X obj 206 137 t b b b;
#X obj 54 347 netsend -u;
#X obj 266 137 s \$0-disconnect-both;
#X msg 220 313 connect \$2 \$3 \$4 \, send call \$5, f 32;
#X msg 54 307 disconnect;
#X obj 299 225 r \$0-connection-list;
#X obj 54 282 r \$0-disconnect-both;
#X obj 274 203 r \$0-serverport;
#X obj 350 260 r \$0-call-name;
#X connect 1 0 4 0;
#X connect 1 1 2 0;
#X connect 2 0 4 0;
#X connect 3 0 10 1;
#X connect 4 0 11 0;
#X connect 5 0 10 3;
#X connect 7 0 8 0;
#X connect 9 0 7 1;
#X connect 10 0 14 0;
#X connect 11 0 6 0;
#X connect 11 1 4 0;
#X connect 11 1 10 0;
#X connect 11 2 13 0;
#X connect 14 0 7 0;
#X connect 14 0 12 0;
#X connect 15 0 12 0;
#X connect 16 0 5 0;
#X connect 17 0 15 0;
#X connect 18 0 10 2;
#X connect 19 0 10 4;
#X restore 961 183 pd server-keep-active;
#X obj 107 488 route -;
#X msg 23 519 no-peer-yet;
#X obj 23 546 s \$0-msg-outlet;
#X obj 21 467 bng 15 250 50 0 empty empty empty 17 7 0 10 -262144 -1
-1;
#X obj 655 459 sel 2;
#X text 953 160 this is disabled and should go away;
#X text 859 264 filter out "peer" messages that could mistakenly arrive
here. Should never happen now that keepalive msgs are gone, f 16;
#X text 738 597 if no packets for 2 sec \, try to make a new call,
f 17;
#X text 510 624 If disconnected wait 1/2 sec and try to reconnect,
f 18;
#X obj 353 164 s \$0-msg-outlet;
#X obj 655 434 r \$0-state1;
#X obj 871 74 t b a b;
#N canvas 0 50 420 422 make-id 0;
#X obj 81 91 realtime;
#X obj 99 56 bng 15 250 50 0 empty empty empty 17 7 0 10 -262144 -1
-1;
#X obj 82 126 t f f;
#X obj 79 160 * 0.01234;
#X obj 182 160 * 527.294;
#X obj 79 185 mod 1e+06;
#X obj 182 190 mod 1e+06;
#X obj 79 210 +;
#X obj 105 29 inlet;
#X obj 75 239 mod 1e+06;
#X obj 75 264 s \$0-call-id;
#X connect 0 0 2 0;
#X connect 1 0 0 1;
#X connect 2 0 3 0;
#X connect 2 1 4 0;
#X connect 3 0 5 0;
#X connect 4 0 6 0;
#X connect 5 0 7 0;
#X connect 6 0 7 1;
#X connect 7 0 9 0;
#X connect 8 0 1 0;
#X connect 9 0 10 0;
#X restore 929 74 pd make-id;
#X msg 22 387 send call \$1 \$2;
#X obj 21 361 pack s 0;
#X obj 88 361 r \$0-call-id;
#X connect 0 0 66 0;
#X connect 1 0 0 0;
#X connect 2 1 14 0;
#X connect 4 0 2 0;
#X connect 6 0 38 0;
#X connect 8 0 9 0;
#X connect 9 0 7 0;
#X connect 10 0 6 0;
#X connect 11 0 58 0;
#X connect 12 0 11 0;
#X connect 13 0 11 0;
#X connect 14 0 3 0;
#X connect 14 0 119 0;
#X connect 14 1 15 0;
#X connect 16 0 74 0;
#X connect 16 0 112 0;
#X connect 17 0 73 0;
#X connect 18 0 104 0;
#X connect 19 0 20 0;
#X connect 19 0 44 0;
#X connect 24 0 2 0;
#X connect 25 0 26 0;
#X connect 25 0 97 0;
#X connect 25 1 62 0;
#X connect 26 0 27 0;
#X connect 27 0 28 0;
#X connect 28 0 29 0;
#X connect 29 0 30 0;
#X connect 30 0 33 0;
#X connect 31 0 78 0;
#X connect 38 0 39 0;
#X connect 38 1 8 0;
#X connect 38 1 80 0;
#X connect 39 0 40 0;
#X connect 41 0 42 0;
#X connect 43 0 28 0;
#X connect 43 0 84 0;
#X connect 44 0 46 0;
#X connect 44 1 45 0;
#X connect 44 1 91 0;
#X connect 47 0 32 0;
#X connect 48 0 41 0;
#X connect 49 0 48 1;
#X connect 50 0 51 0;
#X connect 51 1 4 0;
#X connect 51 1 54 0;
#X connect 52 0 56 0;
#X connect 53 0 52 0;
#X connect 54 0 1 0;
#X connect 55 0 1 0;
#X connect 56 0 55 0;
#X connect 56 1 110 0;
#X connect 57 0 110 1;
#X connect 59 0 25 0;
#X connect 60 0 47 0;
#X connect 62 0 94 0;
#X connect 63 0 82 0;
#X connect 64 0 63 1;
#X connect 64 1 63 2;
#X connect 64 2 63 3;
#X connect 65 0 49 0;
#X connect 66 0 76 0;
#X connect 66 0 133 0;
#X connect 68 0 69 0;
#X connect 70 0 37 0;
#X connect 71 0 37 0;
#X connect 72 0 66 1;
#X connect 73 0 59 1;
#X connect 73 1 5 0;
#X connect 73 1 103 0;
#X connect 74 0 11 0;
#X connect 75 0 84 0;
#X connect 76 0 96 0;
#X connect 78 0 59 0;
#X connect 78 1 61 0;
#X connect 78 1 63 0;
#X connect 78 2 77 0;
#X connect 79 0 73 0;
#X connect 81 0 64 0;
#X connect 82 0 73 0;
#X connect 83 0 79 0;
#X connect 84 0 48 0;
#X connect 85 0 86 0;
#X connect 86 0 87 0;
#X connect 87 0 88 1;
#X connect 88 0 90 0;
#X connect 88 0 34 0;
#X connect 88 0 75 0;
#X connect 89 0 88 1;
#X connect 91 1 92 0;
#X connect 91 1 95 0;
#X connect 93 0 35 0;
#X connect 95 0 128 0;
#X connect 97 0 94 0;
#X connect 99 0 100 0;
#X connect 100 0 101 0;
#X connect 101 0 102 0;
#X connect 102 0 87 0;
#X connect 103 0 88 0;
#X connect 103 1 85 0;
#X connect 103 1 99 0;
#X connect 103 2 89 0;
#X connect 104 0 71 0;
#X connect 104 1 130 0;
#X connect 104 2 117 0;
#X connect 104 3 108 0;
#X connect 106 0 107 0;
#X connect 109 0 116 0;
#X connect 110 0 24 0;
#X connect 111 0 110 2;
#X connect 112 0 113 0;
#X connect 113 0 114 0;
#X connect 113 1 115 0;
#X connect 114 0 115 0;
#X connect 117 0 105 0;
#X connect 119 0 120 0;
#X connect 119 0 122 0;
#X connect 119 1 6 0;
#X connect 120 0 121 0;
#X connect 123 0 84 0;
#X connect 123 1 43 0;
#X connect 129 0 123 0;
#X connect 130 0 70 0;
#X connect 130 1 68 0;
#X connect 130 2 131 0;
#X connect 132 0 2 0;
#X connect 133 0 132 0;
#X connect 134 0 133 1;
