#N canvas 865 150 802 760 12;
#X obj 618 499 t b;
#X obj 618 446 f;
#X obj 618 524 f;
#X msg 732 523 0;
#X obj 618 476 moses 1;
#X obj 732 495 t b f;
#X obj 698 456 moses 1;
#X obj 27 172 inlet~;
#X msg 546 283 \; pd dsp 1;
#X obj 208 305 line~;
#X obj 158 350 *~;
#X floatatom 34 46 3 0 100 0 - #0-lvl-set #0-lvl;
#X obj 34 67 bng 15 250 50 0 \$0-mute \$0-mute-set empty 0 0 0 12 -262144
-1 -1;
#X obj 27 194 hip~ 3;
#X obj 35 92 hsl 20 12 1 9 0 0 \$0-pan \$0-pan-set empty 0 0 0 10 -262144
-1 -1 950 1;
#X obj 39 106 bng 12 250 50 0 \$0-ctr-pan \$0-ctr-pan-set empty 0 0
0 12 -262144 -1 -1;
#X obj 110 36 vu 8 80 \$0-vu1 empty -1 -8 0 10 -66577 -1 0 0;
#X obj 550 147 r \$0-lvl;
#X obj 549 174 f;
#X obj 209 31 r \$0-pan;
#X obj 208 265 pack 0 30, f 5;
#X text 53 64 mute;
#X obj 562 63 r \$0-ctr-pan;
#X obj 209 56 f;
#X obj 209 81 - 5;
#X obj 209 106 * 0.25;
#X obj 697 427 r \$0-lvl;
#X obj 618 550 s \$0-lvl;
#X obj 618 419 r \$0-mute;
#X obj 562 112 s \$0-pan;
#X obj 549 199 max 0;
#X obj 209 157 expr 1.5*$f1-0.5*($f1*$f1*$f1);
#X obj 209 131 clip -1 1;
#X obj 390 193 expr 0.5*($f1+1);
#X obj 208 210 expr 0.5*(1-$f1);
#X obj 600 86 loadbang;
#X obj 266 330 line~;
#X obj 204 349 *~;
#X obj 266 290 pack 0 30, f 5;
#X text 638 387 MUTE logic;
#X obj 328 346 line~;
#X obj 328 306 pack 0 30, f 5;
#X obj 159 379 *~;
#X obj 209 182 t f f;
#X obj 67 513 abs~;
#X obj 67 538 slop~ 0 0 0.3 0 1e+09;
#X obj 391 543 metro 100;
#X obj 69 586 snapshot~;
#X obj 69 611 rmstodb;
#X obj 69 636 moses 1;
#X msg 70 671 -100;
#X obj 117 666 - 88;
#X msg 562 88 5;
#X obj 79 170 inlet~;
#X obj 79 192 hip~ 3;
#X obj 204 381 *~;
#X obj 125 36 vu 8 80 \$0-vu2 empty -1 -8 0 10 -66577 -1 0 0;
#X obj 392 515 loadbang;
#X obj 225 510 abs~;
#X obj 225 535 slop~ 0 0 0.3 0 1e+09;
#X obj 226 584 snapshot~;
#X obj 226 609 rmstodb;
#X obj 226 634 moses 1;
#X msg 227 669 -100;
#X obj 274 664 - 88;
#X obj 68 707 s \$0-vu1;
#X obj 225 705 s \$0-vu2;
#X obj 547 227 expr pow($f1*0.02 \, 4);
#X text 60 46 level;
#X floatatom 106 120 2 1 99 0 - #0-ch1-set #0-ch1;
#X floatatom 122 120 2 1 99 0 - #0-ch2-set #0-ch2;
#X text 31 120 mono;
#X obj 64 122 tgl 15 0 \$0-mono \$0-mono-set empty 17 7 0 10 -262144
-1 -1 0 1;
#N canvas 692 456 780 224 setctl 0;
#X obj 25 29 r \$0-lvl;
#X msg 25 54 set \$1;
#X obj 25 79 s \$0-lvl-set;
#X msg 121 53 set \$1;
#X obj 121 28 r \$0-pan;
#X obj 121 78 s \$0-pan-set;
#X msg 223 54 set \$1;
#X obj 223 29 r \$0-mono;
#X obj 223 79 s \$0-mono-set;
#X msg 327 59 set \$1;
#X obj 327 34 r \$0-ch1;
#X obj 327 108 s \$0-ch1-set;
#X msg 421 60 set \$1;
#X obj 421 35 r \$0-ch2;
#X obj 421 109 s \$0-ch2-set;
#X obj 492 39 loadbang;
#X msg 492 64 1;
#X msg 526 66 2;
#X connect 0 0 1 0;
#X connect 1 0 2 0;
#X connect 3 0 5 0;
#X connect 4 0 3 0;
#X connect 6 0 8 0;
#X connect 7 0 6 0;
#X connect 9 0 11 0;
#X connect 10 0 9 0;
#X connect 12 0 14 0;
#X connect 13 0 12 0;
#X connect 15 0 16 0;
#X connect 15 0 17 0;
#X connect 16 0 11 0;
#X connect 17 0 14 0;
#X restore 460 64 pd setctl;
#X obj 328 444 r \$0-ch1;
#X obj 107 514 dac~ 1;
#X obj 264 510 dac~ 2;
#X msg 328 469 set \$1;
#X msg 391 470 set \$1;
#X obj 391 445 r \$0-ch2;
#X text 87 119 ch;
#X text 56 87 balance;
#X obj 120 238 r \$0-mono;
#X obj 83 243 -~;
#X obj 120 263 * 0.5;
#X obj 83 268 *~ 0;
#X obj 23 302 -~;
#X obj 70 300 +~;
#X floatatom 291 394 5 0 0 0 - - -;
#X floatatom 347 392 5 0 0 0 - - -;
#X obj 209 237 expr $f1 + 0.25*($f1*$f2);
#X obj 265 263 expr $f2 + 0.25*($f1*$f2);
#X connect 0 0 2 0;
#X connect 1 0 4 0;
#X connect 2 0 27 0;
#X connect 3 0 27 0;
#X connect 4 0 0 0;
#X connect 4 1 5 0;
#X connect 5 0 3 0;
#X connect 6 1 2 1;
#X connect 7 0 13 0;
#X connect 9 0 10 1;
#X connect 10 0 42 0;
#X connect 13 0 86 0;
#X connect 13 0 83 0;
#X connect 17 0 18 0;
#X connect 18 0 30 0;
#X connect 19 0 23 0;
#X connect 20 0 9 0;
#X connect 22 0 52 0;
#X connect 23 0 24 0;
#X connect 24 0 25 0;
#X connect 25 0 32 0;
#X connect 26 0 1 1;
#X connect 26 0 6 0;
#X connect 28 0 1 0;
#X connect 30 0 67 0;
#X connect 31 0 43 0;
#X connect 32 0 31 0;
#X connect 32 0 8 0;
#X connect 33 0 90 1;
#X connect 33 0 91 1;
#X connect 34 0 90 0;
#X connect 34 0 91 0;
#X connect 35 0 52 0;
#X connect 36 0 37 1;
#X connect 37 0 55 0;
#X connect 38 0 36 0;
#X connect 40 0 42 1;
#X connect 40 0 55 1;
#X connect 41 0 40 0;
#X connect 42 0 44 0;
#X connect 42 0 75 0;
#X connect 43 0 34 0;
#X connect 43 1 33 0;
#X connect 44 0 45 0;
#X connect 45 0 47 0;
#X connect 46 0 47 0;
#X connect 46 0 60 0;
#X connect 47 0 48 0;
#X connect 48 0 49 0;
#X connect 49 0 50 0;
#X connect 49 1 51 0;
#X connect 50 0 65 0;
#X connect 51 0 65 0;
#X connect 52 0 29 0;
#X connect 53 0 54 0;
#X connect 54 0 87 0;
#X connect 54 0 83 1;
#X connect 55 0 58 0;
#X connect 55 0 76 0;
#X connect 57 0 46 0;
#X connect 58 0 59 0;
#X connect 59 0 60 0;
#X connect 60 0 61 0;
#X connect 61 0 62 0;
#X connect 62 0 63 0;
#X connect 62 1 64 0;
#X connect 63 0 66 0;
#X connect 64 0 66 0;
#X connect 67 0 41 0;
#X connect 67 0 8 0;
#X connect 74 0 77 0;
#X connect 77 0 75 0;
#X connect 78 0 76 0;
#X connect 79 0 78 0;
#X connect 82 0 84 0;
#X connect 83 0 85 0;
#X connect 84 0 85 1;
#X connect 85 0 87 1;
#X connect 85 0 86 1;
#X connect 86 0 10 0;
#X connect 87 0 37 0;
#X connect 90 0 20 0;
#X connect 90 0 88 0;
#X connect 91 0 38 0;
#X connect 91 0 89 0;
#X coords 0 0 1 1 110 110 1 30 30;
