#N canvas 661 209 918 702 12;
#X obj 530 334 t b;
#X obj 530 281 f;
#X obj 530 359 f;
#X msg 644 358 0;
#X obj 530 311 moses 1;
#X obj 644 330 t b f;
#X obj 610 291 moses 1;
#X msg 400 241 \; pd dsp 1;
#X floatatom 33 48 3 0 100 0 - #0-lvl-set #0-lvl;
#X obj 33 69 bng 15 250 50 0 \$0-mute \$0-mute-set empty 0 0 0 12 -262144
-1 -1;
#X obj 15 164 hip~ 3;
#X obj 495 15 r \$0-lvl;
#X msg 495 40 set \$1;
#X obj 495 65 s \$0-lvl-set;
#X obj 107 33 vu 8 80 \$0-vu1 empty -1 -8 0 10 -66577 -1 0 0;
#X obj 337 124 r \$0-lvl;
#X obj 337 156 f;
#X text 52 66 mute;
#X obj 609 262 r \$0-lvl;
#X obj 530 385 s \$0-lvl;
#X obj 530 254 r \$0-mute;
#X obj 337 181 max 0;
#X text 550 222 MUTE logic;
#X obj 329 285 line~;
#X obj 329 245 pack 0 30, f 5;
#X obj 14 322 *~;
#X obj 205 441 abs~;
#X obj 205 466 slop~ 0 0 0.3 0 1e+09;
#X obj 583 458 metro 100;
#X obj 202 504 snapshot~;
#X obj 202 529 rmstodb;
#X obj 202 554 moses 1;
#X msg 203 589 -100;
#X obj 250 584 - 88;
#X obj 119 325 *~;
#X obj 119 33 vu 8 80 \$0-vu2 empty -1 -8 0 10 -66577 -1 0 0;
#X obj 584 430 loadbang;
#X obj 370 439 abs~;
#X obj 370 464 slop~ 0 0 0.3 0 1e+09;
#X obj 367 502 snapshot~;
#X obj 367 527 rmstodb;
#X obj 367 552 moses 1;
#X msg 368 587 -100;
#X obj 415 582 - 88;
#X obj 201 625 s \$0-vu1;
#X obj 366 623 s \$0-vu2;
#X obj 309 209 expr pow($f1*0.02 \, 4);
#X obj 50 451 outlet~;
#X obj 114 453 outlet~;
#X obj 59 192 osc~ 660;
#X obj 41 246 -~;
#X obj 34 98 tgl 15 0 \$0-test empty empty 17 7 0 10 -262144 -1 -1
0 1;
#X obj 41 290 *~ 0;
#X obj 15 140 adc~ 1;
#X obj 118 159 hip~ 3;
#X obj 144 241 -~;
#X obj 144 285 *~ 0;
#X text 50 96 test;
#X obj 204 253 r \$0-test;
#X obj 118 135 adc~ 2;
#X obj 59 217 *~ 0.03;
#X obj 173 214 *~ 0.03;
#X obj 172 189 osc~ 880;
#X text 59 48 level;
#X connect 0 0 2 0;
#X connect 1 0 4 0;
#X connect 2 0 19 0;
#X connect 3 0 19 0;
#X connect 4 0 0 0;
#X connect 4 1 5 0;
#X connect 5 0 3 0;
#X connect 6 1 2 1;
#X connect 10 0 25 0;
#X connect 10 0 50 1;
#X connect 11 0 12 0;
#X connect 12 0 13 0;
#X connect 15 0 16 0;
#X connect 16 0 21 0;
#X connect 18 0 1 1;
#X connect 18 0 6 0;
#X connect 20 0 1 0;
#X connect 21 0 46 0;
#X connect 23 0 25 1;
#X connect 23 0 34 1;
#X connect 24 0 23 0;
#X connect 25 0 47 0;
#X connect 25 0 26 0;
#X connect 26 0 27 0;
#X connect 27 0 29 0;
#X connect 28 0 29 0;
#X connect 28 0 39 0;
#X connect 29 0 30 0;
#X connect 30 0 31 0;
#X connect 31 0 32 0;
#X connect 31 1 33 0;
#X connect 32 0 44 0;
#X connect 33 0 44 0;
#X connect 34 0 48 0;
#X connect 34 0 37 0;
#X connect 36 0 28 0;
#X connect 37 0 38 0;
#X connect 38 0 39 0;
#X connect 39 0 40 0;
#X connect 40 0 41 0;
#X connect 41 0 42 0;
#X connect 41 1 43 0;
#X connect 42 0 45 0;
#X connect 43 0 45 0;
#X connect 46 0 24 0;
#X connect 46 0 7 0;
#X connect 49 0 60 0;
#X connect 50 0 52 0;
#X connect 52 0 25 0;
#X connect 53 0 10 0;
#X connect 54 0 55 1;
#X connect 54 0 34 0;
#X connect 55 0 56 0;
#X connect 56 0 34 0;
#X connect 58 0 56 1;
#X connect 58 0 52 1;
#X connect 59 0 54 0;
#X connect 60 0 50 0;
#X connect 61 0 55 0;
#X connect 62 0 61 0;
#X coords 0 0 1 1 100 85 1 30 30;
