#N canvas 715 209 918 702 12;
#X obj 712 563 t b;
#X obj 712 510 f;
#X obj 712 588 f;
#X msg 826 587 0;
#X obj 712 540 moses 1;
#X obj 826 559 t b f;
#X obj 792 520 moses 1;
#X msg 400 241 \; pd dsp 1;
#X floatatom 44 52 3 0 100 0 - #0-lvl-set #0-lvl;
#X obj 54 75 bng 15 250 50 0 \$0-mute \$0-mute-set empty 0 0 0 12 -262144
-1 -1;
#X obj 15 164 hip~ 3;
#X obj 495 15 r \$0-lvl;
#X msg 495 40 set \$1;
#X obj 495 65 s \$0-lvl-set;
#X obj 107 33 vu 8 80 \$0-vu1 empty -1 -8 0 10 -66577 -1 0 0;
#X obj 327 120 r \$0-lvl;
#X obj 327 152 f;
#X text 71 71 mute;
#X obj 791 491 r \$0-lvl;
#X obj 712 614 s \$0-lvl;
#X obj 712 483 r \$0-mute;
#X obj 327 177 max 0;
#X text 732 451 MUTE logic;
#X obj 329 285 line~;
#X obj 329 245 pack 0 30, f 5;
#X obj 14 322 *~;
#X obj 239 415 abs~;
#X obj 239 440 slop~ 0 0 0.3 0 1e+09;
#X obj 578 441 metro 100;
#X obj 238 476 snapshot~;
#X obj 238 501 rmstodb;
#X obj 238 526 moses 1;
#X msg 239 561 -100;
#X obj 286 556 - 88;
#X obj 119 325 *~;
#X obj 119 33 vu 8 80 \$0-vu2 empty -1 -8 0 10 -66577 -1 0 0;
#X obj 579 413 loadbang;
#X obj 404 413 abs~;
#X obj 404 438 slop~ 0 0 0.3 0 1e+09;
#X obj 403 476 snapshot~;
#X obj 403 501 rmstodb;
#X obj 403 526 moses 1;
#X msg 404 561 -100;
#X obj 451 556 - 88;
#X obj 237 597 s \$0-vu1;
#X obj 402 597 s \$0-vu2;
#X obj 328 208 expr pow($f1*0.02 \, 4);
#X obj 14 458 outlet~;
#X obj 118 456 outlet~;
#X obj 59 192 osc~ 660;
#X obj 41 246 -~;
#X obj 54 94 tgl 15 0 \$0-test empty empty 17 7 0 10 -262144 -1 -1
0 1;
#X obj 41 290 *~ 0;
#X obj 15 140 adc~ 1;
#X obj 118 162 hip~ 3;
#X obj 144 241 -~;
#X obj 144 285 *~ 0;
#X text 68 92 test;
#X obj 204 253 r \$0-test;
#X obj 118 138 adc~ 2;
#X obj 59 217 *~ 0.03;
#X obj 173 214 *~ 0.03;
#X obj 172 189 osc~ 880;
#X text 67 51 level;
#X obj 31 54 vsl 12 51 0 100 0 0 \$0-lvl \$0-lvl-set empty 0 -9 0 10
-262144 -1 -1 2350 1;
#X text 41 69 -;
#X floatatom 173 59 3 0 100 0 - #0-mon-set #0-mon;
#X obj 197 61 vsl 12 51 0 100 0 0 \$0-mon \$0-mon-set empty 0 -9 0
10 -262144 -1 -1 2450 1;
#X floatatom 172 95 3 0 100 0 - #0-delay-set #0-delay;
#X text 163 29 input;
#X text 156 42 monitor;
#X text 154 77 delay;
#X obj 649 180 f;
#X obj 649 205 max 0;
#X obj 650 236 expr pow($f1*0.02 \, 4);
#X obj 649 148 r \$0-mon;
#X obj 25 417 delwrite~ \$0-del1 100, f 12;
#X obj 124 412 delwrite~ \$0-del2 100, f 11;
#X obj 500 203 delread~ \$0-del1, f 8;
#X obj 499 275 *~;
#X obj 500 308 dac~ 1;
#X obj 567 276 *~;
#X obj 568 204 delread~ \$0-del2, f 8;
#X obj 568 309 dac~ 2;
#X msg 593 41 set \$1;
#X obj 593 16 r \$0-mon;
#X obj 593 66 s \$0-mon-set;
#X msg 691 42 set \$1;
#X obj 691 17 r \$0-delay;
#X obj 691 67 s \$0-delayn-set;
#X obj 500 174 r \$0-delay;
#X text 189 76 -;
#X obj 671 306 env~ 8192;
#X floatatom 671 331 5 0 0 0 - - -;
#X floatatom 709 199 5 0 0 0 - - -;
#X connect 0 0 2 0;
#X connect 1 0 4 0;
#X connect 2 0 19 0;
#X connect 3 0 19 0;
#X connect 4 0 0 0;
#X connect 4 1 5 0;
#X connect 5 0 3 0;
#X connect 6 1 2 1;
#X connect 10 0 25 0;
#X connect 10 0 50 1;
#X connect 11 0 12 0;
#X connect 12 0 13 0;
#X connect 15 0 16 0;
#X connect 16 0 21 0;
#X connect 18 0 1 1;
#X connect 18 0 6 0;
#X connect 20 0 1 0;
#X connect 21 0 46 0;
#X connect 23 0 25 1;
#X connect 23 0 34 1;
#X connect 24 0 23 0;
#X connect 25 0 47 0;
#X connect 25 0 26 0;
#X connect 25 0 76 0;
#X connect 26 0 27 0;
#X connect 27 0 29 0;
#X connect 28 0 29 0;
#X connect 28 0 39 0;
#X connect 29 0 30 0;
#X connect 30 0 31 0;
#X connect 31 0 32 0;
#X connect 31 1 33 0;
#X connect 32 0 44 0;
#X connect 33 0 44 0;
#X connect 34 0 48 0;
#X connect 34 0 37 0;
#X connect 34 0 77 0;
#X connect 36 0 28 0;
#X connect 37 0 38 0;
#X connect 38 0 39 0;
#X connect 39 0 40 0;
#X connect 40 0 41 0;
#X connect 41 0 42 0;
#X connect 41 1 43 0;
#X connect 42 0 45 0;
#X connect 43 0 45 0;
#X connect 46 0 24 0;
#X connect 46 0 7 0;
#X connect 49 0 60 0;
#X connect 50 0 52 0;
#X connect 52 0 25 0;
#X connect 53 0 10 0;
#X connect 54 0 55 1;
#X connect 54 0 34 0;
#X connect 55 0 56 0;
#X connect 56 0 34 0;
#X connect 58 0 56 1;
#X connect 58 0 52 1;
#X connect 59 0 54 0;
#X connect 60 0 50 0;
#X connect 61 0 55 0;
#X connect 62 0 61 0;
#X connect 72 0 73 0;
#X connect 73 0 74 0;
#X connect 74 0 81 1;
#X connect 74 0 94 0;
#X connect 74 0 79 1;
#X connect 75 0 72 0;
#X connect 78 0 79 0;
#X connect 79 0 80 0;
#X connect 79 0 92 0;
#X connect 81 0 83 0;
#X connect 82 0 81 0;
#X connect 84 0 86 0;
#X connect 85 0 84 0;
#X connect 87 0 89 0;
#X connect 88 0 87 0;
#X connect 90 0 78 0;
#X connect 90 0 82 0;
#X connect 92 0 93 0;
#X coords 0 0 1 1 180 85 1 30 30;
