#N canvas 873 158 747 751 12;
#X floatatom 103 128 5 0 0 0 - - -;
#X obj 30 18 r \$1-port;
#X obj 262 470 r in-packet-\$2;
#X obj 300 325 netreceive -u -b -f;
#X obj 463 385 unpack s 0;
#X obj 300 354 s \$0-packet-in;
#X obj 293 113 r \$1-on-off;
#X obj 336 243 f;
#X obj 293 209 sel 0;
#X msg 300 297 listen \$1;
#X floatatom 302 271 5 0 0 0 - - -;
#X msg 301 242 0;
#X obj 166 412 spigot;
#X obj 228 413 tgl 15 0 empty empty empty 17 7 0 10 -262144 -1 -1 0
1;
#X obj 166 441 print to-netsend;
#X obj 32 172 r \$0-connected;
#X obj 386 48 b;
#X obj 386 73 del 2000;
#X obj 150 77 r \$0-connected;
#X obj 143 131 tgl 15 0 empty empty empty 17 7 0 10 -262144 -1 -1 0
1;
#X msg 343 160 0;
#X obj 343 185 s \$0-connected;
#X msg 430 440 1;
#X obj 430 465 s \$0-connected;
#X obj 554 411 s \$0-rtnport;
#X obj 87 289 r \$0-rtnport;
#X obj 59 267 r \$0-rtnhost;
#X obj 34 321 pack 0 s 0 0;
#X obj 30 72 s \$0-listenport;
#X obj 127 320 r \$0-listenport;
#X obj 431 356 t b l;
#X obj 442 100 r \$1-on-off;
#X obj 387 99 spigot;
#X obj 32 201 t f f;
#X obj 87 202 sel 1;
#X obj 463 415 s \$0-rtnhost;
#X obj 293 141 t f b;
#X msg 387 124 1;
#X obj 337 214 b;
#X obj 44 438 sel 0;
#X msg 44 463 disconnect;
#X obj 33 489 netsend -u -b;
#X obj 134 500 bng 15 250 50 0 empty empty empty 17 7 0 10 -262144
-1 -1;
#X obj 44 413 r \$0-connected;
#X obj 370 241 r \$0-listenport;
#X obj 121 522 s in-packet-\$0;
#X obj 386 23 r in-packet-\$0;
#X obj 262 495 spigot;
#X obj 314 495 r \$0-connected;
#X obj 264 530 list prepend send;
#X obj 264 555 list trim;
#X msg 33 352 disconnect \, connect \$2 \$3 \$4, f 29;
#X obj 32 228 sel 1;
#X obj 30 527 sel 0;
#X obj 27 570 f;
#X obj 58 573 r \$0-connected;
#X obj 27 595 sel 1;
#X msg 27 620 0;
#X obj 27 645 s \$0-connected;
#X obj 30 43 expr $f1 + 10*\$2 + \$3 + 200*(\$3>10);
#X connect 1 0 59 0;
#X connect 2 0 47 0;
#X connect 3 0 5 0;
#X connect 3 1 30 0;
#X connect 4 0 35 0;
#X connect 4 1 24 0;
#X connect 6 0 36 0;
#X connect 7 0 10 0;
#X connect 8 0 11 0;
#X connect 8 1 38 0;
#X connect 9 0 3 0;
#X connect 10 0 9 0;
#X connect 11 0 10 0;
#X connect 12 0 14 0;
#X connect 13 0 12 1;
#X connect 15 0 33 0;
#X connect 16 0 17 0;
#X connect 17 0 32 0;
#X connect 18 0 19 0;
#X connect 20 0 21 0;
#X connect 22 0 23 0;
#X connect 25 0 27 2;
#X connect 26 0 27 1;
#X connect 27 0 51 0;
#X connect 29 0 27 3;
#X connect 30 0 22 0;
#X connect 30 1 4 0;
#X connect 31 0 32 1;
#X connect 32 0 37 0;
#X connect 33 0 52 0;
#X connect 33 1 34 0;
#X connect 34 0 11 0;
#X connect 36 0 8 0;
#X connect 36 1 20 0;
#X connect 37 0 36 0;
#X connect 38 0 7 0;
#X connect 39 0 40 0;
#X connect 40 0 41 0;
#X connect 41 0 53 0;
#X connect 41 1 42 0;
#X connect 41 1 45 0;
#X connect 43 0 39 0;
#X connect 44 0 7 1;
#X connect 46 0 16 0;
#X connect 47 0 49 0;
#X connect 48 0 47 1;
#X connect 49 0 50 0;
#X connect 50 0 41 0;
#X connect 51 0 12 0;
#X connect 51 0 41 0;
#X connect 52 0 27 0;
#X connect 53 0 54 0;
#X connect 54 0 56 0;
#X connect 55 0 54 1;
#X connect 56 0 57 0;
#X connect 57 0 58 0;
#X connect 59 0 0 0;
#X connect 59 0 28 0;
#X coords 0 -1 1 1 100 50 1 100 100;
