#N canvas 265 216 867 471 12;
#X obj 22 291 s \$0-on-off;
#X floatatom 279 100 6 0 0 0 - - -;
#X obj 413 109 tgl 15 0 empty empty empty 17 7 0 10 -262144 -1 -1 1
1;
#N canvas 432 59 796 899 ch1-4 0;
#X obj 51 118 netty-server-out \$0 1 1;
#X obj 228 46 netty-server-in \$0 2;
#X obj 228 118 netty-server-out \$0 2 1;
#X obj 51 181 netty-server-out \$0 1 2;
#X obj 228 181 netty-server-out \$0 2 2;
#X text 99 20 from 1;
#X text 282 22 from 2;
#X obj 405 45 netty-server-in \$0 3;
#X obj 405 118 netty-server-out \$0 3 1;
#X obj 405 181 netty-server-out \$0 3 2;
#X obj 582 46 netty-server-in \$0 4;
#X obj 582 118 netty-server-out \$0 4 1;
#X obj 582 181 netty-server-out \$0 4 2;
#X obj 51 244 netty-server-out \$0 1 3;
#X obj 51 307 netty-server-out \$0 1 4;
#X obj 228 244 netty-server-out \$0 2 3;
#X obj 228 307 netty-server-out \$0 2 4;
#X obj 405 244 netty-server-out \$0 3 3;
#X obj 405 307 netty-server-out \$0 3 4;
#X obj 582 244 netty-server-out \$0 4 3;
#X obj 582 307 netty-server-out \$0 4 4;
#X text 453 21 from 3;
#X text 625 19 from 4;
#X obj 51 370 netty-server-out \$0 1 5;
#X obj 51 433 netty-server-out \$0 1 6;
#X obj 51 496 netty-server-out \$0 1 7;
#X obj 51 559 netty-server-out \$0 1 8;
#X obj 228 370 netty-server-out \$0 2 5;
#X obj 228 433 netty-server-out \$0 2 6;
#X obj 228 496 netty-server-out \$0 2 7;
#X obj 228 559 netty-server-out \$0 2 8;
#X obj 405 370 netty-server-out \$0 3 5;
#X obj 405 433 netty-server-out \$0 3 6;
#X obj 405 496 netty-server-out \$0 3 7;
#X obj 405 559 netty-server-out \$0 3 8;
#X obj 582 370 netty-server-out \$0 4 5;
#X obj 582 433 netty-server-out \$0 4 6;
#X obj 582 496 netty-server-out \$0 4 7;
#X obj 582 559 netty-server-out \$0 4 8;
#X obj 51 45 netty-server-in \$0 1;
#X text 751 141 to 1;
#X text 751 202 to 2;
#X text 752 262 to 3;
#X text 753 325 to 4;
#X text 753 386 to 5;
#X text 754 446 to 6;
#X text 756 512 to 7;
#X text 756 573 to 8;
#X obj 51 620 netty-server-out \$0 1 9;
#X obj 228 620 netty-server-out \$0 2 9;
#X obj 405 620 netty-server-out \$0 3 9;
#X obj 582 620 netty-server-out \$0 4 9;
#X obj 51 683 netty-server-out \$0 1 10;
#X obj 228 683 netty-server-out \$0 2 10;
#X obj 405 683 netty-server-out \$0 3 10;
#X obj 582 683 netty-server-out \$0 4 10;
#X obj 51 746 netty-server-out \$0 1 11;
#X obj 228 746 netty-server-out \$0 2 11;
#X obj 405 746 netty-server-out \$0 3 11;
#X obj 582 746 netty-server-out \$0 4 11;
#X obj 51 809 netty-server-out \$0 1 12;
#X obj 228 809 netty-server-out \$0 2 12;
#X obj 405 809 netty-server-out \$0 3 12;
#X obj 582 809 netty-server-out \$0 4 12;
#X text 753 636 to 9;
#X text 754 696 to 10;
#X text 756 762 to 11;
#X text 756 823 to 12;
#X restore 161 59 pd ch1-4;
#N canvas 603 76 814 887 ch5-8 0;
#X text 101 22 from 5;
#X text 287 24 from 6;
#X text 459 23 from 7;
#X text 633 21 from 8;
#X text 767 141 to 1;
#X text 767 202 to 2;
#X obj 53 120 netty-server-out \$0 5 1;
#X obj 53 183 netty-server-out \$0 5 2;
#X obj 53 246 netty-server-out \$0 5 3;
#X obj 53 309 netty-server-out \$0 5 4;
#X obj 53 372 netty-server-out \$0 5 5;
#X obj 53 435 netty-server-out \$0 5 6;
#X obj 53 498 netty-server-out \$0 5 7;
#X obj 53 561 netty-server-out \$0 5 8;
#X obj 232 120 netty-server-out \$0 6 1;
#X obj 232 183 netty-server-out \$0 6 2;
#X obj 232 246 netty-server-out \$0 6 3;
#X obj 232 309 netty-server-out \$0 6 4;
#X obj 232 372 netty-server-out \$0 6 5;
#X obj 232 435 netty-server-out \$0 6 6;
#X obj 232 498 netty-server-out \$0 6 7;
#X obj 232 561 netty-server-out \$0 6 8;
#X obj 411 120 netty-server-out \$0 7 1;
#X obj 411 183 netty-server-out \$0 7 2;
#X obj 411 246 netty-server-out \$0 7 3;
#X obj 411 309 netty-server-out \$0 7 4;
#X obj 411 372 netty-server-out \$0 7 5;
#X obj 411 435 netty-server-out \$0 7 6;
#X obj 411 498 netty-server-out \$0 7 7;
#X obj 411 561 netty-server-out \$0 7 8;
#X obj 590 120 netty-server-out \$0 8 1;
#X obj 590 183 netty-server-out \$0 8 2;
#X obj 590 246 netty-server-out \$0 8 3;
#X obj 590 309 netty-server-out \$0 8 4;
#X obj 590 372 netty-server-out \$0 8 5;
#X obj 590 435 netty-server-out \$0 8 6;
#X obj 590 498 netty-server-out \$0 8 7;
#X obj 590 561 netty-server-out \$0 8 8;
#X obj 53 47 netty-server-in \$0 5;
#X obj 232 48 netty-server-in \$0 6;
#X obj 411 47 netty-server-in \$0 7;
#X obj 590 48 netty-server-in \$0 8;
#X text 768 262 to 3;
#X text 769 325 to 4;
#X text 769 386 to 5;
#X text 770 446 to 6;
#X text 772 512 to 7;
#X text 772 573 to 8;
#X obj 53 624 netty-server-out \$0 5 9;
#X obj 232 624 netty-server-out \$0 6 9;
#X obj 411 624 netty-server-out \$0 7 9;
#X obj 590 624 netty-server-out \$0 8 9;
#X text 769 638 to 9;
#X obj 53 687 netty-server-out \$0 5 10;
#X obj 232 687 netty-server-out \$0 6 10;
#X obj 411 687 netty-server-out \$0 7 10;
#X obj 590 687 netty-server-out \$0 8 10;
#X text 770 698 to 10;
#X obj 53 750 netty-server-out \$0 5 11;
#X obj 232 750 netty-server-out \$0 6 11;
#X obj 411 750 netty-server-out \$0 7 11;
#X obj 590 750 netty-server-out \$0 8 11;
#X text 772 764 to 11;
#X obj 53 813 netty-server-out \$0 5 12;
#X obj 232 813 netty-server-out \$0 6 12;
#X obj 411 813 netty-server-out \$0 7 12;
#X obj 590 813 netty-server-out \$0 8 12;
#X text 772 825 to 12;
#X restore 161 83 pd ch5-8;
#X obj 603 115 text define \$0-callers;
#X obj 605 80 text define \$0-want-callers;
#X obj 605 240 text tolist \$0-init-callers;
#X obj 605 49 text define -k \$0-init-callers;
#A set - 0 0 \; - 0 0 \; - 0 0 \; - 0 0 \; - 0 0 \; - 0 0 \; - 0 0
\; - 0 0 \; - 0 0 \; - 0 0 \; - 0 0 \; - 0 0 \;;
#X obj 612 273 text fromlist \$0-want-callers;
#X obj 605 306 text fromlist \$0-callers;
#X obj 602 166 r \$0-clear;
#X obj 603 213 bng 15 250 50 0 empty empty empty 17 7 0 10 -262144
-1 -1;
#X obj 110 290 metro 1000;
#X obj 110 315 f;
#X obj 113 369 mod 100000;
#X obj 113 394 s \$0-timestamp;
#N canvas 634 55 815 589 listener 0;
#X obj 304 285 unpack s 0;
#X obj 208 140 f;
#X obj 165 106 sel 0;
#X msg 174 252 listen \$1;
#X floatatom 174 171 5 0 0 0 - - -;
#X msg 173 139 0;
#X obj 209 111 b;
#X obj 242 138 r \$0-port;
#X obj 166 75 f;
#X obj 306 316 s \$0-control-rtnhost;
#X obj 384 287 s \$0-control-rtnport;
#X obj 165 46 r \$0-control-listen;
#X obj 175 373 list;
#X obj 175 404 t b l b;
#X msg 232 434 0;
#X msg 165 436 1;
#X obj 231 466 s \$0-control-listen;
#X obj 174 280 netreceive -u -f;
#X obj 199 496 s \$0-got-call;
#X obj 384 379 list;
#X obj 384 410 t b l b;
#X msg 441 440 0;
#X msg 374 442 1;
#X obj 440 472 s \$0-control-listen;
#X obj 408 502 s \$0-got-admin;
#X obj 353 39 r \$0-on-off;
#X obj 352 65 s \$0-control-listen;
#X obj 175 348 route call admin, f 81;
#X obj 53 347 spigot;
#X obj 88 318 tgl 15 0 empty empty empty 17 7 0 10 -262144 -1 -1 0
1;
#X obj 53 372 print from-net;
#X connect 0 0 9 0;
#X connect 0 1 10 0;
#X connect 1 0 4 0;
#X connect 2 0 5 0;
#X connect 2 1 6 0;
#X connect 3 0 17 0;
#X connect 4 0 3 0;
#X connect 5 0 4 0;
#X connect 6 0 1 0;
#X connect 7 0 1 1;
#X connect 8 0 2 0;
#X connect 11 0 8 0;
#X connect 12 0 13 0;
#X connect 13 0 15 0;
#X connect 13 1 18 0;
#X connect 13 2 14 0;
#X connect 14 0 16 0;
#X connect 15 0 16 0;
#X connect 17 0 27 0;
#X connect 17 0 28 0;
#X connect 17 1 0 0;
#X connect 19 0 20 0;
#X connect 20 0 22 0;
#X connect 20 1 24 0;
#X connect 20 2 21 0;
#X connect 21 0 23 0;
#X connect 22 0 23 0;
#X connect 25 0 26 0;
#X connect 27 0 12 0;
#X connect 27 1 19 0;
#X connect 28 0 30 0;
#X connect 29 0 28 1;
#X restore 11 63 pd listener;
#X obj 110 340 + 1;
#X obj 627 190 loadbang;
#N canvas 75 123 671 564 cull-dead-calls 0;
#X obj 221 49 r \$0-timestamp;
#X obj 188 124 mod 10;
#X obj 188 149 sel 0;
#X msg 185 204 0 \, 1 \, 2 \, 3 \, 4 \, 5 \, 6 \, 7;
#X obj 185 264 text get \$0-callers;
#X obj 185 289 list trim;
#X obj 185 314 route -;
#X obj 187 175 spigot;
#X obj 261 175 tgl 15 0 empty empty empty 17 7 0 10 -262144 -1 -1 1
1;
#X obj 266 138 loadbang;
#X obj 185 229 t f f, f 23;
#X obj 221 358 unpack s 0 0;
#X obj 231 91 t f f, f 25;
#X obj 281 424 -;
#X obj 281 398 swap;
#X obj 281 449 mod 100000;
#X obj 371 516 text set \$0-callers;
#X floatatom 457 464 5 0 0 0 - - -;
#X msg 369 486 list - 0 0;
#X floatatom 466 134 5 0 0 0 - - -;
#X obj 281 474 moses 60;
#X connect 0 0 12 0;
#X connect 0 0 19 0;
#X connect 1 0 2 0;
#X connect 2 0 7 0;
#X connect 3 0 10 0;
#X connect 4 0 5 0;
#X connect 5 0 6 0;
#X connect 6 1 11 0;
#X connect 7 0 3 0;
#X connect 8 0 7 1;
#X connect 9 0 8 0;
#X connect 10 0 4 0;
#X connect 10 1 16 1;
#X connect 11 1 14 0;
#X connect 12 0 1 0;
#X connect 12 1 14 1;
#X connect 13 0 15 0;
#X connect 14 0 13 0;
#X connect 14 1 13 1;
#X connect 15 0 17 0;
#X connect 15 0 20 0;
#X connect 18 0 16 0;
#X connect 20 1 18 0;
#X restore 10 86 pd cull-dead-calls;
#N canvas 677 194 944 672 got-call 0;
#X obj 199 632 s in-packet-\$2;
#X obj 360 81 pack 0 s 0 0;
#X obj 233 610 bng 15 250 50 0 empty empty empty 17 7 0 10 -262144
-1 -1;
#X obj 453 80 r \$0-port;
#X obj 415 51 r \$0-control-rtnport;
#X obj 387 29 r \$0-control-rtnhost;
#X msg 360 106 disconnect \, connect \$2 \$3 \$4;
#X obj 278 57 t b l b;
#X obj 132 608 netsend -u;
#X obj 279 30 r \$0-got-call;
#X obj 301 570 spigot;
#X obj 363 571 tgl 15 0 empty empty empty 17 7 0 10 -262144 -1 -1 0
1;
#X obj 301 599 print to-caller-netsend;
#X obj 361 132 s \$0-to-caller-netsend;
#X obj 143 508 r \$0-to-caller-netsend;
#X msg 278 88 disconnect;
#X obj 116 485 s \$0-to-caller-netsend;
#X obj 129 242 unpack s s;
#X text 220 217 caller-name;
#X obj 703 134 text search \$0-callers;
#X obj 704 161 route -1;
#X obj 335 378 r \$0-timestamp;
#N canvas 283 335 1244 425 get-names 0;
#X obj 90 34 inlet;
#X obj 82 69 t f b;
#X obj 123 305 outlet;
#X obj 190 182 text get \$0-callers 0 1, f 10;
#X msg 190 155 0;
#X obj 190 238 t s;
#X obj 267 183 text get \$0-callers 0 1, f 10;
#X obj 267 239 t s;
#X msg 267 156 1;
#X obj 347 182 text get \$0-callers 0 1, f 10;
#X obj 347 238 t s;
#X obj 425 182 text get \$0-callers 0 1, f 10;
#X obj 425 238 t s;
#X obj 503 182 text get \$0-callers 0 1, f 10;
#X obj 503 238 t s;
#X obj 580 183 text get \$0-callers 0 1, f 10;
#X obj 580 239 t s;
#X obj 660 182 text get \$0-callers 0 1, f 10;
#X obj 660 238 t s;
#X obj 738 182 text get \$0-callers 0 1, f 10;
#X obj 738 238 t s;
#X msg 347 155 2;
#X msg 425 155 3;
#X msg 503 155 4;
#X msg 580 156 5;
#X msg 660 155 6;
#X msg 738 155 7;
#X obj 123 280 pack 0 s s s s s s s s s s s s, f 134;
#X obj 822 182 text get \$0-callers 0 1, f 10;
#X obj 822 238 t s;
#X obj 899 183 text get \$0-callers 0 1, f 10;
#X obj 899 239 t s;
#X obj 979 182 text get \$0-callers 0 1, f 10;
#X obj 979 238 t s;
#X obj 1057 182 text get \$0-callers 0 1, f 10;
#X obj 1057 238 t s;
#X msg 822 155 8;
#X msg 899 156 9;
#X msg 979 155 10;
#X msg 1057 155 11;
#X connect 0 0 1 0;
#X connect 1 0 27 0;
#X connect 1 1 4 0;
#X connect 1 1 8 0;
#X connect 1 1 21 0;
#X connect 1 1 26 0;
#X connect 1 1 25 0;
#X connect 1 1 24 0;
#X connect 1 1 23 0;
#X connect 1 1 22 0;
#X connect 1 1 36 0;
#X connect 1 1 39 0;
#X connect 1 1 38 0;
#X connect 1 1 37 0;
#X connect 3 0 5 0;
#X connect 4 0 3 0;
#X connect 5 0 27 1;
#X connect 6 0 7 0;
#X connect 7 0 27 2;
#X connect 8 0 6 0;
#X connect 9 0 10 0;
#X connect 10 0 27 3;
#X connect 11 0 12 0;
#X connect 12 0 27 4;
#X connect 13 0 14 0;
#X connect 14 0 27 5;
#X connect 15 0 16 0;
#X connect 16 0 27 6;
#X connect 17 0 18 0;
#X connect 18 0 27 7;
#X connect 19 0 20 0;
#X connect 20 0 27 8;
#X connect 21 0 9 0;
#X connect 22 0 11 0;
#X connect 23 0 13 0;
#X connect 24 0 15 0;
#X connect 25 0 17 0;
#X connect 26 0 19 0;
#X connect 27 0 2 0;
#X connect 28 0 29 0;
#X connect 29 0 27 9;
#X connect 30 0 31 0;
#X connect 31 0 27 10;
#X connect 32 0 33 0;
#X connect 33 0 27 11;
#X connect 34 0 35 0;
#X connect 35 0 27 12;
#X connect 36 0 28 0;
#X connect 37 0 30 0;
#X connect 38 0 32 0;
#X connect 39 0 34 0;
#X restore 115 434 pd get-names;
#X obj 116 383 f;
#X obj 287 377 symbol;
#X obj 543 484 text search \$0-callers;
#X obj 543 512 route -1;
#X msg 544 457 symbol -;
#X obj 185 333 t b f;
#X obj 295 406 pack s 0 0;
#X obj 229 440 text set \$0-callers 0 0;
#X obj 116 408 + 1;
#X obj 211 244 t s s, f 6;
#X obj 127 275 t b s, f 44;
#X obj 771 160 s \$0-alloc-channel;
#X obj 608 513 s \$0-alloc-channel;
#X obj 185 304 r \$0-alloc-channel;
#X text 731 215 1 caller already has channel, f 17;
#X obj 630 273 b;
#X obj 630 298 symbol;
#X obj 266 246 s \$0-new-caller;
#X obj 668 273 r \$0-new-caller;
#X obj 322 342 r \$0-new-caller;
#X obj 630 328 text search \$0-want-callers;
#X obj 629 356 route -1;
#X obj 694 358 s \$0-alloc-channel;
#X obj 757 192 print z1;
#X obj 700 393 print z2;
#X obj 597 540 print z3;
#X obj 583 565 print z4;
#X msg 545 560 -1;
#X obj 143 533 t b a a;
#X msg 93 573 (done);
#X msg 18 130 1, f 1;
#X text 31 9 check session matches, f 22;
#X obj 30 32 t s b l;
#X msg 40 130 0, f 1;
#X obj 18 161 ||;
#X obj 134 148 unpack s s;
#X obj 102 179 pack 0 s s;
#X obj 18 104 sel -;
#X msg 66 129 1, f 1;
#X msg 88 129 0, f 1;
#X obj 100 209 route 0 1;
#X text 17 262 wrong session;
#X text 645 417 2 chef assigned channel;
#X text 676 537 3 found a free channel;
#X text 652 584 no free channels: fail;
#X msg 507 604 send channels 0 - - - - - - - -, f 16;
#X obj 507 643 s \$0-to-caller-netsend;
#X obj 470 565 r \$0-nope;
#X obj 33 240 s \$0-nope;
#X obj 137 27 r \$0-session-name;
#X obj 137 58 symbol;
#X floatatom 25 204 5 0 0 0 - - -;
#X obj 148 95 print session-name;
#X obj 66 105 sel -;
#X msg 116 460 send channels \$1 \$2 \$3 \$4 \$5 \$6 \$7 \$8 \$9 \$10
\$11 \$12 \$13;
#X connect 1 0 6 0;
#X connect 3 0 1 3;
#X connect 4 0 1 2;
#X connect 5 0 1 1;
#X connect 6 0 13 0;
#X connect 7 0 15 0;
#X connect 7 1 55 0;
#X connect 7 2 1 0;
#X connect 8 1 0 0;
#X connect 8 1 2 0;
#X connect 9 0 7 0;
#X connect 10 0 12 0;
#X connect 11 0 10 1;
#X connect 14 0 51 0;
#X connect 15 0 13 0;
#X connect 17 1 32 0;
#X connect 19 0 20 0;
#X connect 20 0 38 0;
#X connect 20 1 34 0;
#X connect 21 0 29 1;
#X connect 22 0 77 0;
#X connect 23 0 31 0;
#X connect 24 0 29 0;
#X connect 25 0 26 0;
#X connect 26 0 50 0;
#X connect 26 1 35 0;
#X connect 27 0 25 0;
#X connect 28 0 24 0;
#X connect 28 1 23 1;
#X connect 28 1 30 1;
#X connect 29 0 30 0;
#X connect 31 0 22 0;
#X connect 32 0 33 0;
#X connect 32 1 40 0;
#X connect 33 0 23 0;
#X connect 33 1 19 0;
#X connect 36 0 28 0;
#X connect 38 0 39 0;
#X connect 39 0 43 0;
#X connect 41 0 39 1;
#X connect 42 0 24 1;
#X connect 43 0 44 0;
#X connect 44 0 27 0;
#X connect 44 1 45 0;
#X connect 50 0 68 0;
#X connect 51 0 52 0;
#X connect 51 1 8 0;
#X connect 51 2 10 0;
#X connect 52 0 10 0;
#X connect 53 0 57 0;
#X connect 55 0 60 0;
#X connect 55 2 58 0;
#X connect 56 0 57 0;
#X connect 57 0 59 0;
#X connect 57 0 74 0;
#X connect 58 0 59 1;
#X connect 58 1 59 2;
#X connect 59 0 63 0;
#X connect 60 0 53 0;
#X connect 60 1 56 0;
#X connect 61 0 57 1;
#X connect 62 0 57 1;
#X connect 63 0 71 0;
#X connect 63 1 17 0;
#X connect 68 0 69 0;
#X connect 70 0 68 0;
#X connect 72 0 73 0;
#X connect 73 0 75 0;
#X connect 73 0 76 0;
#X connect 73 0 60 1;
#X connect 76 0 61 0;
#X connect 76 1 62 0;
#X connect 77 0 16 0;
#X restore 10 110 pd got-call;
#N canvas 505 303 824 591 got-admin 0;
#X obj 245 79 pack 0 s 0 0;
#X obj 338 78 r \$0-port;
#X obj 300 49 r \$0-control-rtnport;
#X obj 272 27 r \$0-control-rtnhost;
#X msg 245 104 disconnect \, connect \$2 \$3 \$4;
#X obj 98 54 t b l b;
#X obj 246 130 s \$0-to-caller-netsend;
#X msg 163 86 disconnect;
#X obj 123 171 t l s b;
#X text 498 48 admin-pw \, call-name \, caller-1 \, ...;
#X obj 255 161 r \$0-pw;
#X obj 255 187 sel -;
#X obj 212 199 f;
#X msg 255 212 1;
#X obj 140 199 select -;
#X obj 123 254 spigot;
#X msg 140 223 1;
#X obj 123 288 t l l;
#X msg 154 316 \$2;
#X obj 154 345 s \$0-session-name;
#X obj 127 441 t l f;
#X obj 212 495 print xx;
#X msg 127 473 list \$2 0 0;
#X obj 99 27 r \$0-got-admin;
#X obj 126 524 text set \$0-want-callers;
#X obj 125 371 pack s s s s s s s s s s s s s s;
#X msg 126 401 0 \$3 \, 1 \$4 \, 2 \$5 \, 3 \$6 \, 4 \$7 \, 5 \$8 \,
6 \$9 \, 7 \$10 \, 8 \$11 \, 9 \$12 \, 10 \$13 \, 11 \$14;
#X connect 0 0 4 0;
#X connect 1 0 0 3;
#X connect 2 0 0 2;
#X connect 3 0 0 1;
#X connect 4 0 6 0;
#X connect 5 0 7 0;
#X connect 5 1 8 0;
#X connect 5 2 0 0;
#X connect 7 0 6 0;
#X connect 8 0 15 0;
#X connect 8 1 14 0;
#X connect 8 2 12 0;
#X connect 10 0 11 0;
#X connect 10 0 14 1;
#X connect 11 0 13 0;
#X connect 12 0 15 1;
#X connect 13 0 12 1;
#X connect 14 0 16 0;
#X connect 15 0 17 0;
#X connect 16 0 15 1;
#X connect 17 0 25 0;
#X connect 17 1 18 0;
#X connect 18 0 19 0;
#X connect 20 0 22 0;
#X connect 20 1 24 1;
#X connect 22 0 24 0;
#X connect 23 0 5 0;
#X connect 25 0 26 0;
#X connect 26 0 20 0;
#X restore 10 134 pd got-admin;
#X obj 498 388 r #;
#X obj 321 297 list trim;
#X obj 321 322 route port password;
#X obj 312 349 print port;
#X obj 182 172 loadbang;
#X obj 279 75 r \$0-port;
#X obj 414 80 r \$0-on-off;
#X obj 324 375 s \$0-port;
#X obj 429 376 print pw;
#X obj 419 404 s \$0-pw;
#X obj 269 210 text define \$0-config;
#X obj 321 272 text sequence \$0-config;
#X msg 267 183 read -c netty-config.txt;
#X obj 205 270 sel 0;
#X obj 205 320 s \$0-port;
#X obj 205 245 v \$0-port;
#X obj 182 197 t b b b b;
#X msg 322 245 line 0 \, auto;
#X obj 418 350 symbol;
#X obj 152 176 bng 15 250 50 0 empty empty empty 17 7 0 10 -262144
-1 -1;
#X msg 28 255 1;
#X obj 471 204 s \$0-pw;
#X obj 436 143 s \$0-session-name;
#X msg 471 179 symbol -;
#N canvas 797 50 962 917 ch9-12 0;
#X text 807 141 to 1;
#X text 807 202 to 2;
#X text 807 262 to 3;
#X text 807 325 to 4;
#X text 807 386 to 5;
#X text 807 446 to 6;
#X text 807 512 to 7;
#X text 807 573 to 8;
#X text 101 22 from 9;
#X text 297 24 from 10;
#X text 479 23 from 11;
#X text 663 21 from 12;
#X obj 53 47 netty-server-in \$0 9;
#X obj 53 120 netty-server-out \$0 9 1;
#X obj 53 183 netty-server-out \$0 9 2;
#X obj 53 246 netty-server-out \$0 9 3;
#X obj 53 309 netty-server-out \$0 9 4;
#X obj 53 372 netty-server-out \$0 9 5;
#X obj 53 435 netty-server-out \$0 9 6;
#X obj 53 498 netty-server-out \$0 9 7;
#X obj 53 561 netty-server-out \$0 9 8;
#X obj 242 48 netty-server-in \$0 10;
#X obj 242 120 netty-server-out \$0 10 1;
#X obj 242 183 netty-server-out \$0 10 2;
#X obj 242 246 netty-server-out \$0 10 3;
#X obj 242 309 netty-server-out \$0 10 4;
#X obj 242 372 netty-server-out \$0 10 5;
#X obj 242 435 netty-server-out \$0 10 6;
#X obj 242 498 netty-server-out \$0 10 7;
#X obj 242 561 netty-server-out \$0 10 8;
#X obj 431 47 netty-server-in \$0 11;
#X obj 431 120 netty-server-out \$0 11 1;
#X obj 431 183 netty-server-out \$0 11 2;
#X obj 431 246 netty-server-out \$0 11 3;
#X obj 431 309 netty-server-out \$0 11 4;
#X obj 431 372 netty-server-out \$0 11 5;
#X obj 431 435 netty-server-out \$0 11 6;
#X obj 431 498 netty-server-out \$0 11 7;
#X obj 431 561 netty-server-out \$0 11 8;
#X obj 620 48 netty-server-in \$0 12;
#X obj 620 120 netty-server-out \$0 12 1;
#X obj 620 183 netty-server-out \$0 12 2;
#X obj 620 246 netty-server-out \$0 12 3;
#X obj 620 309 netty-server-out \$0 12 4;
#X obj 620 372 netty-server-out \$0 12 5;
#X obj 620 435 netty-server-out \$0 12 6;
#X obj 620 498 netty-server-out \$0 12 7;
#X obj 620 561 netty-server-out \$0 12 8;
#X obj 53 623 netty-server-out \$0 9 9;
#X obj 242 623 netty-server-out \$0 10 9;
#X obj 431 623 netty-server-out \$0 11 9;
#X obj 620 623 netty-server-out \$0 12 9;
#X text 807 637 to 9;
#X obj 53 686 netty-server-out \$0 9 10;
#X obj 242 686 netty-server-out \$0 10 10;
#X obj 431 686 netty-server-out \$0 11 10;
#X obj 620 686 netty-server-out \$0 12 10;
#X obj 53 749 netty-server-out \$0 9 11;
#X obj 242 749 netty-server-out \$0 10 11;
#X obj 431 749 netty-server-out \$0 11 11;
#X obj 620 749 netty-server-out \$0 12 11;
#X text 807 763 to 11;
#X text 807 697 to 10;
#X obj 53 812 netty-server-out \$0 9 12;
#X obj 242 812 netty-server-out \$0 10 12;
#X obj 431 812 netty-server-out \$0 11 12;
#X obj 620 812 netty-server-out \$0 12 12;
#X text 807 824 to 12;
#X restore 161 106 pd ch9-12;
#X msg 205 295 38500;
#X text 52 8 server101 version 0.92test1;
#X connect 7 0 9 0;
#X connect 7 0 10 0;
#X connect 11 0 12 0;
#X connect 12 0 7 0;
#X connect 13 0 14 0;
#X connect 14 0 18 0;
#X connect 15 0 14 1;
#X connect 15 0 16 0;
#X connect 18 0 15 0;
#X connect 19 0 12 0;
#X connect 24 0 25 0;
#X connect 25 0 26 0;
#X connect 25 0 30 0;
#X connect 25 1 41 0;
#X connect 27 0 39 0;
#X connect 28 0 1 0;
#X connect 29 0 2 0;
#X connect 34 0 24 0;
#X connect 35 0 33 0;
#X connect 36 0 48 0;
#X connect 38 0 36 0;
#X connect 39 0 13 0;
#X connect 39 0 43 0;
#X connect 39 1 38 0;
#X connect 39 2 40 0;
#X connect 39 3 35 0;
#X connect 39 3 46 0;
#X connect 40 0 34 0;
#X connect 41 0 31 0;
#X connect 41 0 32 0;
#X connect 42 0 39 0;
#X connect 43 0 0 0;
#X connect 46 0 44 0;
#X connect 46 0 45 0;
#X connect 48 0 37 0;
