#N canvas 554 103 1260 740 12;
#X declare -path lib/quacktrip~ -path lib;
#X obj 523 25 declare -path lib/quacktrip~ -path lib;
#X floatatom 119 50 3 0 100 0 - #0-lvl-set #0-lvl;
#X obj 72 59 bng 15 250 50 0 \$0-mute \$0-mute-set empty 0 0 0 12 -262144
-1 -1;
#X obj 37 140 hsl 20 12 1 9 0 0 \$0-pan \$0-pan-set empty 0 0 0 10
-262144 -1 -1 950 1;
#X obj 63 140 bng 12 250 50 0 \$0-ctr-pan \$0-ctr-pan-set empty 0 0
0 12 -262144 -1 -1;
#X obj 118 75 vu 8 80 \$0-vu1 empty -1 -8 0 10 -66577 -1 0 0;
#X text 37 56 mute;
#X obj 133 75 vu 8 80 \$0-vu2 empty -1 -8 0 10 -66577 -1 0 0;
#X floatatom 114 160 2 1 99 0 - #0-ch1-set #0-ch1;
#X floatatom 130 160 2 1 99 0 - #0-ch2-set #0-ch2;
#X text 224 175 mono;
#X obj 257 177 tgl 15 0 \$0-mono \$0-mono-set empty 17 7 0 10 -262144
-1 -1 0 1;
#X text 95 159 ch;
#X text 32 123 balance;
#N canvas 748 106 967 793 audio-out 0;
#X obj 734 507 t b;
#X obj 734 454 f;
#X obj 734 532 f;
#X msg 848 531 0;
#X obj 734 484 moses 1;
#X obj 848 503 t b f;
#X obj 814 464 moses 1;
#X obj 143 180 inlet~;
#X msg 662 291 \; pd dsp 1;
#X obj 324 313 line~;
#X obj 274 358 *~;
#X obj 143 202 hip~ 3;
#X obj 666 155 r \$0-lvl;
#X obj 665 182 f;
#X obj 325 39 r \$0-pan;
#X obj 324 273 pack 0 30, f 5;
#X obj 678 71 r \$0-ctr-pan;
#X obj 325 64 f;
#X obj 325 89 - 5;
#X obj 325 114 * 0.25;
#X obj 813 435 r \$0-lvl;
#X obj 734 558 s \$0-lvl;
#X obj 734 427 r \$0-mute;
#X obj 678 120 s \$0-pan;
#X obj 665 207 max 0;
#X obj 325 165 expr 1.5*$f1-0.5*($f1*$f1*$f1);
#X obj 325 139 clip -1 1;
#X obj 506 201 expr 0.5*($f1+1);
#X obj 324 218 expr 0.5*(1-$f1);
#X obj 716 94 loadbang;
#X obj 382 338 line~;
#X obj 320 357 *~;
#X obj 382 298 pack 0 30, f 5;
#X text 754 395 MUTE logic;
#X obj 444 354 line~;
#X obj 444 314 pack 0 30, f 5;
#X obj 275 387 *~;
#X obj 325 190 t f f;
#X obj 183 521 abs~;
#X obj 183 546 slop~ 0 0 0.3 0 1e+09;
#X obj 507 551 metro 100;
#X obj 185 594 snapshot~;
#X obj 185 619 rmstodb;
#X obj 185 644 moses 1;
#X msg 186 679 -100;
#X obj 233 674 - 88;
#X msg 678 96 5;
#X obj 195 178 inlet~;
#X obj 195 200 hip~ 3;
#X obj 320 389 *~;
#X obj 508 523 loadbang;
#X obj 341 518 abs~;
#X obj 341 543 slop~ 0 0 0.3 0 1e+09;
#X obj 342 592 snapshot~;
#X obj 342 617 rmstodb;
#X obj 342 642 moses 1;
#X msg 343 677 -100;
#X obj 390 672 - 88;
#X obj 184 715 s \$0-vu1;
#X obj 341 713 s \$0-vu2;
#X obj 663 235 expr pow($f1*0.02 \, 4);
#X obj 444 452 r \$0-ch1;
#X obj 223 522 dac~ 1;
#X obj 380 518 dac~ 2;
#X msg 444 477 set \$1;
#X msg 507 478 set \$1;
#X obj 507 453 r \$0-ch2;
#X obj 236 246 r \$0-mono;
#X obj 199 251 -~;
#X obj 236 271 * 0.5;
#X obj 199 276 *~ 0;
#X obj 139 310 -~;
#X obj 186 308 +~;
#X floatatom 407 402 5 0 0 0 - - -;
#X floatatom 463 400 5 0 0 0 - - -;
#X obj 325 245 expr $f1 + 0.25*($f1*$f2);
#X obj 381 271 expr $f2 + 0.25*($f1*$f2);
#X connect 0 0 2 0;
#X connect 1 0 4 0;
#X connect 2 0 21 0;
#X connect 3 0 21 0;
#X connect 4 0 0 0;
#X connect 4 1 5 0;
#X connect 5 0 3 0;
#X connect 6 1 2 1;
#X connect 7 0 11 0;
#X connect 9 0 10 1;
#X connect 10 0 36 0;
#X connect 11 0 71 0;
#X connect 11 0 68 0;
#X connect 12 0 13 0;
#X connect 13 0 24 0;
#X connect 14 0 17 0;
#X connect 15 0 9 0;
#X connect 16 0 46 0;
#X connect 17 0 18 0;
#X connect 18 0 19 0;
#X connect 19 0 26 0;
#X connect 20 0 1 1;
#X connect 20 0 6 0;
#X connect 22 0 1 0;
#X connect 24 0 60 0;
#X connect 25 0 37 0;
#X connect 26 0 25 0;
#X connect 26 0 8 0;
#X connect 27 0 75 1;
#X connect 27 0 76 1;
#X connect 28 0 75 0;
#X connect 28 0 76 0;
#X connect 29 0 46 0;
#X connect 30 0 31 1;
#X connect 31 0 49 0;
#X connect 32 0 30 0;
#X connect 34 0 36 1;
#X connect 34 0 49 1;
#X connect 35 0 34 0;
#X connect 36 0 38 0;
#X connect 36 0 62 0;
#X connect 37 0 28 0;
#X connect 37 1 27 0;
#X connect 38 0 39 0;
#X connect 39 0 41 0;
#X connect 40 0 41 0;
#X connect 40 0 53 0;
#X connect 41 0 42 0;
#X connect 42 0 43 0;
#X connect 43 0 44 0;
#X connect 43 1 45 0;
#X connect 44 0 58 0;
#X connect 45 0 58 0;
#X connect 46 0 23 0;
#X connect 47 0 48 0;
#X connect 48 0 72 0;
#X connect 48 0 68 1;
#X connect 49 0 51 0;
#X connect 49 0 63 0;
#X connect 50 0 40 0;
#X connect 51 0 52 0;
#X connect 52 0 53 0;
#X connect 53 0 54 0;
#X connect 54 0 55 0;
#X connect 55 0 56 0;
#X connect 55 1 57 0;
#X connect 56 0 59 0;
#X connect 57 0 59 0;
#X connect 60 0 35 0;
#X connect 60 0 8 0;
#X connect 61 0 64 0;
#X connect 64 0 62 0;
#X connect 65 0 63 0;
#X connect 66 0 65 0;
#X connect 67 0 69 0;
#X connect 68 0 70 0;
#X connect 69 0 70 1;
#X connect 70 0 72 1;
#X connect 70 0 71 1;
#X connect 71 0 10 0;
#X connect 72 0 31 0;
#X connect 75 0 15 0;
#X connect 75 0 73 0;
#X connect 76 0 32 0;
#X connect 76 0 74 0;
#X restore 385 634 pd audio-out;
#N canvas 140 104 1034 258 more-setctl 0;
#X obj 25 29 r \$0-lvl;
#X msg 25 54 set \$1;
#X obj 25 79 s \$0-lvl-set;
#X msg 121 53 set \$1;
#X obj 121 28 r \$0-pan;
#X obj 121 78 s \$0-pan-set;
#X msg 223 54 set \$1;
#X obj 223 29 r \$0-mono;
#X obj 223 79 s \$0-mono-set;
#X msg 661 55 set \$1;
#X obj 661 30 r \$0-ch1;
#X obj 661 104 s \$0-ch1-set;
#X msg 755 56 set \$1;
#X obj 755 31 r \$0-ch2;
#X obj 755 105 s \$0-ch2-set;
#X obj 826 35 loadbang;
#X msg 826 60 1;
#X msg 860 62 2;
#X msg 334 53 set \$1;
#X obj 334 28 r \$0-fifo-size;
#X msg 481 53 set \$1;
#X obj 481 28 r \$0-connected;
#X obj 481 78 s \$0-connected-set;
#X obj 334 78 s \$0-fifo-size-set;
#X connect 0 0 1 0;
#X connect 1 0 2 0;
#X connect 3 0 5 0;
#X connect 4 0 3 0;
#X connect 6 0 8 0;
#X connect 7 0 6 0;
#X connect 9 0 11 0;
#X connect 10 0 9 0;
#X connect 12 0 14 0;
#X connect 13 0 12 0;
#X connect 15 0 16 0;
#X connect 15 0 17 0;
#X connect 16 0 11 0;
#X connect 17 0 14 0;
#X connect 18 0 23 0;
#X connect 19 0 18 0;
#X connect 20 0 22 0;
#X connect 21 0 20 0;
#X restore 656 94 pd more-setctl;
#N canvas 605 68 668 550 to-quacktrip 0;
#X obj 20 512 outlet;
#X obj 147 363 sel 1 0;
#X msg 153 435 off;
#X msg 337 438 nbuf \$1;
#X msg 34 432 client \$2 \$3;
#X obj 37 400 pack 0 s 0;
#X obj 71 159 r \$1-server;
#X obj 147 337 r \$1-onoff;
#X obj 240 363 loadbang;
#X obj 337 409 r \$0-fifo-size;
#X obj 124 188 r \$1-port;
#X obj 155 225 r \$1-this-caller;
#X obj 156 258 t b f;
#X msg 239 389 block 64 \, nchan 0 \, repeat 0;
#X obj 123 295 expr $f1 + 10*\$2 + $f2 + 200*($f2>10);
#X connect 1 0 5 0;
#X connect 1 1 2 0;
#X connect 2 0 0 0;
#X connect 3 0 0 0;
#X connect 4 0 0 0;
#X connect 5 0 4 0;
#X connect 6 0 5 1;
#X connect 7 0 1 0;
#X connect 8 0 13 0;
#X connect 9 0 3 0;
#X connect 10 0 14 0;
#X connect 11 0 12 0;
#X connect 12 0 14 0;
#X connect 12 1 14 1;
#X connect 13 0 0 0;
#X connect 14 0 5 2;
#X restore 502 239 pd to-quacktrip;
#X obj 386 310 quacktrip~;
#X obj 474 428 change;
#X floatatom 97 249 7 0 0 0 - #0-packets-in-set #0-packets-in;
#X floatatom 97 271 5 0 0 0 - #0-dropouts-set #0-dropouts;
#X floatatom 74 225 3 0 0 0 - #0-min-fill-set #0-min-fill;
#X text 36 226 fill;
#X obj 439 54 loadbang;
#X obj 416 56 bng 15 250 50 0 empty empty empty 17 7 0 10 -262144 -1
-1;
#X obj 741 414 b;
#X obj 744 484 f;
#X obj 776 485 + 1;
#X obj 99 292 bng 15 250 50 0 empty empty empty 17 7 0 10 -262144 -1
-1;
#X text 58 290 reset;
#X msg 691 414 0;
#X obj 651 457 b;
#X obj 651 482 f;
#X obj 679 483 + 1;
#X obj 651 511 speedlim 100;
#X obj 780 392 s \$0-calling;
#X obj 651 538 s \$0-packets-in-set;
#X obj 744 511 s \$0-dropouts-set;
#X obj 899 399 s \$0-connected-set;
#X obj 1039 370 print quack-panel-\$1;
#X obj 807 178 symbol;
#X obj 807 203 s \$0-server;
#X obj 890 178 symbol;
#X obj 890 203 s \$0-call-name;
#X obj 890 451 sel 0;
#X obj 890 476 0;
#X obj 890 501 s \$0-fill-set;
#X obj 801 423 s \$0-server-answered;
#X obj 586 650 s \$0-remote-sr-set;
#X floatatom 33 340 5 0 0 0 - #0-remote-sr-set #0-remote-sr;
#X obj 627 423 route 0;
#X obj 474 505 line~;
#X obj 434 583 rpole~;
#X obj 474 453 sel 1 0;
#X obj 434 547 *~;
#X obj 474 530 *~ -1;
#X obj 474 554 +~ 1;
#X obj 474 478 1 5;
#X obj 503 478 0.0005;
#X obj 385 583 rpole~;
#X obj 385 546 *~;
#X floatatom 86 341 3 0 0 0 - #0-remote-ch-set #0-remote-ch;
#X floatatom 33 398 3 0 0 0 - #0-remote-blk-set #0-remote-blk;
#X obj 558 569 unpack 0 0 0 0 0;
#X obj 682 572 s \$0-remote-blk-set;
#X text 32 306 sample rate, f 6;
#X text 33 363 block size, f 5;
#X text 80 320 channels;
#X text 82 363 mbits per sec, f 7;
#X obj 45 570 route server call-name on-off block nchan 2x;
#X floatatom 85 398 5 0 0 0 - #0-remote-mbits-set #0-remote-mbits;
#X obj 539 346 route got-packet drop late miss request-call no-peer-yet
running bw, f 68;
#X obj 1035 522 s \$0-local-mbits-set;
#X obj 1002 546 s \$0-remote-mbits-set;
#X obj 147 613 s \$0-onoff;
#X text 32 270 dropouts;
#X obj 44 545 r receiver-\$1-\$2;
#X floatatom 429 119 5 0 0 0 - - -;
#X floatatom 72 161 3 3 100 0 - #0-fifo-size-set #0-fifo-size;
#X text 38 248 packets;
#X text 34 183 ---readouts---;
#X symbolatom 34 202 16 0 0 0 - #1-#2-channel-name-set #1-#2-channel-name
;
#X text 30 161 delay;
#X obj 818 131 setctl \$1-\$2-channel-name;
#X obj 415 89 pack \$0 \$1 \$2;
#X msg 416 145 \; \$1-fifo-size 15 \; \$2-\$3-channel-name symbol \;
;
#X obj 913 621 == 1;
#X obj 845 71 setctl \$0-remote-ch;
#X obj 770 659 s \$0-remote-ch;
#X obj 1000 435 unpack 0 0 0 0;
#X obj 1062 496 s \$0-min-fill-set;
#X obj 1083 467 s \$0-max-fill-set;
#X floatatom 114 225 3 0 0 0 - #0-max-fill-set #0-max-fill;
#X text 99 224 -;
#X obj 913 646 change;
#X obj 913 671 s \$0-mono;
#X obj 100 52 vsl 15 101 0 100 0 0 \$0-lvl \$0-lvl-set empty 0 -9 0
10 -262144 -1 -1 0 1;
#X text 45 93 gain-->;
#X text 38 81 normal;
#X obj 511 282 print foo;
#X connect 16 0 17 2;
#X connect 17 0 60 0;
#X connect 17 1 54 0;
#X connect 17 2 71 0;
#X connect 18 0 53 0;
#X connect 23 0 24 0;
#X connect 24 0 84 0;
#X connect 25 0 26 0;
#X connect 26 0 27 0;
#X connect 26 0 37 0;
#X connect 27 0 26 1;
#X connect 28 0 30 0;
#X connect 30 0 32 0;
#X connect 30 0 26 0;
#X connect 31 0 32 0;
#X connect 32 0 33 0;
#X connect 32 0 34 0;
#X connect 33 0 32 1;
#X connect 34 0 36 0;
#X connect 40 0 41 0;
#X connect 42 0 43 0;
#X connect 44 0 45 0;
#X connect 45 0 46 0;
#X connect 50 1 31 0;
#X connect 51 0 55 0;
#X connect 51 0 54 1;
#X connect 51 0 60 1;
#X connect 52 0 14 1;
#X connect 53 0 57 0;
#X connect 53 1 58 0;
#X connect 54 0 52 0;
#X connect 55 0 56 0;
#X connect 56 0 52 1;
#X connect 56 0 59 1;
#X connect 57 0 51 0;
#X connect 58 0 51 0;
#X connect 59 0 14 0;
#X connect 60 0 59 0;
#X connect 63 0 18 0;
#X connect 63 2 48 0;
#X connect 63 3 86 0;
#X connect 63 3 88 0;
#X connect 63 4 64 0;
#X connect 69 2 74 0;
#X connect 71 0 50 0;
#X connect 71 0 63 0;
#X connect 71 1 25 0;
#X connect 71 2 25 0;
#X connect 71 3 25 0;
#X connect 71 4 35 0;
#X connect 71 5 47 0;
#X connect 71 6 44 0;
#X connect 71 6 38 0;
#X connect 71 7 89 0;
#X connect 71 8 39 0;
#X connect 76 0 69 0;
#X connect 84 0 85 0;
#X connect 84 0 77 0;
#X connect 86 0 94 0;
#X connect 89 0 73 0;
#X connect 89 1 72 0;
#X connect 89 2 90 0;
#X connect 89 3 91 0;
#X connect 94 0 95 0;
#X coords 0 0 1 1 120 390 1 30 30;
