#N canvas 1154 465 771 415 12;
#X declare -path ../lib;
#X floatatom 295 39 6 0 0 0 - - -;
#X obj 413 109 tgl 15 0 empty empty empty 17 7 0 10 -262144 -1 -1 1
1;
#N canvas 271 230 901 585 listener 0;
#X obj 304 285 unpack s 0;
#X obj 208 192 f;
#X obj 165 158 sel 0;
#X msg 174 252 listen \$1;
#X floatatom 174 223 5 0 0 0 - - -;
#X msg 173 191 0;
#X obj 209 163 b;
#X obj 242 190 r \$0-port;
#X obj 165 133 f;
#X obj 306 316 s \$0-control-rtnhost;
#X obj 384 287 s \$0-control-rtnport;
#X obj 165 107 r \$0-control-listen;
#X obj 175 373 list;
#X obj 175 404 t b l b;
#X msg 232 434 0;
#X msg 165 436 1;
#X obj 231 466 s \$0-control-listen;
#X obj 174 280 netreceive -u -f;
#X obj 199 496 s \$0-got-call;
#X obj 384 379 list;
#X obj 384 410 t b l b;
#X msg 441 440 0;
#X msg 374 442 1;
#X obj 440 472 s \$0-control-listen;
#X obj 408 502 s \$0-got-admin;
#X obj 170 44 r \$0-on-off;
#X obj 170 70 s \$0-control-listen;
#X obj 175 348 route call admin, f 60;
#X obj 45 283 spigot;
#X obj 75 249 tgl 15 0 empty empty empty 17 7 0 10 -262144 -1 -1 0
1;
#X obj 45 308 print from-net;
#X obj 743 406 netsend -u;
#X obj 665 457 spigot;
#X obj 727 458 tgl 15 0 empty empty empty 17 7 0 10 -262144 -1 -1 0
1;
#X obj 665 486 print to-caller-netsend;
#X obj 667 338 r \$0-to-caller-netsend;
#X obj 667 363 t b a a;
#X msg 667 407 (done);
#X text 336 11 messages to control port:;
#X text 377 39 from chef (admin):;
#X text 439 247 --> returns: channel <channel> <number-of-callers>
;
#X text 367 202 from caller:;
#X text 629 305 --> returns: meter <name vu> ...;
#X text 613 287 admin ping <level pan solo> ...;
#X text 447 88 --> (no return msg);
#X text 398 70 admin setup <pwd> <call-name> <caller-name flag> ...
, f 62;
#X text 436 131 if names OK --> returns: meter 1 <name flag gain pan
vu> ..., f 61;
#X text 436 148 if names wrong --> returns: meter 0 (etc) ...;
#X text 413 111 admin ping <channel> <name gain pan solo> ...;
#X text 436 226 call <call-name> <my-name> <echo-level>;
#X obj 33 368 spigot;
#X obj 63 334 tgl 15 0 empty empty empty 17 7 0 10 -262144 -1 -1 0
1;
#X obj 33 393 print return-addr;
#X text 436 170 channel is 1-based. If it's 1 \, actually use the control
values, f 63;
#X connect 0 0 9 0;
#X connect 0 1 10 0;
#X connect 1 0 4 0;
#X connect 2 0 5 0;
#X connect 2 1 6 0;
#X connect 3 0 17 0;
#X connect 4 0 3 0;
#X connect 5 0 4 0;
#X connect 6 0 1 0;
#X connect 7 0 1 1;
#X connect 8 0 2 0;
#X connect 11 0 8 0;
#X connect 12 0 13 0;
#X connect 13 0 15 0;
#X connect 13 1 18 0;
#X connect 13 2 14 0;
#X connect 14 0 16 0;
#X connect 15 0 16 0;
#X connect 17 0 27 0;
#X connect 17 0 28 0;
#X connect 17 1 0 0;
#X connect 17 1 50 0;
#X connect 19 0 20 0;
#X connect 20 0 22 0;
#X connect 20 1 24 0;
#X connect 20 2 21 0;
#X connect 21 0 23 0;
#X connect 22 0 23 0;
#X connect 25 0 26 0;
#X connect 27 0 12 0;
#X connect 27 1 19 0;
#X connect 28 0 30 0;
#X connect 29 0 28 1;
#X connect 32 0 34 0;
#X connect 33 0 32 1;
#X connect 35 0 36 0;
#X connect 36 0 37 0;
#X connect 36 1 31 0;
#X connect 36 2 32 0;
#X connect 37 0 32 0;
#X connect 50 0 52 0;
#X connect 51 0 50 1;
#X restore 16 34 pd listener;
#N canvas 75 123 671 564 cull-dead-calls 0;
#X obj 221 49 r \$0-timestamp;
#X obj 185 264 text get \$0-callers;
#X obj 185 289 list trim;
#X obj 185 314 route -;
#X obj 185 197 spigot;
#X obj 252 196 tgl 15 0 empty empty empty 17 7 0 10 -262144 -1 -1 1
1;
#X obj 249 167 loadbang;
#X obj 185 229 t f f, f 23;
#X obj 221 358 unpack s 0 0;
#X obj 231 91 t f f, f 25;
#X obj 281 424 -;
#X obj 281 398 swap;
#X obj 281 449 mod 100000;
#X obj 371 516 text set \$0-callers;
#X floatatom 457 464 5 0 0 0 - - -;
#X msg 369 486 list - 0 0;
#X floatatom 466 134 5 0 0 0 - - -;
#X obj 281 474 moses 60;
#X obj 188 124 mod 100;
#X connect 0 0 9 0;
#X connect 0 0 16 0;
#X connect 1 0 2 0;
#X connect 2 0 3 0;
#X connect 3 1 8 0;
#X connect 4 0 7 0;
#X connect 5 0 4 1;
#X connect 6 0 5 0;
#X connect 7 0 1 0;
#X connect 7 1 13 1;
#X connect 8 1 11 0;
#X connect 9 0 18 0;
#X connect 9 1 11 1;
#X connect 10 0 12 0;
#X connect 11 0 10 0;
#X connect 11 1 10 1;
#X connect 12 0 14 0;
#X connect 12 0 17 0;
#X connect 15 0 13 0;
#X connect 17 1 15 0;
#X connect 18 0 4 0;
#X restore 17 168 pd cull-dead-calls;
#N canvas 299 79 989 720 got-call 0;
#X obj 356 98 pack 0 s 0 0;
#X obj 449 97 r \$0-port;
#X obj 411 68 r \$0-control-rtnport;
#X obj 383 46 r \$0-control-rtnhost;
#X msg 356 123 disconnect \, connect \$2 \$3 \$4;
#X obj 94 54 t b l b;
#X obj 94 29 r \$0-got-call;
#X obj 356 152 s \$0-to-caller-netsend;
#X msg 274 105 disconnect;
#X obj 37 599 s \$0-to-caller-netsend;
#X obj 689 138 text search \$0-callers;
#X obj 690 165 route -1;
#X obj 355 442 r \$0-timestamp;
#X obj 47 430 f;
#X obj 307 441 symbol;
#X obj 600 465 text search \$0-callers;
#X obj 600 493 route -1;
#X msg 601 438 symbol -;
#X obj 315 470 pack s 0 0;
#X obj 249 504 text set \$0-callers 0 0;
#X obj 47 455 + 1;
#X obj 139 307 t s s, f 6;
#X obj 140 335 t b s, f 44;
#X obj 757 164 s \$0-alloc-channel;
#X obj 665 494 s \$0-alloc-channel;
#X obj 163 363 r \$0-alloc-channel;
#X text 793 249 1 caller already has channel, f 17;
#X obj 630 273 b;
#X obj 630 298 symbol;
#X obj 194 309 s \$0-new-caller;
#X obj 668 273 r \$0-new-caller;
#X obj 354 416 r \$0-new-caller;
#X obj 630 328 text search \$0-want-callers;
#X obj 629 356 route -1;
#X obj 694 358 s \$0-alloc-channel;
#X obj 788 226 print z1;
#X obj 635 626 print z4;
#X msg 513 547 -1;
#X msg 35 182 1, f 1;
#X text 97 97 check session matches, f 13;
#X obj 35 108 t s b l;
#X msg 57 182 0, f 1;
#X obj 35 213 ||;
#X obj 35 158 sel -;
#X msg 83 186 1, f 1;
#X msg 105 186 0, f 1;
#X obj 83 162 sel -;
#X obj 116 248 route 0 1;
#X text 14 310 wrong session;
#X text 759 414 2 chef assigned channel;
#X text 780 472 3 found a free channel;
#X text 494 574 no free channels: fail;
#X obj 462 497 r \$0-nope;
#X obj 49 290 s \$0-nope;
#X obj 60 132 r \$0-session-name;
#X obj 789 201 spigot;
#X obj 841 201 r \$0-loud;
#X obj 693 389 spigot;
#X obj 745 389 r \$0-loud;
#X obj 692 414 print z2;
#X obj 672 519 spigot;
#X obj 725 518 r \$0-loud;
#X obj 672 544 print z3;
#X obj 637 598 spigot;
#X obj 690 597 r \$0-loud;
#X obj 27 626 spigot;
#X obj 79 626 r \$0-loud;
#X obj 26 651 print return;
#X obj 131 158 unpack s s 0;
#X obj 116 221 pack 0 s s 0;
#X obj 147 274 unpack s s 0;
#X text 267 255 comment;
#X text 308 306 caller name;
#X text 55 5 call message args: session-name \, caller-name \, caller-monitor-lvl
, f 65;
#X obj 28 509 r \$0-send-channel;
#X obj 238 603 pack 0 0 \$0;
#X obj 248 276 s \$0-call-monitor;
#X obj 276 571 r \$0-call-monitor;
#X obj 178 572 route 0;
#X obj 238 573 - 1;
#X msg 238 628 \; \$3-\$1-monitor-lvl \$2;
#X obj 47 480 s \$0-send-channel;
#X obj 376 601 r \$0-loud;
#X obj 389 627 spigot;
#X obj 441 626 tgl 15 0 empty empty empty 17 7 0 10 -262144 -1 -1 0
1;
#X obj 389 652 print monitor;
#X obj 28 544 pack 0 0;
#X obj 105 538 r \$0-caller-count;
#X msg 28 572 send channel \$1 \$2;
#X text 819 494 (this was wrong - disabled for now.), f 18;
#X obj 161 679 print asdfg;
#X obj 588 683 s \$0-alloc-channel;
#X obj 306 391 sel -1;
#X obj 163 390 t b f f;
#X obj 307 423 b;
#X connect 0 0 4 0;
#X connect 1 0 0 3;
#X connect 2 0 0 2;
#X connect 3 0 0 1;
#X connect 4 0 7 0;
#X connect 5 0 8 0;
#X connect 5 1 40 0;
#X connect 5 2 0 0;
#X connect 6 0 5 0;
#X connect 8 0 7 0;
#X connect 10 0 11 0;
#X connect 11 0 27 0;
#X connect 11 1 23 0;
#X connect 11 1 55 0;
#X connect 12 0 18 1;
#X connect 13 0 20 0;
#X connect 14 0 18 0;
#X connect 15 0 16 0;
#X connect 16 1 24 0;
#X connect 16 1 60 0;
#X connect 17 0 15 0;
#X connect 18 0 19 0;
#X connect 20 0 81 0;
#X connect 21 0 22 0;
#X connect 21 1 29 0;
#X connect 22 0 13 0;
#X connect 22 1 10 0;
#X connect 25 0 93 0;
#X connect 27 0 28 0;
#X connect 28 0 32 0;
#X connect 30 0 28 1;
#X connect 31 0 14 1;
#X connect 32 0 33 0;
#X connect 33 0 37 0;
#X connect 33 1 34 0;
#X connect 33 1 57 0;
#X connect 37 0 91 0;
#X connect 37 0 63 0;
#X connect 38 0 42 0;
#X connect 40 0 43 0;
#X connect 40 2 68 0;
#X connect 41 0 42 0;
#X connect 42 0 69 0;
#X connect 43 0 38 0;
#X connect 43 1 41 0;
#X connect 44 0 42 1;
#X connect 45 0 42 1;
#X connect 46 0 44 0;
#X connect 46 1 45 0;
#X connect 47 0 53 0;
#X connect 47 1 70 0;
#X connect 52 0 37 0;
#X connect 54 0 46 0;
#X connect 54 0 43 1;
#X connect 55 0 35 0;
#X connect 56 0 55 1;
#X connect 57 0 59 0;
#X connect 58 0 57 1;
#X connect 60 0 62 0;
#X connect 61 0 60 1;
#X connect 63 0 36 0;
#X connect 64 0 63 1;
#X connect 65 0 67 0;
#X connect 66 0 65 1;
#X connect 68 0 69 1;
#X connect 68 1 69 2;
#X connect 68 2 69 3;
#X connect 69 0 47 0;
#X connect 70 1 21 0;
#X connect 70 2 76 0;
#X connect 74 0 78 0;
#X connect 74 0 86 0;
#X connect 75 0 80 0;
#X connect 75 0 83 0;
#X connect 77 0 75 1;
#X connect 78 1 79 0;
#X connect 79 0 75 0;
#X connect 82 0 83 1;
#X connect 83 0 85 0;
#X connect 84 0 83 1;
#X connect 86 0 88 0;
#X connect 87 0 86 1;
#X connect 88 0 9 0;
#X connect 88 0 65 0;
#X connect 92 1 94 0;
#X connect 93 1 13 1;
#X connect 93 1 92 0;
#X connect 93 2 19 1;
#X connect 94 0 14 0;
#X restore 15 60 pd got-call;
#N canvas 553 60 1028 680 got-admin 0;
#X obj 183 115 pack 0 s 0 0;
#X obj 276 114 r \$0-port;
#X obj 238 85 r \$0-control-rtnport;
#X obj 210 63 r \$0-control-rtnhost;
#X msg 183 140 disconnect \, connect \$2 \$3 \$4;
#X obj 36 90 t b l b;
#X obj 184 166 s \$0-to-caller-netsend;
#X msg 101 122 disconnect;
#X obj 61 207 t l s b;
#X obj 193 197 r \$0-pw;
#X obj 193 223 sel -;
#X obj 150 235 f;
#X msg 193 248 1;
#X obj 78 235 select -;
#X obj 61 290 spigot;
#X msg 78 259 1;
#X obj 37 63 r \$0-got-admin;
#X text 39 38 admin-pw \, selector \, arg...;
#X obj 60 316 list split 1;
#X obj 84 342 list trim;
#X obj 84 367 route ping setup;
#X obj 57 475 list split 1;
#X obj 137 394 list;
#X obj 212 363 print unknown;
#X obj 57 554 s \$0-session-name;
#X obj 97 502 t l b;
#X obj 149 503 s \$0-reset-callers;
#X obj 97 527 s \$0-add-callers;
#X obj 636 469 s \$0-ping;
#X obj 432 607 list trim;
#X obj 432 632 s \$0-to-caller-netsend;
#X obj 433 579 list store, f 45;
#X obj 600 521 r \$0-channel-stats;
#X obj 322 609 spigot;
#X obj 322 634 print to-admin;
#X obj 361 588 tgl 15 0 empty empty empty 17 7 0 10 -262144 -1 -1 0
1;
#X obj 236 418 spigot;
#X obj 297 416 tgl 15 0 empty empty empty 17 7 0 10 -262144 -1 -1 0
1;
#X obj 236 443 print got-setup;
#X text 611 77 check names against list;
#X obj 552 106 spigot;
#X obj 706 109 list length;
#X obj 534 80 t l l l b;
#X obj 707 167 ==;
#X text 776 190 warn caller roster changed, f 15;
#X text 605 51 ping <name level pan solo> ...;
#X obj 707 137 / 4;
#X floatatom 843 160 5 0 0 0 - - -;
#X floatatom 804 161 5 0 0 0 - - -;
#X obj 528 201 until;
#X obj 529 328 list store;
#X msg 528 301 get \$1 1;
#X obj 529 353 select -;
#X obj 528 175 f;
#X obj 614 328 t s;
#X obj 552 131 t b b l;
#X obj 528 226 f;
#X msg 571 199 0;
#X obj 528 251 t f f;
#X obj 441 521 f;
#X msg 441 545 prepend send meter \$1;
#X obj 428 430 t b b l b, f 45;
#X text 392 391 generate metering return message, f 17;
#X msg 827 309 1;
#X msg 793 308 0;
#X obj 795 109 text size \$0-want-callers;
#X obj 614 303 text get \$0-want-callers;
#X obj 557 227 + 1;
#X obj 528 276 * 4;
#X obj 130 421 spigot;
#X obj 191 419 tgl 15 0 empty empty empty 17 7 0 10 -262144 -1 -1 0
1;
#X obj 130 446 print got-ping;
#X obj 84 395 list;
#X msg 601 546 prepend \$1 \$2 \$3 \$4 \$5;
#X obj 744 170 sel;
#X floatatom 827 346 5 0 0 0 - - -;
#X obj 789 573 print z;
#X obj 791 548 spigot;
#X obj 840 523 tgl 15 0 empty empty empty 17 7 0 10 -262144 -1 -1 0
1;
#X obj 501 53 list split 1;
#X obj 569 23 s \$0-whose-ping;
#X obj 31 420 print;
#X obj 502 23 t l f;
#X floatatom 711 17 5 0 0 0 - - -;
#X text 758 20 channel that's pinging us;
#X connect 0 0 4 0;
#X connect 1 0 0 3;
#X connect 2 0 0 2;
#X connect 3 0 0 1;
#X connect 4 0 6 0;
#X connect 5 0 7 0;
#X connect 5 1 8 0;
#X connect 5 2 0 0;
#X connect 7 0 6 0;
#X connect 8 0 14 0;
#X connect 8 1 13 0;
#X connect 8 2 11 0;
#X connect 9 0 10 0;
#X connect 9 0 13 1;
#X connect 10 0 12 0;
#X connect 11 0 14 1;
#X connect 12 0 11 1;
#X connect 13 0 15 0;
#X connect 14 0 18 0;
#X connect 15 0 14 1;
#X connect 16 0 5 0;
#X connect 18 1 19 0;
#X connect 19 0 20 0;
#X connect 20 0 69 0;
#X connect 20 0 72 0;
#X connect 20 1 22 0;
#X connect 20 1 36 0;
#X connect 20 2 23 0;
#X connect 21 0 24 0;
#X connect 21 1 25 0;
#X connect 22 0 21 0;
#X connect 25 0 27 0;
#X connect 25 1 26 0;
#X connect 29 0 30 0;
#X connect 29 0 33 0;
#X connect 31 0 29 0;
#X connect 32 0 73 0;
#X connect 33 0 34 0;
#X connect 35 0 33 1;
#X connect 36 0 38 0;
#X connect 37 0 36 1;
#X connect 40 0 55 0;
#X connect 41 0 46 0;
#X connect 41 0 53 1;
#X connect 42 0 61 0;
#X connect 42 1 40 0;
#X connect 42 2 41 0;
#X connect 42 3 63 0;
#X connect 42 3 65 0;
#X connect 43 0 40 1;
#X connect 46 0 43 0;
#X connect 46 0 48 0;
#X connect 46 0 74 0;
#X connect 49 0 56 0;
#X connect 51 0 50 0;
#X connect 52 1 64 0;
#X connect 53 0 49 0;
#X connect 54 0 52 1;
#X connect 55 0 53 0;
#X connect 55 1 57 0;
#X connect 55 2 50 1;
#X connect 56 0 58 0;
#X connect 56 0 67 0;
#X connect 57 0 56 1;
#X connect 58 0 68 0;
#X connect 58 1 66 0;
#X connect 59 0 60 0;
#X connect 60 0 31 0;
#X connect 61 0 31 0;
#X connect 61 1 59 0;
#X connect 61 2 28 0;
#X connect 61 3 31 1;
#X connect 61 3 77 0;
#X connect 63 0 59 1;
#X connect 63 0 75 0;
#X connect 64 0 59 1;
#X connect 64 0 75 0;
#X connect 65 0 43 1;
#X connect 65 0 47 0;
#X connect 65 0 74 1;
#X connect 66 0 54 0;
#X connect 67 0 56 1;
#X connect 68 0 51 0;
#X connect 69 0 71 0;
#X connect 70 0 69 1;
#X connect 72 0 82 0;
#X connect 73 0 31 0;
#X connect 73 0 77 0;
#X connect 74 1 64 0;
#X connect 77 0 76 0;
#X connect 78 0 77 1;
#X connect 79 1 42 0;
#X connect 82 0 79 0;
#X connect 82 1 80 0;
#X connect 82 1 83 0;
#X restore 15 85 pd got-admin;
#X obj 295 14 r \$0-port;
#X obj 414 80 r \$0-on-off;
#N canvas 330 279 789 646 caller-list 0;
#X obj 22 129 text define \$0-callers;
#X obj 22 100 text define \$0-want-callers;
#X obj 22 227 bng 15 250 50 0 empty empty empty 17 7 0 10 -262144 -1
-1;
#X obj 372 159 r \$0-add-callers;
#X obj 21 180 r \$0-reset-callers;
#X obj 355 413 list split;
#X obj 355 386 list;
#X obj 372 185 t l b l;
#X obj 359 303 until;
#X obj 359 328 f;
#X msg 440 301 0;
#X obj 322 246 list length;
#X obj 359 353 t b f;
#X obj 578 300 s \$0-reset-callers;
#X obj 580 273 bng 15 250 50 0 empty empty empty 17 7 0 10 -262144
-1 -1;
#X obj 581 352 s \$0-add-callers;
#X msg 581 326 list a b c d;
#X msg 303 571 \$4-\$5-to-caller list \$1 \$2 \$3;
#X obj 303 596 print beagle;
#X obj 482 189 spigot;
#X obj 482 214 print add-callers;
#X obj 526 156 tgl 15 0 empty empty empty 17 7 0 10 -262144 -1 -1 0
1;
#X obj 59 411 r \$0-timestamp;
#X obj 59 449 t b b;
#X msg 59 476 const 0;
#X obj 141 445 array sum \$0-activetab;
#X obj 58 503 s \$0-activetab;
#X obj 141 474 s \$0-caller-count;
#X floatatom 184 537 5 0 0 0 - - -;
#X msg 22 252 clear;
#X obj 215 347 s \$0-roster-length;
#X obj 314 508 text set \$0-want-callers 1e+09;
#X msg 535 481 list - 0 0;
#X obj 535 508 text set \$0-callers 1e+09;
#X obj 34 280 s \$0-want-callers;
#X obj 22 309 s \$0-callers;
#X obj 322 271 div 2;
#X text 374 129 <name flag> ....;
#X obj 395 329 + 2;
#X obj 386 442 unpack s 0;
#X obj 314 483 pack s 0 0;
#X connect 2 0 29 0;
#X connect 3 0 7 0;
#X connect 3 0 19 0;
#X connect 4 0 2 0;
#X connect 5 1 39 0;
#X connect 6 0 5 0;
#X connect 7 0 11 0;
#X connect 7 1 10 0;
#X connect 7 2 6 1;
#X connect 8 0 9 0;
#X connect 9 0 12 0;
#X connect 9 0 38 0;
#X connect 10 0 9 1;
#X connect 11 0 36 0;
#X connect 12 0 6 0;
#X connect 12 1 5 1;
#X connect 14 0 13 0;
#X connect 16 0 15 0;
#X connect 17 0 18 0;
#X connect 19 0 20 0;
#X connect 21 0 19 1;
#X connect 22 0 23 0;
#X connect 23 0 24 0;
#X connect 23 1 25 0;
#X connect 24 0 26 0;
#X connect 25 0 27 0;
#X connect 25 0 28 0;
#X connect 29 0 34 0;
#X connect 29 0 35 0;
#X connect 32 0 33 0;
#X connect 36 0 8 0;
#X connect 36 0 30 0;
#X connect 38 0 9 1;
#X connect 39 0 32 0;
#X connect 39 0 40 0;
#X connect 39 1 40 1;
#X connect 40 0 31 0;
#X restore 16 143 pd caller-list;
#N canvas 346 -9 1090 539 startup 0;
#X obj 19 218 s \$0-on-off;
#X obj 108 191 metro 1000;
#X obj 108 216 f;
#X obj 108 266 mod 100000;
#X obj 108 291 s \$0-timestamp;
#X obj 108 241 + 1;
#X obj 249 307 r #;
#X obj 376 228 list trim;
#X obj 384 307 print port;
#X obj 246 50 loadbang;
#X obj 376 332 s \$0-port;
#X obj 476 307 print pw;
#X obj 465 331 s \$0-pw;
#X obj 579 190 text define \$0-config;
#X obj 376 203 text sequence \$0-config;
#X obj 225 218 sel 0;
#X obj 225 268 s \$0-port;
#X obj 225 193 v \$0-port;
#X obj 246 75 t b b b b, f 43;
#X msg 377 176 line 0 \, auto;
#X obj 465 281 symbol;
#X obj 216 54 bng 15 250 50 0 empty empty empty 17 7 0 10 -262144 -1
-1;
#X msg 19 194 1;
#X msg 225 243 38400;
#X obj 376 278 f;
#X obj 586 122 s \$0-reset-callers;
#X msg 46 113 \; pd dsp 1;
#X msg 579 165 read -c server101-config.txt;
#X obj 551 308 print delay;
#X obj 538 281 f;
#X obj 376 253 route port password delay;
#X obj 538 333 s \$0-nbuf;
#X connect 1 0 2 0;
#X connect 2 0 5 0;
#X connect 3 0 2 1;
#X connect 3 0 4 0;
#X connect 5 0 3 0;
#X connect 7 0 30 0;
#X connect 9 0 18 0;
#X connect 14 0 7 0;
#X connect 15 0 23 0;
#X connect 17 0 15 0;
#X connect 18 0 1 0;
#X connect 18 0 22 0;
#X connect 18 0 26 0;
#X connect 18 1 17 0;
#X connect 18 2 19 0;
#X connect 18 3 27 0;
#X connect 18 3 25 0;
#X connect 19 0 14 0;
#X connect 20 0 11 0;
#X connect 20 0 12 0;
#X connect 21 0 18 0;
#X connect 22 0 0 0;
#X connect 23 0 16 0;
#X connect 24 0 10 0;
#X connect 24 0 8 0;
#X connect 27 0 13 0;
#X connect 29 0 28 0;
#X connect 29 0 31 0;
#X connect 30 0 24 0;
#X connect 30 1 20 0;
#X connect 30 2 29 0;
#X restore 20 202 pd startup;
#X floatatom 294 107 6 0 0 0 - - -;
#X obj 294 82 r \$0-ncallers;
#X obj 533 182 catch~ \$0-from-callers-ch1;
#X obj 533 207 s~ \$0-to-callers-ch1;
#X obj 533 236 catch~ \$0-from-callers-ch2;
#X obj 533 261 s~ \$0-to-callers-ch2;
#X text 19 258 quit Pd when patch closes;
#X obj 422 28 declare -path ../lib;
#X text 20 230 fix apps not to call themself Pd to OS;
#X text 18 287 switch unused voices off;
#X obj 342 309 env~ 8192;
#X floatatom 342 334 5 0 0 0 - - -;
#X obj 544 124 tgl 15 0 empty empty empty 17 7 0 10 -262144 -1 -1 0
1;
#X obj 545 143 s \$0-on-off;
#X obj 600 68 tgl 15 0 empty empty empty 17 7 0 10 -262144 -1 -1 0
1;
#X obj 601 87 s \$0-loud;
#X obj 11 333 array define \$0-solotab 100;
#N canvas 99 119 641 590 old-not-used 0;
#X msg 273 376 0;
#X obj 233 419 f;
#X obj 180 357 list split;
#X obj 180 330 list;
#X obj 197 129 t l b l;
#X obj 184 247 until;
#X obj 184 272 f;
#X msg 265 245 0;
#X obj 147 190 list length;
#X obj 184 297 t b f;
#X obj 273 418 + 1;
#X obj 187 386 t l s b;
#X obj 127 439 f \$0;
#X obj 220 273 + 3;
#X obj 147 215 div 3;
#X obj 291 500 print beagle;
#X obj 404 100 spigot;
#X obj 448 67 tgl 15 0 empty empty empty 17 7 0 10 -262144 -1 -1 0
1;
#X obj 202 52 r \$0-ping;
#X obj 404 125 print ping;
#X text 289 37 ping message: amp. pan \, solo \, [ \, \, \, ];
#X obj 33 439 unpack 0 0 0;
#X msg 33 496 \; \$4-\$5-ping \$1 \$2 \$3;
#X msg 291 475 \$4-\$5-ping \$1 \$2 \$3;
#X obj 33 471 pack 0 0 0 0 0;
#X text 193 107 not using this;
#X connect 0 0 1 1;
#X connect 1 0 10 0;
#X connect 1 0 24 4;
#X connect 2 1 11 0;
#X connect 3 0 2 0;
#X connect 4 0 8 0;
#X connect 4 1 7 0;
#X connect 4 1 0 0;
#X connect 4 2 3 1;
#X connect 5 0 6 0;
#X connect 6 0 9 0;
#X connect 6 0 13 0;
#X connect 7 0 6 1;
#X connect 8 0 14 0;
#X connect 9 0 3 0;
#X connect 9 1 2 1;
#X connect 10 0 1 1;
#X connect 11 0 21 0;
#X connect 11 2 1 0;
#X connect 11 2 12 0;
#X connect 12 0 24 3;
#X connect 13 0 6 1;
#X connect 14 0 5 0;
#X connect 16 0 19 0;
#X connect 17 0 16 1;
#X connect 18 0 16 0;
#X connect 21 0 24 0;
#X connect 21 1 24 1;
#X connect 21 2 24 2;
#X connect 23 0 15 0;
#X connect 24 0 22 0;
#X restore 16 119 pd old-not-used;
#X obj 308 231 clone server101-channel 50 \$0;
#X floatatom 182 107 6 0 0 0 - - -;
#X obj 182 82 r \$0-nbuf;
#X msg 312 179 vis 1 1;
#X obj 14 360 array define \$0-activetab 100;
#X obj 533 288 catch~ \$0-solobus1;
#X obj 533 313 s~ \$0-from-solobus1;
#X obj 534 341 catch~ \$0-solobus2;
#X obj 534 366 s~ \$0-from-solobus2;
#X msg 322 205 vis 2 1;
#X text 52 8 server101 version 0.92test1;
#X connect 6 0 0 0;
#X connect 7 0 1 0;
#X connect 11 0 10 0;
#X connect 12 0 13 0;
#X connect 14 0 15 0;
#X connect 20 0 21 0;
#X connect 22 0 23 0;
#X connect 24 0 25 0;
#X connect 30 0 29 0;
#X connect 31 0 28 0;
#X connect 33 0 34 0;
#X connect 35 0 36 0;
#X connect 37 0 28 0;
