#N canvas 886 243 972 698 12;
#X obj 176 232 quacktrip~;
#X obj 313 96 f;
#X obj 278 67 sel 0;
#X floatatom 276 122 5 0 0 0 - - -;
#X msg 278 95 0;
#X obj 322 67 b;
#X obj 278 41 f;
#X obj 346 96 r \$2-port;
#X obj 278 17 r \$2-on-off;
#X msg 333 204 block 64 \, nchan 2 \, nbuf 20 \, server \$1;
#X obj 276 146 sel 0;
#X msg 276 200 off;
#X obj 333 129 + \$1;
#X obj 254 45 tgl 15 0 empty empty empty 17 7 0 10 -262144 -1 -1 0
1;
#X obj 474 254 spigot;
#X obj 525 254 tgl 15 0 empty empty empty 17 7 0 10 -262144 -1 -1 0
1;
#X obj 333 154 + 1;
#X text 372 129 port number is base port plus voiceno+1;
#N canvas 616 148 932 719 audio-out 0;
#X obj 12 41 inlet~;
#X obj 55 469 *~;
#X obj 12 67 hip~ 3;
#X obj 233 142 f;
#X obj 233 167 max 0;
#X obj 116 465 *~;
#X obj 233 256 line~;
#X obj 233 231 pack 0 30, f 10;
#X obj 395 47 inlet;
#X text 402 9 level;
#X obj 12 355 *~;
#X obj 474 45 inlet;
#X obj 313 428 env~ 8192;
#X obj 667 444 \$1;
#X obj 445 612 s \$2-channel-stats;
#X floatatom 341 519 5 0 0 0 - - -;
#X text 485 17 pan;
#X obj 54 561 throw~ \$2-from-callers-ch1;
#X obj 115 535 throw~ \$2-from-callers-ch2;
#X obj 159 508 s~ \$0-my-ch2;
#X obj 64 509 s~ \$0-my-ch1;
#X obj 667 494 unpack s 0 0 0;
#X obj 445 585 pack s 0 0 0 0;
#X obj 312 515 int;
#X text 408 636 name \, flag \, gain \, pan \, vu;
#X obj 667 469 text get \$2-want-callers;
#X obj 666 48 inlet;
#X text 664 23 get stats;
#X obj 668 415 b;
#X obj 153 52 inlet;
#X text 155 25 mono;
#X obj 389 429 env~ 8192;
#X obj 312 489 max;
#X obj 83 41 inlet~;
#X obj 84 67 hip~ 3;
#X obj 68 352 *~;
#X obj 567 50 inlet;
#X text 571 23 solo;
#X obj 125 106 pack 0 20;
#X obj 125 131 line~;
#X obj 34 198 *~;
#X obj 85 250 throw~ \$2-solobus1;
#N canvas 0 50 486 448 pan-gains 0;
#X obj 131 14 inlet;
#X obj 43 368 outlet~;
#X obj 237 368 outlet~;
#X obj 42 340 line~;
#X obj 42 300 pack 0 30, f 5;
#X obj 130 42 f;
#X obj 130 67 - 5;
#X obj 130 92 * 0.25;
#X obj 130 143 expr 1.5*$f1-0.5*($f1*$f1*$f1);
#X obj 130 117 clip -1 1;
#X obj 257 194 expr 0.5*($f1+1);
#X obj 129 196 expr 0.5*(1-$f1);
#X obj 237 340 line~;
#X obj 237 300 pack 0 30, f 5;
#X obj 130 168 t f f;
#X floatatom 54 277 5 0 0 0 - - -;
#X floatatom 247 276 5 0 0 0 - - -;
#X obj 43 250 expr $f1 + 0.25*($f1*$f2);
#X obj 236 251 expr $f2 + 0.25*($f1*$f2);
#X connect 0 0 5 0;
#X connect 3 0 1 0;
#X connect 4 0 3 0;
#X connect 5 0 6 0;
#X connect 6 0 7 0;
#X connect 7 0 9 0;
#X connect 8 0 14 0;
#X connect 9 0 8 0;
#X connect 10 0 17 1;
#X connect 10 0 18 1;
#X connect 11 0 17 0;
#X connect 11 0 18 0;
#X connect 12 0 2 0;
#X connect 13 0 12 0;
#X connect 14 0 11 0;
#X connect 14 1 10 0;
#X connect 17 0 4 0;
#X connect 17 0 15 0;
#X connect 18 0 13 0;
#X connect 18 0 16 0;
#X restore 344 332 pd pan-gains;
#X obj 39 104 -~;
#X obj 39 129 *~ 0;
#X obj 65 154 +~;
#X obj 86 197 *~;
#X obj 87 223 throw~ \$2-solobus2;
#X obj 321 463 t b f;
#X obj 233 189 expr pow($f1 *0.02 \, 4), f 13;
#X connect 0 0 2 0;
#X connect 1 0 17 0;
#X connect 1 0 20 0;
#X connect 2 0 10 0;
#X connect 2 0 43 0;
#X connect 2 0 40 0;
#X connect 3 0 4 0;
#X connect 4 0 49 0;
#X connect 5 0 18 0;
#X connect 5 0 19 0;
#X connect 6 0 10 1;
#X connect 6 0 35 1;
#X connect 7 0 6 0;
#X connect 8 0 3 0;
#X connect 8 0 22 2;
#X connect 10 0 1 0;
#X connect 10 0 12 0;
#X connect 11 0 22 3;
#X connect 11 0 42 0;
#X connect 12 0 32 0;
#X connect 13 0 25 0;
#X connect 21 0 22 0;
#X connect 21 1 22 1;
#X connect 22 0 14 0;
#X connect 23 0 15 0;
#X connect 23 0 22 4;
#X connect 25 0 21 0;
#X connect 26 0 28 0;
#X connect 28 0 13 0;
#X connect 29 0 44 1;
#X connect 31 0 48 0;
#X connect 32 0 23 0;
#X connect 33 0 34 0;
#X connect 34 0 43 1;
#X connect 34 0 45 1;
#X connect 35 0 5 0;
#X connect 35 0 31 0;
#X connect 36 0 38 0;
#X connect 38 0 39 0;
#X connect 39 0 40 1;
#X connect 39 0 46 1;
#X connect 40 0 41 0;
#X connect 42 0 1 1;
#X connect 42 1 5 1;
#X connect 43 0 44 0;
#X connect 44 0 45 0;
#X connect 45 0 35 0;
#X connect 45 0 46 0;
#X connect 46 0 47 0;
#X connect 48 0 32 0;
#X connect 48 1 32 1;
#X connect 49 0 7 0;
#X restore 237 549 pd audio-out;
#X f 18;
#X obj 339 333 change;
#X obj 339 410 line~;
#X obj 339 358 sel 1 0;
#X obj 339 439 *~ -1;
#X obj 339 463 +~ 1;
#X obj 339 383 1 5;
#X obj 368 383 0.0005;
#X obj 170 508 rpole~;
#X obj 170 471 *~;
#X obj 339 275 route got-packet;
#X obj 719 253 loadbang;
#X obj 719 278 f \$1;
#X obj 719 303 == 0;
#X obj 695 309 tgl 15 0 empty empty empty 17 7 0 10 -262144 -1 -1 1
1;
#X obj 699 342 spigot;
#X obj 699 367 array sum \$2-solotab;
#X obj 699 392 != 0;
#X obj 699 417 s \$0-solo-on;
#X obj 570 347 t f b;
#X obj 554 445 tabwrite \$2-solotab;
#X obj 613 418 f \$1;
#X obj 571 320 != 0;
#X obj 507 361 f \$1;
#X obj 438 415 list split;
#X floatatom 456 554 5 0 0 0 - - -;
#X floatatom 497 556 5 0 0 0 - - -;
#X floatatom 541 556 5 0 0 0 - - -;
#X obj 429 358 r \$2-ping;
#N canvas 189 227 546 683 audio-in 0;
#X obj 37 169 r~ \$2-to-callers-ch1;
#X obj 102 226 r~ \$2-to-callers-ch2;
#X obj 37 471 *~;
#X obj 101 472 *~;
#X obj 223 463 *~;
#X obj 224 324 r \$0-solo-on;
#X obj 224 349 pack 0 20;
#X obj 224 374 line~;
#X obj 145 411 *~ -1;
#X obj 145 436 +~ 1;
#X obj 38 572 outlet~;
#X obj 102 572 outlet~;
#X obj 68 195 r~ \$0-my-ch1;
#X obj 141 250 r~ \$0-my-ch2;
#X obj 279 119 f;
#X obj 279 144 clip 0 100;
#X obj 279 171 expr $f1*$f1*$f1*$f1/6.25e6 - 1;
#X floatatom 290 201 5 0 0 0 - - -;
#X obj 279 228 pack 0 20;
#X obj 279 253 line~;
#X obj 67 319 *~;
#X obj 140 321 *~;
#X obj 36 319 +~;
#X obj 101 322 +~;
#X obj 38 544 +~;
#X obj 101 545 +~;
#X obj 279 94 r \$2-\$1-monitor-lvl;
#X obj 273 415 r~ \$2-from-solobus1;
#X obj 258 464 *~;
#X obj 276 440 r~ \$2-from-solobus2;
#X connect 0 0 22 0;
#X connect 1 0 23 0;
#X connect 2 0 24 0;
#X connect 3 0 25 0;
#X connect 4 0 24 1;
#X connect 5 0 6 0;
#X connect 6 0 7 0;
#X connect 7 0 8 0;
#X connect 7 0 4 0;
#X connect 7 0 28 0;
#X connect 8 0 9 0;
#X connect 9 0 2 1;
#X connect 9 0 3 1;
#X connect 12 0 20 0;
#X connect 13 0 21 0;
#X connect 14 0 15 0;
#X connect 15 0 16 0;
#X connect 16 0 17 0;
#X connect 16 0 18 0;
#X connect 18 0 19 0;
#X connect 19 0 20 1;
#X connect 19 0 21 1;
#X connect 20 0 22 1;
#X connect 21 0 23 1;
#X connect 22 0 2 0;
#X connect 23 0 3 0;
#X connect 24 0 10 0;
#X connect 25 0 11 0;
#X connect 26 0 14 0;
#X connect 27 0 4 1;
#X connect 28 0 25 1;
#X connect 29 0 28 1;
#X restore 175 192 pd audio-in;
#X obj 333 179 pack 0 20;
#X obj 406 178 r \$0-nbuf;
#X obj 246 373 tabwrite \$2-activetab, f 12;
#X obj 246 320 b;
#X obj 246 347 pack 1 \$1;
#X obj 474 281 print q;
#X text 454 578 lvl;
#X text 498 578 pan;
#X text 542 579 solo;
#X obj 507 386 * 4;
#X obj 449 483 unpack s 0 0 0;
#X obj 430 383 t b l b;
#X obj 704 471 r \$2-whose-ping;
#X obj 704 496 == 1;
#X obj 450 455 spigot;
#X obj 224 508 rpole~;
#X obj 224 471 *~;
#X obj 339 304 unpack 0 0 0 0 0;
#X obj 413 456 == 1;
#X floatatom 405 552 5 0 0 0 - - -;
#X text 403 576 mono;
#X obj 702 42 inlet;
#X text 696 71 dummy needed to make inlet on owning clone, f 15;
#X connect 0 0 27 0;
#X connect 0 1 64 0;
#X connect 0 2 14 0;
#X connect 0 2 28 0;
#X connect 1 0 3 0;
#X connect 2 0 4 0;
#X connect 2 1 5 0;
#X connect 3 0 10 0;
#X connect 4 0 3 0;
#X connect 5 0 1 0;
#X connect 6 0 2 0;
#X connect 7 0 1 1;
#X connect 8 0 6 0;
#X connect 9 0 0 2;
#X connect 10 0 11 0;
#X connect 10 1 12 0;
#X connect 11 0 0 2;
#X connect 12 0 16 0;
#X connect 13 0 6 0;
#X connect 14 0 53 0;
#X connect 15 0 14 1;
#X connect 16 0 48 0;
#X connect 19 0 21 0;
#X connect 20 0 22 0;
#X connect 20 0 27 1;
#X connect 20 0 64 1;
#X connect 21 0 24 0;
#X connect 21 1 25 0;
#X connect 22 0 23 0;
#X connect 23 0 26 1;
#X connect 23 0 63 1;
#X connect 24 0 20 0;
#X connect 25 0 20 0;
#X connect 26 0 18 0;
#X connect 27 0 26 0;
#X connect 28 0 51 0;
#X connect 28 0 65 0;
#X connect 29 0 30 0;
#X connect 30 0 31 0;
#X connect 31 0 32 0;
#X connect 31 0 33 1;
#X connect 33 0 34 0;
#X connect 34 0 35 0;
#X connect 35 0 36 0;
#X connect 37 0 38 0;
#X connect 37 1 33 0;
#X connect 37 1 39 0;
#X connect 39 0 38 1;
#X connect 40 0 37 0;
#X connect 41 0 57 0;
#X connect 42 1 62 0;
#X connect 46 0 59 0;
#X connect 47 0 0 0;
#X connect 47 1 0 1;
#X connect 48 0 9 0;
#X connect 49 0 48 1;
#X connect 51 0 52 0;
#X connect 52 0 50 0;
#X connect 57 0 42 1;
#X connect 58 1 43 0;
#X connect 58 1 18 3;
#X connect 58 2 44 0;
#X connect 58 2 18 4;
#X connect 58 3 45 0;
#X connect 58 3 40 0;
#X connect 58 3 18 5;
#X connect 59 0 18 6;
#X connect 59 1 42 0;
#X connect 59 2 41 0;
#X connect 60 0 61 0;
#X connect 61 0 62 1;
#X connect 62 0 58 0;
#X connect 63 0 18 1;
#X connect 64 0 63 0;
#X connect 65 0 19 0;
#X connect 65 3 66 0;
#X connect 66 0 18 2;
#X connect 66 0 67 0;
