#N canvas 0 0 600 492 12;
#X obj 292 92 inlet;
#X obj 88 53 inlet;
#X obj 132 275 spigot;
#X floatatom 169 244;
#X obj 178 165 loadbang;
#X msg 179 195 1;
#X msg 214 197 0;
#X obj 271 289 delay \$1;
#X obj 234 329 f;
#X obj 173 370 change;
#X obj 129 307 t b;
#X obj 173 399 outlet;
#X connect 0 0 7 1;
#X connect 1 0 2 0;
#X connect 1 0 8 1;
#X connect 2 0 10 0;
#X connect 2 0 9 0;
#X connect 3 0 2 1;
#X connect 4 0 5 0;
#X connect 5 0 3 0;
#X connect 6 0 3 0;
#X connect 7 0 8 0;
#X connect 7 0 5 0;
#X connect 8 0 9 0;
#X connect 9 0 11 0;
#X connect 10 0 6 0;
#X connect 10 0 7 0;
