#N canvas 392 149 1223 636 12;
#X declare -path ..;
#X obj 30 225 *~;
#X obj 123 174 tgl 15 0 empty empty empty 17 7 0 10 -262144 -1 -1 0
1;
#X obj 105 222 *~;
#X obj 490 324 env~ 8192;
#X floatatom 490 349 5 0 0 0 - - -;
#X obj 43 359 quacktrip~;
#X obj 651 275 quacktrip~;
#X obj 569 324 env~ 8192;
#X floatatom 569 349 5 0 0 0 - - -;
#X obj 650 370 out2~;
#X obj 858 366 setctl nbuf;
#X floatatom 828 365 3 0 100 0 nbuf nbuf-set nbuf;
#X obj 768 299 r nbuf;
#X msg 768 324 nbuf \$1;
#X floatatom 658 92 3 0 100 0 nchan nchan-set nchan;
#X obj 688 93 setctl nchan;
#N canvas 399 343 574 376 debugging 0;
#X obj 55 176 text define poodle;
#X msg 57 148 clear;
#X msg 79 216 write /home/msp/bis/work/irwin/test-in-bitstream2.txt
;
#X msg 84 254 read /home/msp/bis/work/irwin/test-in-bitstream.txt;
#X obj 183 89 declare -path ..;
#X connect 1 0 0 0;
#X connect 2 0 0 0;
#X connect 3 0 0 0;
#X restore 271 549 pd debugging;
#X text 194 278 initiate connection as client:;
#X text 736 179 start up as server:;
#X text 744 221 shut down:;
#X text 211 319 shut down:;
#X text 30 110 client:;
#X text 764 275 latency in buffers;
#X text 57 6 quacktrip - preliminary attempt at a vanilla Pd jacktrip
client and server (in the same object). So far the connection is only
unidirectional and only up to 2 channels implemented. The client sends
an audio signal and the server gets it. Buffer size is hardwired to
256 samples. Sample rate is not checked.;
#X msg 190 301 client localhost 4477;
#X msg 733 201 server 4477;
#X msg 211 339 off;
#X msg 734 241 off;
#X obj 98 404 out2~;
#X obj 47 181 tgl 15 0 empty empty empty 17 7 0 10 -262144 -1 -1 0
1;
#X obj 544 228 *~;
#X obj 649 184 tgl 15 0 empty empty empty 17 7 0 10 -262144 -1 -1 0
1;
#X obj 649 204 * 0.03;
#X obj 631 232 *~;
#X obj 561 184 tgl 15 0 empty empty empty 17 7 0 10 -262144 -1 -1 0
1;
#X obj 561 204 * 0.03;
#X obj 544 159 osc~ 770;
#X obj 632 159 osc~ 990;
#X obj 249 519 print qt1;
#X obj 220 379 r nbuf;
#X msg 219 406 nbuf \$1;
#X floatatom 755 472 5 0 0 0 - - -;
#X obj 879 424 print qt2;
#X obj 24 491 env~ 8192;
#X floatatom 24 516 5 0 0 0 - - -;
#X obj 26 427 env~ 8192;
#X floatatom 26 452 5 0 0 0 - - -;
#X text 198 222 initiate connection as peer:;
#X msg 191 249 peer 192.168.1.92 3840 poodle;
#X floatatom 30 130 5 0 0 0 - - -;
#X obj 47 201 * 0.03;
#X floatatom 106 124 5 0 0 0 - - -;
#X obj 106 149 osc~ 880;
#X obj 123 194 * 0.03;
#X obj 30 156 osc~ 660;
#X obj 78 528 route got-packet;
#X obj 755 419 route got-packet;
#X floatatom 796 473 5 0 0 0 - - -;
#X obj 755 444 unpack 0 0 0 0 0;
#X text 749 496 valid;
#X text 795 496 fill;
#X floatatom 837 473 5 0 0 0 - - -;
#X floatatom 878 474 5 0 0 0 - - -;
#X floatatom 921 475 5 0 0 0 - - -;
#X text 831 497 srate;
#X text 877 497 nchan;
#X text 920 498 bufsize;
#X floatatom 78 580 5 0 0 0 - - -;
#X floatatom 119 581 5 0 0 0 - - -;
#X obj 78 552 unpack 0 0 0 0 0;
#X text 72 604 valid;
#X text 118 604 fill;
#X floatatom 160 581 5 0 0 0 - - -;
#X floatatom 201 582 5 0 0 0 - - -;
#X floatatom 244 583 5 0 0 0 - - -;
#X text 154 605 srate;
#X text 200 605 nchan;
#X text 243 606 bufsize;
#X msg 191 130 64;
#X msg 224 132 128;
#X msg 259 133 256;
#X obj 189 155 f;
#X floatatom 220 158 5 0 0 0 - - -;
#X msg 188 180 block \$1;
#X obj 295 153 f;
#X floatatom 326 156 5 0 0 0 - - -;
#X msg 294 178 nchan \$1;
#X text 187 95 block size in sample frames, f 14;
#X text 298 92 number of channels to send, f 17;
#X msg 297 128 0;
#X msg 330 130 1;
#X msg 365 131 2;
#X msg 890 187 64;
#X msg 923 189 128;
#X msg 958 190 256;
#X obj 888 212 f;
#X floatatom 919 215 5 0 0 0 - - -;
#X msg 887 237 block \$1;
#X obj 994 210 f;
#X floatatom 1025 213 5 0 0 0 - - -;
#X msg 993 235 nchan \$1;
#X msg 996 185 0;
#X msg 1029 187 1;
#X msg 1064 188 2;
#X obj 245 487 spigot;
#X obj 299 493 tgl 15 0 empty empty empty 17 7 0 10 -262144 -1 -1 0
1;
#X connect 0 0 5 0;
#X connect 1 0 53 0;
#X connect 2 0 5 1;
#X connect 3 0 4 0;
#X connect 5 0 28 0;
#X connect 5 0 43 0;
#X connect 5 1 28 1;
#X connect 5 1 45 0;
#X connect 5 2 55 0;
#X connect 6 0 3 0;
#X connect 6 0 9 0;
#X connect 6 1 7 0;
#X connect 6 1 9 1;
#X connect 6 2 56 0;
#X connect 7 0 8 0;
#X connect 12 0 13 0;
#X connect 13 0 6 2;
#X connect 24 0 5 2;
#X connect 25 0 6 2;
#X connect 26 0 5 2;
#X connect 27 0 6 2;
#X connect 29 0 50 0;
#X connect 30 0 6 0;
#X connect 31 0 32 0;
#X connect 32 0 33 1;
#X connect 33 0 6 1;
#X connect 34 0 35 0;
#X connect 35 0 30 1;
#X connect 36 0 30 0;
#X connect 37 0 33 0;
#X connect 39 0 40 0;
#X connect 40 0 5 2;
#X connect 43 0 44 0;
#X connect 45 0 46 0;
#X connect 48 0 5 2;
#X connect 49 0 54 0;
#X connect 50 0 0 1;
#X connect 51 0 52 0;
#X connect 52 0 2 0;
#X connect 53 0 2 1;
#X connect 54 0 0 0;
#X connect 55 0 69 0;
#X connect 55 1 104 0;
#X connect 56 0 58 0;
#X connect 58 0 41 0;
#X connect 58 1 57 0;
#X connect 58 2 61 0;
#X connect 58 3 62 0;
#X connect 58 4 63 0;
#X connect 69 0 67 0;
#X connect 69 1 68 0;
#X connect 69 2 72 0;
#X connect 69 3 73 0;
#X connect 69 4 74 0;
#X connect 78 0 81 0;
#X connect 79 0 81 0;
#X connect 80 0 81 0;
#X connect 81 0 82 0;
#X connect 81 0 83 0;
#X connect 83 0 5 2;
#X connect 84 0 85 0;
#X connect 84 0 86 0;
#X connect 86 0 5 2;
#X connect 89 0 84 0;
#X connect 90 0 84 0;
#X connect 91 0 84 0;
#X connect 92 0 95 0;
#X connect 93 0 95 0;
#X connect 94 0 95 0;
#X connect 95 0 96 0;
#X connect 95 0 97 0;
#X connect 97 0 6 2;
#X connect 98 0 99 0;
#X connect 98 0 100 0;
#X connect 100 0 6 2;
#X connect 101 0 98 0;
#X connect 102 0 98 0;
#X connect 103 0 98 0;
#X connect 104 0 38 0;
#X connect 105 0 104 1;
