#N canvas 371 339 918 702 12;
#X obj 750 471 t b;
#X obj 750 418 f;
#X obj 750 496 f;
#X msg 864 495 0;
#X obj 750 448 moses 1;
#X obj 864 467 t b f;
#X obj 830 428 moses 1;
#X obj 10 179 inlet~;
#X msg 203 162 \; pd dsp 1;
#X obj 146 368 line~;
#X obj 87 402 *~;
#X obj 87 432 dac~;
#X floatatom 33 48 3 0 100 0 - #0-lvl-set #0-lvl;
#X obj 33 69 bng 15 250 50 0 \$0-mute \$0-mute-set empty 0 0 0 12 -262144
-1 -1;
#X obj 10 201 hip~ 3;
#X obj 33 103 hsl 20 12 1 9 0 0 \$0-pan \$0-pan-set empty 0 0 0 10
-262144 -1 -1 950 1;
#X obj 495 15 r \$0-lvl;
#X msg 495 40 set \$1;
#X obj 495 65 s \$0-lvl-set;
#X obj 60 103 bng 12 250 50 0 \$0-ctr-pan \$0-ctr-pan-set empty 0 0
0 12 -262144 -1 -1;
#X obj 85 32 vu 8 80 \$0-vu1 empty -1 -8 0 10 -66577 -1 0 0;
#X obj 227 25 inlet;
#X obj 399 12 inlet;
#X msg 591 39 set \$1;
#X obj 591 14 r \$0-pan;
#X obj 591 64 s \$0-pan-set;
#X obj 140 45 r \$0-lvl;
#X obj 140 77 f;
#X obj 399 40 f;
#X obj 290 17 r \$0-pan;
#X obj 146 328 pack 0 30, f 5;
#X text 52 66 mute;
#X text 31 84 pan;
#X obj 578 103 r \$0-ctr-pan;
#X obj 290 42 f;
#X floatatom 291 126 5 0 0 0 - - -;
#X obj 290 67 - 5;
#X obj 290 92 * 0.25;
#X obj 829 399 r \$0-lvl;
#X obj 750 522 s \$0-lvl;
#X obj 750 391 r \$0-mute;
#X obj 579 160 s \$0-pan;
#X obj 140 102 max 0;
#X obj 306 176 expr 1.5*$f1-0.5*($f1*$f1*$f1);
#X obj 291 150 clip -1 1;
#X obj 489 235 expr 0.5*($f1+1);
#X obj 303 236 expr 0.5*(1-$f1);
#X obj 294 285 expr $f1 + 0.25*($f1+$f2);
#X obj 491 286 expr $f2 + 0.25*($f1+$f2);
#X obj 694 103 loadbang;
#X obj 202 368 line~;
#X obj 143 402 *~;
#X obj 202 328 pack 0 30, f 5;
#X text 770 359 MUTE logic;
#X obj 132 206 line~;
#X obj 132 166 pack 0 30, f 5;
#X obj 13 229 *~;
#X obj 306 201 t f f;
#X obj 205 441 abs~;
#X obj 205 466 slop~ 0 0 0.3 0 1e+09;
#X obj 583 458 metro 100;
#X obj 202 504 snapshot~;
#X obj 202 529 rmstodb;
#X obj 202 554 moses 1;
#X msg 203 589 -100;
#X obj 250 584 - 88;
#X msg 578 128 5;
#X obj 209 73 s \$0-lvl;
#X obj 227 50 max 0;
#X obj 399 65 clip 0 100;
#X obj 399 90 / 12.5;
#X obj 399 140 s \$0-pan;
#X obj 399 115 + 1;
#X text 59 48 lvl;
#X obj 68 180 inlet~;
#X obj 68 202 hip~ 3;
#X obj 71 230 *~;
#X obj 97 32 vu 8 80 \$0-vu2 empty -1 -8 0 10 -66577 -1 0 0;
#X obj 584 430 loadbang;
#X obj 370 439 abs~;
#X obj 370 464 slop~ 0 0 0.3 0 1e+09;
#X obj 367 502 snapshot~;
#X obj 367 527 rmstodb;
#X obj 367 552 moses 1;
#X msg 368 587 -100;
#X obj 415 582 - 88;
#X obj 201 625 s \$0-vu1;
#X obj 366 623 s \$0-vu2;
#X obj 112 130 expr pow($f1*0.02 \, 4);
#X connect 0 0 2 0;
#X connect 1 0 4 0;
#X connect 2 0 39 0;
#X connect 3 0 39 0;
#X connect 4 0 0 0;
#X connect 4 1 5 0;
#X connect 5 0 3 0;
#X connect 6 1 2 1;
#X connect 7 0 14 0;
#X connect 9 0 10 1;
#X connect 10 0 11 0;
#X connect 10 0 58 0;
#X connect 14 0 56 0;
#X connect 16 0 17 0;
#X connect 17 0 18 0;
#X connect 21 0 68 0;
#X connect 22 0 28 0;
#X connect 23 0 25 0;
#X connect 24 0 23 0;
#X connect 26 0 27 0;
#X connect 27 0 42 0;
#X connect 28 0 69 0;
#X connect 29 0 34 0;
#X connect 30 0 9 0;
#X connect 33 0 66 0;
#X connect 34 0 36 0;
#X connect 35 0 44 0;
#X connect 36 0 37 0;
#X connect 37 0 35 0;
#X connect 38 0 1 1;
#X connect 38 0 6 0;
#X connect 40 0 1 0;
#X connect 42 0 88 0;
#X connect 43 0 57 0;
#X connect 44 0 43 0;
#X connect 44 0 8 0;
#X connect 45 0 47 1;
#X connect 45 0 48 1;
#X connect 46 0 47 0;
#X connect 46 0 48 0;
#X connect 47 0 30 0;
#X connect 48 0 52 0;
#X connect 49 0 66 0;
#X connect 50 0 51 1;
#X connect 51 0 11 1;
#X connect 51 0 79 0;
#X connect 52 0 50 0;
#X connect 54 0 56 1;
#X connect 54 0 76 1;
#X connect 55 0 54 0;
#X connect 56 0 10 0;
#X connect 57 0 46 0;
#X connect 57 1 45 0;
#X connect 58 0 59 0;
#X connect 59 0 61 0;
#X connect 60 0 61 0;
#X connect 60 0 81 0;
#X connect 61 0 62 0;
#X connect 62 0 63 0;
#X connect 63 0 64 0;
#X connect 63 1 65 0;
#X connect 64 0 86 0;
#X connect 65 0 86 0;
#X connect 66 0 41 0;
#X connect 68 0 67 0;
#X connect 69 0 70 0;
#X connect 70 0 72 0;
#X connect 72 0 71 0;
#X connect 74 0 75 0;
#X connect 75 0 76 0;
#X connect 76 0 51 0;
#X connect 78 0 60 0;
#X connect 79 0 80 0;
#X connect 80 0 81 0;
#X connect 81 0 82 0;
#X connect 82 0 83 0;
#X connect 83 0 84 0;
#X connect 83 1 85 0;
#X connect 84 0 87 0;
#X connect 85 0 87 0;
#X connect 88 0 55 0;
#X connect 88 0 8 0;
#X coords 0 0 1 1 77 85 1 30 30;
