#N canvas 324 148 801 695 12;
#X obj 200 254 print f;
#X obj 109 253 print msg;
#X obj 111 221 spigot;
#X obj 199 228 spigot;
#X obj 157 202 tgl 15 0 empty empty empty 17 7 0 10 -262144 -1 -1 0
1;
#X obj 239 209 tgl 15 0 empty empty empty 17 7 0 10 -262144 -1 -1 0
1;
#X obj 118 83 tgl 15 0 empty empty empty 17 7 0 10 -262144 -1 -1 1
1;
#X obj 118 26 loadbang;
#X msg 118 51 1;
#X msg 117 133 listen \$1;
#X msg 273 199 ::ffff:192.168.1.254 4494;
#X msg 273 174 set \$1 \$2;
#X obj 312 231 bng 15 250 50 0 empty empty empty 17 7 0 10 -262144
-1 -1;
#X msg 356 73 0;
#X obj 221 294 b;
#X obj 311 351 unpack s 0;
#X obj 277 383 pack 0 s 0;
#X obj 223 322 del 0;
#X floatatom 319 482 5 0 0 0 - - -;
#X obj 344 621 print g;
#X obj 512 329 del 5000;
#X obj 512 300 b;
#X msg 542 381 disconnect;
#X obj 512 354 t b b;
#X obj 118 103 * 4493;
#X msg 308 428 disconnect \, connect \$2 \$3 4493;
#X obj 311 542 netsend -u;
#X obj 114 168 netreceive -u -f;
#X msg 319 506 send c \$1 7 1;
#X obj 346 591 spigot;
#X obj 409 596 tgl 15 0 empty empty empty 17 7 0 10 -262144 -1 -1 0
1;
#X obj 213 481 metro 1000;
#X obj 234 350 t b b b;
#X obj 218 456 tgl 15 0 empty empty empty 17 7 0 10 -262144 -1 -1 0
1;
#X msg 211 428 1;
#X msg 243 429 0;
#X msg 213 506 send x;
#X connect 2 0 1 0;
#X connect 3 0 0 0;
#X connect 4 0 2 1;
#X connect 5 0 3 1;
#X connect 6 0 24 0;
#X connect 7 0 8 0;
#X connect 8 0 6 0;
#X connect 9 0 27 0;
#X connect 11 0 10 0;
#X connect 13 0 6 0;
#X connect 14 0 17 0;
#X connect 15 0 16 1;
#X connect 15 1 16 2;
#X connect 16 0 25 0;
#X connect 17 0 32 0;
#X connect 18 0 28 0;
#X connect 20 0 23 0;
#X connect 21 0 20 0;
#X connect 22 0 26 0;
#X connect 23 0 8 0;
#X connect 23 0 35 0;
#X connect 23 1 22 0;
#X connect 24 0 9 0;
#X connect 25 0 26 0;
#X connect 26 1 21 0;
#X connect 26 1 29 0;
#X connect 27 0 2 0;
#X connect 27 1 3 0;
#X connect 27 1 11 0;
#X connect 27 1 12 0;
#X connect 27 1 14 0;
#X connect 27 1 15 0;
#X connect 28 0 26 0;
#X connect 29 0 19 0;
#X connect 30 0 29 1;
#X connect 31 0 36 0;
#X connect 32 0 34 0;
#X connect 32 1 16 0;
#X connect 32 2 13 0;
#X connect 33 0 31 0;
#X connect 34 0 33 0;
#X connect 35 0 33 0;
#X connect 36 0 26 0;
